<svg width="242" height="57" viewBox="0 0 242 57" fill="none" xmlns="http://www.w3.org/2000/svg">
<path d="M214.543 43.2699V38.2313C213.413 41.0025 210.025 42.6401 206.198 42.6401C199.736 42.6401 194.905 38.2313 194.905 31.4292V11.3379H203.061V30.2326C203.061 34.0745 204.818 36.0269 208.269 36.0269C211.97 36.0269 214.543 33.5706 214.543 30.2326V11.3379H222.699V43.1439C222.699 51.8985 216.425 57 208.52 57C199.485 57 194.905 52.0244 194.905 44.0257H202.496C202.496 47.6786 204.63 49.946 208.896 49.946C211.845 49.946 214.543 47.3637 214.543 43.2699Z" fill="#363232"/>
<path d="M191.333 42.3241H183.114V23.5554C183.114 18.7687 181.733 17.4461 177.843 17.4461C173.577 17.4461 171.506 19.8394 171.506 24.5631V42.3241H163.35V11.3368H171.13V15.8716C173.012 12.4075 176.149 10.5181 181.106 10.5181C187.004 10.5181 191.333 14.1081 191.333 20.8472V42.3241Z" fill="#363232"/>
<path d="M144.711 36.2778C149.668 36.2778 152.177 33.1287 152.177 26.8305C152.177 20.5322 149.668 17.4461 144.711 17.4461C139.755 17.4461 137.245 20.5322 137.245 26.8305C137.245 33.1287 139.755 36.2778 144.711 36.2778ZM144.711 43.1429C134.735 43.1429 128.837 36.4667 128.837 26.8305C128.837 17.0052 134.923 10.5181 144.711 10.5181C154.373 10.5181 160.397 16.9423 160.397 26.8305C160.397 36.6557 154.311 43.1429 144.711 43.1429Z" fill="#363232"/>
<path d="M126.397 42.3241H118.428V23.5554C118.428 19.8394 116.483 17.1942 113.597 17.1942C110.586 17.1942 108.39 20.0284 108.39 23.8073V42.3241H100.233V23.6814C100.233 18.7058 98.9157 17.4461 95.3394 17.4461C92.0768 17.4461 90.3828 19.4615 90.3828 23.4924V42.3241H82.2263V11.3368H89.8808V15.8716C91.9513 11.7777 94.8375 10.5181 98.9157 10.5181C103.119 10.5181 105.127 11.8407 107.511 15.4307C109.205 12.0296 111.966 10.5181 115.856 10.5181C122.067 10.5181 126.397 15.0528 126.397 20.8472V42.3241Z" fill="#363232"/>
<path d="M70.2244 42.3241H62.068V11.3368H69.7225V15.0528C72.4204 10.896 75.5575 10.5181 78.8828 10.5181H79.9495V18.8947C79.1966 18.7687 78.4436 18.7058 77.6907 18.7058C72.6714 18.7058 70.2244 21.225 70.2244 26.2006V42.3241Z" fill="#363232"/>
<path d="M50.2515 30.5464L50.3143 27.1454C49.4986 27.9641 48.0556 28.405 45.0439 28.9719C40.401 29.8536 38.8952 31.1762 38.8952 33.8215C38.8952 36.1518 40.2755 37.2855 42.848 37.2855C47.0517 37.2855 50.1888 34.1994 50.2515 30.5464ZM58.4707 42.3241H50.8789C50.628 41.5683 50.4397 40.4976 50.377 39.5529C48.432 41.6943 45.1694 43.1429 41.0285 43.1429C34.0014 43.1429 30.7388 39.6788 30.7388 34.6403C30.7388 25.6968 36.6993 24.6891 44.9185 23.5554C48.9967 22.9886 50.126 22.1698 50.126 20.0284C50.126 18.013 48.1183 16.8163 44.9185 16.8163C41.2167 16.8163 39.7109 18.6428 39.3344 21.414H31.7426C31.8681 14.9898 35.3817 10.5181 45.2949 10.5181C55.0827 10.5181 58.4707 14.9268 58.4707 22.7366V42.3241Z" fill="#363232"/>
<path d="M27.9829 42.3241H19.7637V23.1145C19.7637 18.4538 18.1952 17.0052 14.4934 17.0052C10.4152 17.0052 8.15646 20.4063 8.15646 24.5631V42.3241H0V0H8.15646V15.3677C9.34856 12.5965 13.1131 10.518 17.254 10.518C23.591 10.518 27.9829 14.234 27.9829 20.4062V42.3241Z" fill="#363232"/>
<rect x="230.02" y="31.2681" width="11.9802" height="12.0261" rx="0.5" fill="#00C573"/>
</svg>
