<svg width="54" height="54" viewBox="0 0 54 54" fill="none" xmlns="http://www.w3.org/2000/svg">
<circle cx="27" cy="27" r="26.5" fill="white" stroke="#9B9B97"/>
<path d="M22.0546 38.8054C21.4072 40.3973 23.4601 44.1287 26.8971 44.2332C30.4807 44.3412 32.6802 40.4189 32.0472 38.8054C31.1137 36.439 23.0274 36.4066 22.0546 38.8054Z" fill="#F99191"/>
<path d="M23.8964 36.8533C24.3613 36.7164 24.8298 36.63 25.2948 36.5471C25.47 36.5183 25.6524 36.5759 25.8205 36.3958C25.9063 36.3058 26.0888 36.4859 26.2497 36.4679C26.686 36.4175 27.1223 36.4463 27.5622 36.4427C27.9878 36.4427 28.417 36.4102 28.8498 36.4499C29.2789 36.4931 29.6938 36.6696 30.1266 36.6876C30.5092 36.7056 30.781 36.9685 31.128 37.0874C31.4963 37.2206 31.8969 37.4295 32.1651 37.8041C32.3618 38.0635 32.5013 38.3984 32.6301 38.7118C32.6694 38.809 32.7231 38.9027 32.7731 39.0035C32.8161 39.1008 32.8411 39.198 32.8447 39.3097C32.8626 39.5258 32.7445 39.7166 32.9198 39.9111C32.9341 39.9291 32.8912 40.012 32.859 40.048C32.6909 40.2209 32.6551 40.4514 32.6837 40.6315C32.7123 40.8044 32.6551 40.9376 32.6086 41.0781C32.5335 41.2654 32.4513 41.4455 32.369 41.6256C32.2724 41.7985 32.1687 41.9677 32.0614 42.1298C31.879 42.3603 31.668 42.5656 31.457 42.7637C31.3497 42.8718 31.2675 43.0014 31.1637 43.1167C31.06 43.2283 30.9491 43.3328 30.8168 43.394C30.5557 43.5165 30.3411 43.6678 30.1301 43.8334C29.9978 43.9163 29.8011 43.9307 29.7904 44.1684C29.7904 44.19 29.7367 44.2188 29.7081 44.2188C29.4542 44.2188 29.2646 44.3161 29.0787 44.4529C28.8927 44.5826 28.6924 44.7051 28.4635 44.7483C28.231 44.7879 27.9914 44.8059 27.7554 44.8563C27.5193 44.9032 27.2797 44.9032 27.0401 44.9248C26.9113 44.9356 26.779 44.8671 26.6538 44.9968C26.6073 45.0436 26.4714 45.0364 26.4071 44.9932C26.3212 44.9356 26.239 44.8996 26.1495 44.8707C26.0637 44.8347 25.9743 44.8095 25.8885 44.7915C25.7132 44.7447 25.5201 44.7447 25.3591 44.6582C25.1732 44.5682 24.9693 44.5178 24.7833 44.4313C24.6009 44.3377 24.4185 44.2332 24.2791 44.0676C24.1646 43.9163 23.9965 43.765 23.7211 43.7974C23.596 43.8046 23.4922 43.6101 23.3671 43.5309C23.2598 43.4661 23.1167 43.4481 23.0273 43.3616C22.9522 43.2896 22.9271 43.1635 22.8807 43.0663C22.8663 43.0375 22.8413 43.0086 22.8091 42.9942C22.2548 42.6773 22.1224 42.0218 21.8077 41.5247C21.493 41.0025 21.2963 40.3866 21.2748 39.713C21.2462 39.3529 21.3857 38.8919 21.8006 38.7838C21.9794 38.737 22.1296 38.8198 22.194 38.9603C22.2476 39.0683 22.2727 39.1548 22.2906 39.2484L22.3227 39.4645C22.337 39.533 22.3692 39.6086 22.3835 39.677C22.4622 39.9688 22.7018 40.2029 22.7197 40.5234C22.7305 40.6243 22.8664 40.6927 22.7555 40.8332C22.7412 40.8512 22.7483 40.8944 22.7662 40.9088C23.1703 41.1826 23.2562 41.6328 23.5673 41.9605C23.8177 42.2451 24.2075 42.3423 24.4364 42.6305C24.7047 42.6052 24.8763 42.7349 25.0086 42.9006C25.1374 43.0194 25.2769 43.1347 25.4307 43.2211C25.588 43.2932 25.7525 43.3652 25.9206 43.412C26.0923 43.4445 26.264 43.4841 26.4357 43.5093C26.6109 43.5165 26.7826 43.5345 26.9542 43.5525C27.6624 43.6029 28.3634 43.3976 28.9964 43.0699C29.1037 43.005 29.1323 42.8574 29.3004 42.8574C29.4649 42.861 29.5651 42.6917 29.6867 42.598C29.8047 42.5152 29.8905 42.3783 30.0193 42.3171C30.5808 42.065 30.8669 41.4995 31.153 41.0025C31.4355 40.509 31.6537 39.9219 31.5858 39.4285C31.5715 39.3601 31.5607 39.2844 31.5393 39.2232C31.5071 39.1692 31.4785 39.1188 31.457 39.0683C31.3926 38.9855 31.3318 38.9099 31.2567 38.8018C31.1924 38.7046 31.035 38.7118 31.035 38.4885C31.0278 38.4272 30.8526 38.4704 30.7703 38.4344C30.57 38.3408 30.3626 38.2363 30.1337 38.1607C29.819 38.0526 29.49 37.9482 29.1466 37.9014C28.9356 37.8726 28.7174 37.9122 28.5064 37.905C28.2847 37.8942 28.0629 37.8762 27.8412 37.8401C27.5587 37.8005 27.2797 37.7249 26.9936 37.7069C26.6967 37.6889 26.3927 37.7861 26.103 37.7249C25.563 37.6096 25.0444 37.7681 24.5401 37.8762C24.0394 37.9806 23.5387 38.1463 23.1775 38.4272C22.9808 38.5785 22.7018 38.6073 22.5767 38.8018C22.5445 38.8414 22.43 38.8378 22.2834 38.827C22.1403 38.8162 21.983 38.7946 21.9257 38.737C21.9043 38.7154 21.8864 38.6793 21.89 38.6469C21.9043 38.2723 22.0009 37.8185 22.3549 37.5808C22.8664 37.235 23.3849 37.0189 23.9143 36.8569L23.8964 36.8533Z" fill="#DD4A4A"/>
<path d="M14.6547 40.0732C17.6017 40.0732 19.9908 37.6672 19.9908 34.6994C19.9908 31.7315 17.6017 29.3256 14.6547 29.3256C11.7076 29.3256 9.3186 31.7315 9.3186 34.6994C9.3186 37.6672 11.7076 40.0732 14.6547 40.0732Z" fill="#FFDF9E"/>
<path d="M18.8964 31.9549C18.6139 31.5227 18.2777 31.1229 17.8771 30.7951C17.7233 30.6835 17.591 30.525 17.38 30.4854C17.2727 30.471 17.1725 30.2837 17.0116 30.2044C16.5824 29.9883 16.1282 29.8191 15.6597 29.7218C15.1983 29.6534 14.7334 29.639 14.272 29.693C13.8214 29.7398 13.3386 29.7866 12.9452 29.9955C12.7699 30.0748 12.6054 30.1432 12.4409 30.2153C12.2692 30.2765 12.1154 30.3665 11.9652 30.4674C11.8007 30.5718 11.6612 30.7123 11.5003 30.8275C11.3572 30.9608 11.2034 31.0797 11.0604 31.2093C10.9602 31.303 10.8529 31.3966 10.7528 31.4939C10.6634 31.5983 10.5776 31.71 10.4989 31.8252C10.4095 31.9765 10.3737 32.1422 10.2736 32.3007C10.1949 32.4555 10.0697 32.6176 10.0983 32.7941C10.0983 32.8085 10.059 32.8769 10.0339 32.9094C9.97314 32.985 9.92307 33.0786 9.88731 33.1759C9.85512 33.2731 9.84795 33.3704 9.84795 33.4532C9.84795 33.6117 9.80863 33.7378 9.7979 33.8818C9.76929 34.0727 9.74424 34.2672 9.74066 34.4617C9.72278 34.6562 9.72993 34.8507 9.74066 35.0452C9.74066 35.1929 9.75139 35.3369 9.76212 35.481C9.76927 35.6287 9.78359 35.7727 9.81936 35.9168C9.87658 36.2194 10.0304 36.5111 10.1055 36.7848C10.1484 36.9217 10.1913 37.0586 10.2557 37.181C10.3272 37.2999 10.3952 37.4223 10.4667 37.5412C10.5597 37.6709 10.6384 37.8473 10.7921 37.8906C10.8064 37.8942 10.8458 37.941 10.8565 37.9662C11.0568 38.402 11.511 38.5785 11.8544 38.863C12.2299 39.1476 12.6734 39.3529 13.124 39.4933C13.242 39.533 13.3708 39.587 13.4995 39.551C13.546 39.5366 13.6712 39.5726 13.732 39.5942C14.0575 39.7491 14.4401 39.7275 14.7978 39.7311C15.0016 39.7311 15.2091 39.7166 15.4129 39.677C15.6168 39.6554 15.8171 39.6086 16.0281 39.5906C16.2105 39.587 16.4429 39.4969 16.6075 39.3493C16.679 39.27 16.8757 39.2196 17.008 39.144C17.1153 39.0791 17.1904 38.9747 17.2941 38.9135C17.3835 38.863 17.4873 38.8342 17.5802 38.7802C17.6089 38.7658 17.6411 38.7406 17.6625 38.719C18.0702 38.2796 18.5745 37.9338 18.8821 37.3971C19.1825 36.8677 19.4257 36.295 19.5616 35.6971C19.5902 35.5314 19.626 35.3621 19.6761 35.2073C19.7118 35.0524 19.7726 34.9083 19.8656 34.7895C19.9514 34.6814 20.0337 34.6778 20.0766 34.8363C20.1088 34.9515 20.1338 35.0884 20.1374 35.2217C20.1303 35.4342 20.1124 35.6503 20.0945 35.8592C20.023 36.2842 19.9765 36.738 19.7369 37.1342C19.6618 37.2531 19.6367 37.4331 19.5044 37.4908C19.4865 37.498 19.4507 37.5448 19.4436 37.5736C19.2433 38.1571 18.7712 38.6145 18.3099 39.0143C17.9164 39.3493 17.5445 39.7347 17.0331 39.9111C16.9222 40.0228 16.7791 40.0984 16.6289 40.1561C16.4787 40.2173 16.3214 40.2605 16.1711 40.2785C15.6526 40.3794 15.1304 40.4154 14.6082 40.4262C14.0861 40.4154 13.5603 40.3614 13.0596 40.2029C12.0511 39.8859 11.1105 39.306 10.4166 38.4993C10.2914 38.3696 10.1591 38.2723 10.0661 38.0779C9.97314 37.9014 9.82293 37.6889 9.70133 37.4908C9.60119 37.3035 9.48673 37.109 9.42593 36.9145C9.20419 36.1113 9.0075 35.2937 9.05399 34.4581C9.10048 33.6333 9.32938 32.8229 9.68703 32.081C9.91592 31.6379 10.1484 31.1769 10.5203 30.8239C10.6634 30.6619 10.81 30.4782 11.0246 30.4025C11.0818 30.3773 11.2034 30.208 11.3107 30.118C11.4431 30.0063 11.5897 29.9127 11.7399 29.8263C11.8865 29.7326 12.0403 29.6498 12.1977 29.5777C12.6269 29.358 13.0954 29.2248 13.5639 29.1131C13.8536 29.0591 14.1361 28.9762 14.433 28.9618C14.5868 28.9438 14.7441 28.9438 14.8979 28.9546C15.0517 28.9654 15.2091 28.9618 15.3629 28.9979C15.7527 29.0591 16.1282 29.1779 16.493 29.3148C16.679 29.3905 16.8793 29.4481 17.0617 29.5381C17.2477 29.621 17.43 29.711 17.5802 29.8371C18.1489 30.2765 18.7033 30.7267 19.1289 31.3066C19.5473 31.8793 19.862 32.5276 20.0659 33.2047C20.1195 33.3992 20.1589 33.5901 20.1625 33.781C20.1732 33.9719 20.1875 34.1592 20.1911 34.3537C20.2018 34.5409 19.9872 34.7787 19.9049 34.7066C19.8906 34.6922 19.8728 34.6634 19.8656 34.6382C19.7833 34.278 19.6439 33.9755 19.5652 33.5901C19.4508 33.0138 19.2111 32.4663 18.8928 31.9765L18.8964 31.9549Z" fill="#FFDF9E"/>
<path d="M40.5983 40.0732C43.5453 40.0732 45.9344 37.6672 45.9344 34.6994C45.9344 31.7315 43.5453 29.3256 40.5983 29.3256C37.6513 29.3256 35.2622 31.7315 35.2622 34.6994C35.2622 37.6672 37.6513 40.0732 40.5983 40.0732Z" fill="#FFDF9E"/>
<path d="M44.8436 31.9549C44.561 31.5227 44.2248 31.1229 43.8243 30.7951C43.6705 30.6835 43.5382 30.525 43.3272 30.4854C43.2199 30.471 43.1197 30.2837 42.9588 30.2044C42.5296 29.9883 42.0754 29.8191 41.6069 29.7218C41.1455 29.6534 40.6806 29.639 40.2192 29.693C39.7686 29.7398 39.2858 29.7866 38.8924 29.9955C38.7171 30.0748 38.5526 30.1432 38.3881 30.2153C38.2164 30.2765 38.0626 30.3665 37.9124 30.4674C37.7479 30.5718 37.6084 30.7123 37.4475 30.8275C37.3044 30.9608 37.1506 31.0797 37.0076 31.2093C36.9074 31.303 36.8001 31.3966 36.7 31.4939C36.6106 31.5983 36.5247 31.71 36.4461 31.8252C36.3566 31.9765 36.3209 32.1422 36.2208 32.3007C36.1421 32.4555 36.0169 32.6176 36.0455 32.7941C36.0455 32.8085 36.0062 32.8769 35.9811 32.9094C35.9203 32.985 35.8703 33.0786 35.8345 33.1759C35.8023 33.2731 35.7952 33.3704 35.7952 33.4532C35.7952 33.6117 35.7558 33.7378 35.7451 33.8818C35.7165 34.0727 35.6914 34.2672 35.6878 34.4617C35.67 34.6562 35.6771 34.8507 35.6878 35.0452C35.6878 35.1929 35.6986 35.3369 35.7093 35.481C35.7165 35.6287 35.7308 35.7727 35.7665 35.9168C35.8238 36.2194 35.9775 36.5111 36.0527 36.7848C36.0956 36.9217 36.1385 37.0586 36.2029 37.181C36.2744 37.2999 36.3423 37.4223 36.4139 37.5412C36.5069 37.6709 36.5855 37.8473 36.7393 37.8906C36.7536 37.8942 36.793 37.941 36.8037 37.9662C37.004 38.402 37.4582 38.5785 37.8015 38.863C38.1771 39.1476 38.6205 39.3529 39.0712 39.4933C39.1892 39.533 39.318 39.587 39.4467 39.551C39.4932 39.5366 39.6184 39.5726 39.6792 39.5942C40.0046 39.7491 40.3873 39.7275 40.745 39.7311C40.9488 39.7311 41.1563 39.7166 41.3565 39.677C41.5604 39.6554 41.7607 39.6086 41.9717 39.5906C42.1541 39.587 42.3865 39.4969 42.5511 39.3493C42.6226 39.27 42.8193 39.2196 42.9516 39.144C43.0589 39.0791 43.134 38.9747 43.2378 38.9135C43.3272 38.863 43.4309 38.8342 43.5239 38.7802C43.5525 38.7658 43.5847 38.7406 43.6061 38.719C44.0138 38.2796 44.5181 37.9338 44.8257 37.3971C45.1261 36.8677 45.3693 36.295 45.5052 35.6971C45.5338 35.5314 45.5696 35.3621 45.6197 35.2073C45.6554 35.0524 45.7162 34.9083 45.8092 34.7895C45.8951 34.6814 45.9773 34.6778 46.0202 34.8363C46.0524 34.9515 46.0774 35.0884 46.081 35.2217C46.0739 35.4342 46.056 35.6503 46.0381 35.8592C45.9666 36.2842 45.9201 36.738 45.6805 37.1342C45.6054 37.2531 45.5803 37.4331 45.448 37.4908C45.4301 37.498 45.3943 37.5448 45.3872 37.5736C45.1869 38.1571 44.7148 38.6145 44.2535 39.0143C43.8601 39.3493 43.4881 39.7347 42.9767 39.9111C42.8658 40.0228 42.7227 40.0984 42.5725 40.1561C42.4223 40.2173 42.265 40.2605 42.1147 40.2785C41.5962 40.3794 41.074 40.4154 40.5518 40.4262C40.0297 40.4154 39.5039 40.3614 39.0032 40.2029C37.9947 39.8859 37.0541 39.306 36.3602 38.4993C36.235 38.3696 36.1027 38.2723 36.0097 38.0779C35.9167 37.9014 35.7665 37.6889 35.6449 37.4908C35.5448 37.3035 35.4304 37.109 35.3696 36.9145C35.1478 36.1113 34.9511 35.2937 34.9976 34.4581C35.0441 33.6333 35.273 32.8229 35.6306 32.081C35.8595 31.6379 36.092 31.1769 36.464 30.8239C36.607 30.6619 36.7536 30.4782 36.9682 30.4025C37.0254 30.3773 37.147 30.208 37.2543 30.118C37.3867 30.0063 37.5333 29.9127 37.6835 29.8263C37.8301 29.7326 37.9839 29.6498 38.1413 29.5777C38.5705 29.358 39.039 29.2248 39.5075 29.1131C39.7972 29.0591 40.0797 28.9762 40.3766 28.9618C40.5304 28.9438 40.6877 28.9438 40.8415 28.9546C40.9953 28.9654 41.1527 28.9618 41.3065 28.9979C41.6963 29.0591 42.0718 29.1779 42.4366 29.3148C42.6226 29.3905 42.8229 29.4481 43.0053 29.5381C43.1913 29.621 43.3737 29.711 43.5239 29.8371C44.0925 30.2765 44.6469 30.7267 45.0725 31.3066C45.4909 31.8793 45.8057 32.5276 46.0095 33.2047C46.0632 33.3992 46.1025 33.5901 46.1061 33.781C46.1168 33.9719 46.1311 34.1592 46.1347 34.3537C46.1454 34.5409 45.9308 34.7787 45.8486 34.7066C45.8343 34.6922 45.8164 34.6634 45.8092 34.6382C45.727 34.278 45.5875 33.9755 45.5088 33.5901C45.3944 33.0138 45.1547 32.4663 44.8364 31.9765L44.8436 31.9549Z" fill="#FFDF9E"/>
<path d="M18.0059 31.8036C19.2779 31.8036 20.3091 30.154 20.3091 28.119C20.3091 26.0841 19.2779 24.4344 18.0059 24.4344C16.7338 24.4344 15.7026 26.0841 15.7026 28.119C15.7026 30.154 16.7338 31.8036 18.0059 31.8036Z" fill="#363232"/>
<path d="M20.4522 28.6052C20.4379 28.7493 20.4272 28.8682 20.4165 28.9834C20.4165 29.0014 20.4594 29.0302 20.4522 29.0518C20.4343 29.1419 20.4665 29.2463 20.3914 29.3256C20.3127 29.4084 20.2841 29.5021 20.2984 29.6029C20.3056 29.6966 20.2698 29.7794 20.2555 29.8658C20.2519 29.8947 20.252 29.9271 20.1912 29.9415C20.1447 29.9523 20.1268 29.9883 20.1804 30.0423C20.1911 30.0531 20.1733 30.0603 20.1625 30.0675C20.1518 30.0747 20.1196 30.0747 20.1268 30.0856C20.1947 30.2044 20.091 30.262 20.0731 30.3521C20.0695 30.3737 20.0302 30.3845 20.0874 30.4313C20.1017 30.4421 20.0946 30.4637 20.0767 30.4637C20.0302 30.4637 20.0159 30.4709 20.0087 30.4925C19.9766 30.579 19.9229 30.6546 19.88 30.7375C19.9372 30.8239 19.8764 30.8491 19.8478 30.8887C19.8263 30.9176 19.7799 30.932 19.7441 30.9536C19.7083 30.9752 19.7334 31.04 19.6475 31.022C19.6332 31.022 19.6475 31.0436 19.6404 31.0544C19.6225 31.0976 19.6118 31.1517 19.5617 31.1661C19.5367 31.1733 19.5116 31.1805 19.4973 31.1985C19.3149 31.4146 19.1003 31.6127 18.8428 31.7532C18.8214 31.7676 18.7963 31.7676 18.7963 31.8288C18.7963 31.8792 18.7498 31.8972 18.7141 31.8684C18.6568 31.8216 18.639 31.8576 18.6068 31.8684C18.5496 31.8864 18.4995 31.9152 18.4387 31.9188C18.4029 31.9224 18.3743 31.9765 18.3278 31.8936C18.3242 31.8864 18.3135 31.89 18.3099 31.8972C18.2885 31.9945 18.2384 31.9296 18.1991 31.9188C18.1705 31.9116 18.1454 31.9188 18.1168 31.9621C18.0918 32.0053 18.0381 32.0161 18.0095 31.9729C17.9737 31.9152 17.9416 31.9296 17.9058 31.926C17.8056 31.9188 17.7091 31.9044 17.6161 31.8756C17.5195 31.8576 17.4265 31.8216 17.3371 31.7856C17.2477 31.7568 17.1333 31.7748 17.0653 31.6991C17.051 31.6811 17.0081 31.6991 17.026 31.6343C17.0296 31.6199 17.0117 31.6163 16.9974 31.6235C16.9437 31.6559 16.9366 31.6235 16.9151 31.6019C16.8114 31.5154 16.7434 31.3966 16.6147 31.3462C16.511 31.3029 16.4681 31.2129 16.393 31.1445C16.3679 31.1229 16.3822 31.0688 16.3715 31.0364C16.3608 31.004 16.3393 30.9788 16.3178 30.9572C16.3035 30.9428 16.3107 30.9176 16.257 30.9284C16.2284 30.9356 16.207 30.9176 16.2177 30.8959C16.257 30.8239 16.2141 30.8059 16.1962 30.7699C16.1462 30.669 16.0782 30.579 16.0424 30.4745C16.0317 30.4493 15.9852 30.4385 16.0424 30.3809C16.0496 30.3737 16.021 30.3701 16.0103 30.3629C15.9995 30.3557 15.9709 30.3557 15.9781 30.3413C16.0389 30.2368 15.9602 30.19 15.9387 30.1216C15.8815 29.9559 15.8171 29.7938 15.7814 29.6209C15.7706 29.5741 15.6991 29.5489 15.692 29.4985C15.6848 29.4516 15.6669 29.4084 15.6633 29.3616C15.6633 29.3292 15.6169 29.3004 15.6884 29.2571C15.7063 29.2463 15.7027 29.2211 15.6812 29.2175C15.599 29.1959 15.6312 29.1491 15.6133 29.1131C15.5918 29.0699 15.6348 29.0158 15.5453 28.9798C15.5203 28.969 15.5596 28.9402 15.5632 28.9222C15.5632 28.8898 15.5632 28.8538 15.5561 28.8249C15.5561 28.8105 15.5203 28.7961 15.5167 28.7817C15.4881 28.6629 15.4452 28.5404 15.4344 28.4179C15.4237 28.2919 15.4202 28.1658 15.4273 28.0398C15.4345 27.9137 15.4273 27.7876 15.4488 27.6616C15.4559 27.6148 15.3987 27.5571 15.5131 27.5247C15.4523 27.4743 15.4952 27.4419 15.5704 27.4131C15.5811 27.4095 15.5525 27.3914 15.5453 27.3806C15.5203 27.3446 15.4166 27.3014 15.5418 27.2834C15.5453 27.2834 15.5418 27.2762 15.5418 27.2762C15.5632 27.251 15.4488 27.2114 15.5239 27.1861C15.5704 27.1717 15.5596 27.1321 15.5668 27.0997C15.5775 27.0673 15.5847 27.0385 15.5811 27.0061C15.5775 26.97 15.6383 26.9484 15.5596 26.898C15.5453 26.8908 15.6133 26.88 15.6133 26.8656C15.6097 26.79 15.7027 26.7359 15.6169 26.6387C15.5954 26.6171 15.6097 26.5919 15.6348 26.5811C15.7277 26.5414 15.7063 26.473 15.6955 26.401C15.6812 26.3073 15.7027 26.2101 15.8386 26.1705C15.8672 26.1633 15.8887 26.1633 15.8565 26.1308C15.835 26.1092 15.8493 26.0912 15.8565 26.0768C15.9244 25.9039 16.0031 25.7274 16.0997 25.5654C16.1247 25.5185 16.2213 25.5221 16.2213 25.4609C16.2213 25.4357 16.2713 25.4357 16.2213 25.3817C16.2141 25.3745 16.2141 25.3637 16.2213 25.3637C16.325 25.3565 16.2642 25.2376 16.3286 25.2052C16.3429 25.198 16.3643 25.198 16.3786 25.1908C16.3929 25.1836 16.418 25.1836 16.418 25.1692C16.4001 25.0287 16.5253 24.9999 16.5718 24.9098C16.5897 24.881 16.6505 24.8882 16.6111 24.8018C16.604 24.7874 16.6183 24.7802 16.629 24.7838C16.747 24.8198 16.7327 24.7118 16.8007 24.6973C16.8328 24.6901 16.8257 24.6217 16.9044 24.6721C16.9151 24.6793 16.9187 24.6649 16.9223 24.6541C16.9258 24.6361 16.9223 24.6073 16.933 24.6001C16.9652 24.5821 17.0224 24.5965 17.0367 24.5569C17.051 24.5064 17.0939 24.4992 17.1261 24.4776C17.144 24.4668 17.1833 24.4884 17.2048 24.4848C17.2263 24.4848 17.2406 24.4632 17.262 24.456C17.2906 24.4452 17.3121 24.4164 17.3479 24.4236C17.3836 24.4308 17.3729 24.3372 17.4265 24.3804C17.4659 24.4164 17.4659 24.3228 17.4909 24.3048C17.5052 24.2975 17.5231 24.3048 17.5374 24.3048C17.5517 24.3084 17.5696 24.3336 17.5768 24.33C17.5982 24.3192 17.6233 24.33 17.6376 24.2867C17.6483 24.2579 17.6876 24.2976 17.7127 24.2976C17.7377 24.2976 17.7627 24.2903 17.7878 24.2867C17.8128 24.2867 17.8414 24.3012 17.8629 24.2759C17.9559 24.1715 18.0667 24.2291 18.1669 24.2291C18.1919 24.2291 18.2277 24.2003 18.242 24.2795C18.242 24.2939 18.2599 24.2975 18.267 24.2867C18.3779 24.2003 18.4637 24.3084 18.5638 24.3084C18.6354 24.312 18.7177 24.3012 18.782 24.3408C18.8428 24.3768 18.8929 24.438 18.9716 24.438C19.0359 24.438 19.1039 24.4452 19.1325 24.4956C19.1611 24.5425 19.3006 24.4524 19.2613 24.5893C19.3042 24.6217 19.3507 24.6541 19.3829 24.6973C19.4115 24.7334 19.4687 24.7406 19.4472 24.8234C19.4401 24.8522 19.4615 24.8738 19.4937 24.8666C19.5903 24.8522 19.6082 24.9098 19.6118 24.9783C19.6118 24.9963 19.6547 24.9819 19.6654 24.9927C19.6976 25.0251 19.7369 25.0575 19.7512 25.1007C19.7977 25.234 19.9587 25.288 20.023 25.4105C20.0374 25.4321 20.1017 25.4249 20.1017 25.4537C20.0874 25.6194 20.2305 25.6986 20.2376 25.8427C20.2376 26.0552 20.3628 26.2101 20.3986 26.4046C20.4021 26.4298 20.3485 26.473 20.37 26.4802C20.4379 26.4982 20.4022 26.5522 20.4522 26.5702C20.5452 26.6027 20.5023 26.6711 20.5345 26.7179C20.5559 26.7539 20.5166 26.808 20.6096 26.8224C20.6239 26.8224 20.6239 26.8404 20.6167 26.8476C20.5488 26.9232 20.6811 26.9556 20.6525 27.0205C20.7705 27.1141 20.7205 27.2402 20.7562 27.3482C20.7598 27.3626 20.7848 27.377 20.7991 27.3914C20.8063 27.3986 20.8206 27.4059 20.8135 27.4167C20.7169 27.5319 20.8134 27.6256 20.7884 27.7336C20.7813 27.7696 20.7526 27.802 20.7419 27.8381C20.7312 27.8741 20.7598 27.9065 20.6954 27.9425C20.674 27.9533 20.6847 27.9713 20.6954 27.9857C20.7419 28.065 20.6024 28.1226 20.3736 28.1226C20.2913 28.1226 20.2841 28.1082 20.2555 28.0938C20.1947 28.065 20.1554 28.0362 20.1625 28.0001C20.1661 27.9713 20.1911 27.9389 20.1125 27.9173C20.0982 27.9137 20.1017 27.8993 20.1125 27.8921C20.1804 27.8417 20.1232 27.7912 20.1697 27.7408C20.2019 27.7048 20.1911 27.6724 20.2019 27.6364C20.2126 27.6076 20.1661 27.5823 20.2376 27.5463C20.2591 27.5355 20.1947 27.5139 20.1912 27.4923C20.1804 27.4455 20.1733 27.3986 20.1733 27.3518C20.1804 27.2078 20.0517 27.0889 20.0445 26.9484C19.9229 26.8764 19.9944 26.7503 19.9158 26.6711C19.8228 26.5775 19.8263 26.4514 19.7548 26.3541C19.7405 26.3325 19.7369 26.3145 19.7548 26.2857C19.7655 26.2677 19.7763 26.2461 19.7727 26.2317C19.7584 26.1777 19.7298 26.1272 19.7119 26.0768C19.7047 26.048 19.644 26.0408 19.7191 25.976C19.7298 25.9652 19.719 25.9544 19.7083 25.9544C19.601 25.9544 19.6332 25.8751 19.5974 25.8391C19.5831 25.8247 19.5796 25.8067 19.5974 25.7707C19.6189 25.731 19.5974 25.7022 19.5545 25.6986C19.5223 25.6986 19.5152 25.6842 19.5009 25.6734C19.4401 25.6266 19.4759 25.5149 19.3435 25.5257C19.4043 25.4357 19.3543 25.4177 19.3113 25.4033C19.1504 25.3529 19.1146 25.2052 19.0002 25.1259C18.9751 25.1079 18.9823 25.0503 18.9573 25.0215C18.9358 24.9927 18.9036 24.9747 18.875 24.9567C18.8607 24.9459 18.8607 24.9062 18.8071 24.9567C18.8035 24.9603 18.7999 24.9603 18.7963 24.9567C18.7892 24.9351 18.7856 24.899 18.7677 24.8954C18.7498 24.8918 18.7105 24.9243 18.689 24.9279C18.664 24.9315 18.6461 24.9207 18.6282 24.9134C18.6104 24.9062 18.5853 24.9098 18.5996 24.8414C18.5496 24.9062 18.546 24.863 18.5281 24.8594C18.5102 24.8594 18.4959 24.8486 18.478 24.8414L18.4208 24.8162C18.4029 24.809 18.385 24.7946 18.3636 24.7982C18.335 24.8018 18.2992 24.827 18.2742 24.827C18.2455 24.827 18.2205 24.8198 18.1955 24.809C18.1633 24.7982 18.1311 24.7694 18.0953 24.7514C18.081 24.7442 18.0667 24.7622 18.0524 24.791C18.031 24.827 18.0131 24.9098 17.988 24.8018C17.9845 24.7802 17.9666 24.7874 17.9594 24.8018C17.9273 24.863 17.8951 24.8702 17.8593 24.8666C17.8235 24.8666 17.7842 24.8666 17.7556 24.8882C17.6948 24.8126 17.6662 24.8738 17.6376 24.917C17.5946 24.9747 17.541 25.0035 17.4659 24.9963C17.3836 24.9855 17.3371 25.0395 17.2728 25.0719C17.2549 25.0791 17.2585 25.1187 17.1977 25.0683C17.1834 25.0575 17.1762 25.0683 17.1762 25.0827C17.1762 25.1764 17.1297 25.2016 17.051 25.2052C17.0081 25.2052 17.0045 25.2556 17.0009 25.3024C17.0009 25.3745 16.9401 25.3961 16.9008 25.4393C16.8114 25.3997 16.8722 25.4753 16.9008 25.5077C16.933 25.5546 16.933 25.5726 16.9223 25.587C16.908 25.6086 16.8829 25.6194 16.9187 25.6734C16.9366 25.7022 16.9187 25.7202 16.8793 25.713C16.8329 25.7022 16.8472 25.7202 16.8615 25.7491C16.8794 25.7851 16.7935 25.7491 16.7864 25.7779C16.7756 25.8031 16.8007 25.8535 16.7077 25.8247C16.7005 25.8247 16.697 25.8283 16.7005 25.8355C16.7613 25.9291 16.6111 25.9003 16.6254 25.9652C16.4609 26.0552 16.4752 26.2353 16.3894 26.3686C16.35 26.4226 16.2571 26.4622 16.2821 26.5378C16.3322 26.6963 16.2284 26.8044 16.2177 26.9448C16.2177 26.9736 16.2499 27.0133 16.1497 27.0205C16.1354 27.0205 16.1355 27.0349 16.1462 27.0421C16.2213 27.1033 16.1891 27.1357 16.1247 27.1717C16.1104 27.1789 16.1068 27.2006 16.1283 27.2114C16.1891 27.2402 16.1605 27.2582 16.1569 27.2762C16.1497 27.2978 16.089 27.3194 16.1211 27.341C16.1855 27.3806 16.1068 27.3842 16.0889 27.4059C16.0782 27.4203 16.0961 27.4383 16.1033 27.4527C16.1068 27.4599 16.1354 27.4707 16.1283 27.4743C16.0424 27.5103 16.1569 27.5679 16.1176 27.6112C16.1104 27.622 16.1104 27.6292 16.0997 27.64C15.9817 27.7372 15.9817 27.7408 16.0317 27.8813C15.9137 27.9137 16.0854 27.9641 15.9924 28.0037C15.9602 28.0181 15.9674 28.047 15.9888 28.065C16.0854 28.1478 16.0138 28.2307 16.046 28.3135C16.0532 28.3315 15.9745 28.3459 16.0389 28.3675C16.0639 28.3747 15.996 28.4071 15.9995 28.4251C16.0031 28.454 15.9638 28.4828 16.0424 28.5044C16.0746 28.5116 16.0532 28.5404 16.0603 28.5584C16.0711 28.5836 16.046 28.6088 16.1104 28.6304C16.1462 28.6413 16.1498 28.6701 16.1211 28.6917C16.0031 28.7673 16.1211 28.8177 16.1748 28.8682C16.1891 28.8826 16.2034 28.8934 16.1891 28.915C16.1676 28.9438 16.139 28.9834 16.1784 28.9978C16.2499 29.023 16.2284 29.0591 16.2356 29.0915C16.2499 29.1491 16.257 29.2103 16.2749 29.2644C16.3 29.3256 16.2821 29.4012 16.3608 29.4516C16.4037 29.4769 16.4466 29.5129 16.3608 29.5813C16.35 29.5885 16.4108 29.5885 16.4144 29.5957C16.4395 29.675 16.4681 29.7542 16.4931 29.8334C16.4967 29.8514 16.4108 29.9091 16.4931 29.8947C16.5789 29.8802 16.4287 29.9631 16.5324 29.9379C16.5467 29.9343 16.5503 29.9523 16.5467 29.9631C16.4824 30.0964 16.6075 30.1504 16.6218 30.2512C16.6218 30.2764 16.6755 30.2764 16.6075 30.3377C16.722 30.3377 16.5825 30.4998 16.7434 30.4709C16.7434 30.525 16.8364 30.5106 16.7721 30.6042C16.7613 30.6186 16.7899 30.6186 16.7828 30.633C16.7542 30.6834 16.8936 30.6042 16.8436 30.6798C16.815 30.7231 16.8543 30.7339 16.8722 30.7555C16.8865 30.7771 16.9044 30.7915 16.9187 30.8131L16.9688 30.8743C16.9866 30.8959 16.9974 30.9212 17.0224 30.9356C17.0725 30.9608 17.1512 30.95 17.1726 31.0076C17.1726 31.0148 17.1905 31.0112 17.2012 31.0004C17.3014 30.9104 17.2692 30.986 17.2585 31.0256C17.2477 31.058 17.2477 31.0796 17.2585 31.0868C17.2942 31.112 17.33 31.1337 17.3586 31.1661C17.3765 31.1841 17.423 31.1589 17.3979 31.2453C17.3908 31.2705 17.4122 31.2777 17.4301 31.2669C17.5195 31.2165 17.5374 31.2885 17.5911 31.2921C17.6161 31.2921 17.634 31.3065 17.6554 31.3173C17.6697 31.3246 17.7055 31.2777 17.7055 31.3354C17.8164 31.2453 17.87 31.3426 17.9523 31.3282C18.031 31.3282 18.1061 31.3209 18.1847 31.3245C18.2062 31.3245 18.2169 31.2741 18.2527 31.357C18.2598 31.3714 18.2742 31.3678 18.2742 31.3498C18.2742 31.2993 18.2742 31.2741 18.3064 31.3318C18.3135 31.3426 18.3206 31.3282 18.3206 31.3137C18.3278 31.2741 18.3421 31.2777 18.3671 31.3029C18.3886 31.3209 18.4101 31.3282 18.4172 31.3029C18.4351 31.2417 18.4423 31.1913 18.5174 31.2633C18.5281 31.2741 18.5102 31.2129 18.5174 31.2093C18.5496 31.2021 18.5531 31.1445 18.6175 31.1913C18.6461 31.2093 18.6497 31.1805 18.6676 31.1805C18.7033 31.1805 18.6926 31.1193 18.7355 31.1229C18.7784 31.1229 18.7927 31.0868 18.8178 31.0652C18.8464 31.0472 18.8714 31.022 18.8929 30.9968L18.968 30.9248C18.993 30.9031 19.0181 30.8743 19.0395 30.8491L19.1075 30.7663C19.1289 30.7375 19.154 30.7123 19.1754 30.6834C19.1897 30.6618 19.2112 30.651 19.2541 30.6474C19.365 30.6474 19.4079 30.5682 19.3936 30.4421C19.3936 30.4349 19.4007 30.4277 19.4043 30.4205C19.4544 30.3377 19.4866 30.2404 19.5474 30.1612C19.576 30.1252 19.6332 30.1036 19.6439 30.0603C19.6511 30.0315 19.6726 30.0099 19.6332 29.9595C19.5975 29.9199 19.6869 29.9163 19.6189 29.8586C19.5939 29.837 19.6046 29.8118 19.6332 29.8082C19.7298 29.7938 19.7048 29.7326 19.7226 29.6894C19.7441 29.6389 19.7584 29.5885 19.7691 29.5345C19.7727 29.5093 19.8085 29.4913 19.7512 29.4444C19.7226 29.4228 19.7512 29.3976 19.7834 29.3868C19.8335 29.3688 19.8335 29.3364 19.8192 29.304C19.7942 29.2355 19.7834 29.2355 19.8478 29.1851C19.855 29.1779 19.8585 29.1707 19.8585 29.1635C19.8728 29.0915 19.9158 29.0158 19.8871 28.9366C19.8585 28.8718 19.8693 28.8141 19.8728 28.7529C19.8728 28.7277 19.8371 28.6953 19.9265 28.6845C19.9408 28.6845 19.9408 28.6701 19.9265 28.6629C19.8335 28.6016 19.8907 28.5548 19.8943 28.5008C19.8979 28.4504 19.8192 28.3999 19.8406 28.3495C19.8621 28.3027 19.8478 28.2523 19.8478 28.2018C19.8478 28.1262 19.905 28.1118 20.1482 28.1118C20.3485 28.1118 20.3914 28.1334 20.4343 28.1982C20.5166 28.3423 20.4522 28.4828 20.463 28.598L20.4522 28.6052Z" fill="#363232"/>
<path d="M18.006 26.9701C18.4425 26.9701 18.7964 26.6959 18.7964 26.3578C18.7964 26.0196 18.4425 25.7455 18.006 25.7455C17.5694 25.7455 17.2156 26.0196 17.2156 26.3578C17.2156 26.6959 17.5694 26.9701 18.006 26.9701Z" fill="white"/>
<path d="M18.4351 26.1993C18.41 26.1705 18.3743 26.138 18.3314 26.1236C18.3171 26.1164 18.3135 26.0732 18.267 26.1416C18.2455 26.1741 18.267 26.0804 18.2491 26.0768C18.2026 26.0696 18.1597 26.048 18.1132 26.048C18.0667 26.048 18.0202 26.084 17.9773 26.0948C17.938 26.1056 17.8843 26.0696 17.8557 26.1272C17.8342 26.1777 17.7842 26.1128 17.7591 26.1416C17.7377 26.1741 17.7162 26.1957 17.6733 26.1849C17.6411 26.1741 17.6018 26.1669 17.5946 26.1921C17.5946 26.2101 17.6197 26.2497 17.6125 26.2569C17.6053 26.2605 17.5589 26.2497 17.6375 26.3073C17.6447 26.3109 17.6268 26.3073 17.6161 26.3001C17.5589 26.2749 17.5553 26.2929 17.591 26.3145C17.6304 26.3361 17.6232 26.3361 17.6232 26.3397C17.6268 26.3505 17.6304 26.3577 17.6232 26.3649C17.6161 26.3722 17.5839 26.3866 17.5803 26.4046C17.5803 26.4226 17.6197 26.4118 17.591 26.4514C17.5624 26.491 17.5767 26.509 17.591 26.5234C17.5982 26.5306 17.5839 26.5775 17.6518 26.509C17.659 26.5018 17.659 26.509 17.659 26.5126C17.6125 26.6387 17.7377 26.5198 17.7556 26.5594C17.777 26.6063 17.8307 26.5991 17.87 26.6063C17.8807 26.6063 17.8879 26.6387 17.9094 26.5702C17.9165 26.5486 17.9272 26.545 17.9308 26.563C17.9487 26.6639 17.9916 26.6063 18.0238 26.6207C18.0667 26.6387 18.0953 26.5919 18.1454 26.6567C18.1668 26.6855 18.199 26.6963 18.1919 26.6027C18.1919 26.5594 18.2169 26.5955 18.2277 26.5811C18.2348 26.5702 18.2276 26.527 18.2384 26.5234C18.2455 26.5198 18.267 26.5486 18.2813 26.5594C18.2849 26.5594 18.2885 26.5594 18.2885 26.5594C18.2777 26.4514 18.385 26.5378 18.4029 26.4838C18.4101 26.437 18.4315 26.419 18.453 26.3974C18.4637 26.383 18.4923 26.3866 18.6711 26.3649C18.7498 26.3577 18.8356 26.3505 18.8857 26.3758C18.9215 26.3938 18.9537 26.419 18.9608 26.4442C18.968 26.4802 18.9859 26.5234 18.9859 26.563C18.993 26.6459 19.0216 26.7611 18.9394 26.8116C18.9143 26.8224 18.9286 26.8764 18.8571 26.844C18.8464 26.8404 18.8356 26.844 18.8392 26.8512C18.8571 27.0169 18.7105 27.0313 18.6282 27.0853C18.5603 27.1357 18.5138 27.2582 18.4136 27.2474C18.3957 27.3554 18.3242 27.3554 18.2706 27.3338C18.081 27.2654 17.9236 27.3338 17.7448 27.2834C17.5767 27.2366 17.4015 27.1789 17.2513 27.0565C17.2262 27.0349 17.169 27.0565 17.1654 26.9989C17.1654 26.9412 17.1118 26.934 17.0832 26.898C17.0582 26.8656 17.0152 26.844 17.0152 26.7936C17.0152 26.6099 16.9187 26.473 16.9401 26.3001C16.9616 26.1344 17.0367 25.9904 17.1082 25.8571C17.1511 25.7743 17.1869 25.6698 17.2727 25.6338C17.3085 25.6194 17.3157 25.551 17.3943 25.6122C17.4158 25.6302 17.4122 25.551 17.4337 25.5365C17.4837 25.5005 17.541 25.4861 17.5982 25.4645C17.6769 25.4393 17.7556 25.4285 17.8342 25.4069C17.8807 25.3961 17.9272 25.3529 17.9773 25.3421C18.031 25.3276 18.0846 25.3348 18.1347 25.3457C18.2026 25.3637 18.2598 25.4069 18.3206 25.4285C18.3814 25.4537 18.4673 25.4357 18.5138 25.5005C18.5925 25.6194 18.7105 25.6446 18.8035 25.7346C18.8893 25.8247 18.9644 25.9291 19.0359 26.0516C19.0753 26.1236 19.0181 26.2137 19.0252 26.2821C19.0252 26.3217 18.8035 26.3613 18.7284 26.3469C18.714 26.3469 18.6962 26.3433 18.6926 26.3397C18.6175 26.3001 18.5066 26.3073 18.5066 26.2857C18.5066 26.2497 18.478 26.2173 18.4458 26.1849L18.4351 26.1993Z" fill="white"/>
<path d="M18.006 30.5502C18.4425 30.5502 18.7964 30.276 18.7964 29.9379C18.7964 29.5997 18.4425 29.3256 18.006 29.3256C17.5694 29.3256 17.2156 29.5997 17.2156 29.9379C17.2156 30.276 17.5694 30.5502 18.006 30.5502Z" fill="white"/>
<path d="M18.4351 29.7758C18.41 29.747 18.3743 29.7146 18.3314 29.7002C18.3171 29.693 18.3135 29.6497 18.267 29.7182C18.2455 29.7506 18.267 29.6569 18.2491 29.6533C18.2026 29.6461 18.1597 29.6245 18.1132 29.6245C18.0667 29.6245 18.0202 29.6606 17.9773 29.6714C17.938 29.6822 17.8843 29.6461 17.8557 29.7038C17.8342 29.7542 17.7842 29.6894 17.7591 29.7182C17.7377 29.7506 17.7162 29.7722 17.6733 29.7614C17.6411 29.7506 17.6018 29.7434 17.5946 29.7686C17.5946 29.7866 17.6197 29.8262 17.6125 29.8334C17.6053 29.837 17.5589 29.8262 17.6375 29.8839C17.6447 29.8875 17.6268 29.8839 17.6161 29.8767C17.5589 29.8514 17.5553 29.8695 17.591 29.8911C17.6304 29.9127 17.6232 29.9127 17.6232 29.9163C17.6268 29.9271 17.6304 29.9343 17.6232 29.9415C17.6161 29.9487 17.5839 29.9631 17.5803 29.9811C17.5803 29.9991 17.6197 29.9883 17.591 30.0279C17.5624 30.0675 17.5767 30.0856 17.591 30.1C17.5982 30.1072 17.5839 30.154 17.6518 30.0856C17.659 30.0784 17.659 30.0856 17.659 30.0892C17.6125 30.2152 17.7377 30.0964 17.7556 30.136C17.777 30.1828 17.8307 30.1756 17.87 30.1828C17.8807 30.1828 17.8879 30.2152 17.9094 30.1468C17.9165 30.1252 17.9272 30.1216 17.9308 30.1396C17.9487 30.2404 17.9916 30.1828 18.0238 30.1972C18.0667 30.2152 18.0953 30.1684 18.1454 30.2332C18.1668 30.262 18.199 30.2728 18.1919 30.1792C18.1919 30.136 18.2169 30.172 18.2277 30.1576C18.2348 30.1468 18.2276 30.1036 18.2384 30.1C18.2455 30.0964 18.267 30.1252 18.2813 30.136C18.2849 30.136 18.2885 30.136 18.2885 30.136C18.2777 30.0279 18.385 30.1144 18.4029 30.0603C18.4101 30.0135 18.4315 29.9955 18.453 29.9739C18.4637 29.9595 18.4923 29.9631 18.6711 29.9415C18.7498 29.9343 18.8356 29.9271 18.8857 29.9523C18.9215 29.9703 18.9537 29.9955 18.9608 30.0207C18.968 30.0567 18.9859 30.1 18.9859 30.1396C18.993 30.2224 19.0216 30.3377 18.9394 30.3881C18.9143 30.3989 18.9286 30.4529 18.8571 30.4205C18.8464 30.4169 18.8356 30.4205 18.8392 30.4277C18.8571 30.5934 18.7105 30.6078 18.6282 30.6618C18.5603 30.7123 18.5138 30.8347 18.4136 30.8239C18.3957 30.932 18.3242 30.932 18.2706 30.9104C18.081 30.8419 17.9236 30.9104 17.7448 30.8599C17.5767 30.8131 17.4015 30.7555 17.2513 30.633C17.2262 30.6114 17.169 30.633 17.1654 30.5754C17.1654 30.5178 17.1118 30.5106 17.0832 30.4745C17.0582 30.4421 17.0152 30.4205 17.0152 30.3701C17.0152 30.1864 16.9187 30.0495 16.9401 29.8767C16.9616 29.711 17.0367 29.5669 17.1082 29.4336C17.1511 29.3508 17.1869 29.2464 17.2727 29.2103C17.3085 29.1959 17.3157 29.1275 17.3943 29.1887C17.4158 29.2067 17.4122 29.1275 17.4337 29.1131C17.4837 29.0771 17.541 29.0627 17.5982 29.0411C17.6769 29.0158 17.7556 29.005 17.8342 28.9834C17.8807 28.9726 17.9272 28.9294 17.9773 28.9186C18.031 28.9042 18.0846 28.9114 18.1347 28.9222C18.2026 28.9402 18.2598 28.9834 18.3206 29.005C18.3814 29.0302 18.4673 29.0122 18.5138 29.0771C18.5925 29.1959 18.7105 29.2211 18.8035 29.3112C18.8893 29.4012 18.9644 29.5057 19.0359 29.6281C19.0753 29.7002 19.0181 29.7902 19.0252 29.8586C19.0252 29.8983 18.8035 29.9379 18.7284 29.9235C18.714 29.9235 18.6962 29.9199 18.6926 29.9163C18.6175 29.8767 18.5066 29.8839 18.5066 29.8622C18.5066 29.8262 18.478 29.7938 18.4458 29.7614L18.4351 29.7758Z" fill="white"/>
<path d="M36.0564 31.8036C37.3285 31.8036 38.3597 30.154 38.3597 28.119C38.3597 26.0841 37.3285 24.4344 36.0564 24.4344C34.7844 24.4344 33.7532 26.0841 33.7532 28.119C33.7532 30.154 34.7844 31.8036 36.0564 31.8036Z" fill="#363232"/>
<path d="M38.4991 28.6052C38.4848 28.7493 38.4741 28.8682 38.4633 28.9834C38.4633 29.0014 38.5063 29.0302 38.4991 29.0518C38.4812 29.1419 38.5134 29.2463 38.4383 29.3256C38.3596 29.4084 38.331 29.5021 38.3453 29.6029C38.3525 29.6966 38.3167 29.7794 38.3024 29.8658C38.2988 29.8947 38.2988 29.9271 38.238 29.9415C38.1915 29.9523 38.1737 29.9883 38.2273 30.0423C38.238 30.0531 38.2202 30.0603 38.2094 30.0675C38.1987 30.0747 38.1665 30.0747 38.1736 30.0856C38.2416 30.2044 38.1379 30.262 38.12 30.3521C38.1164 30.3737 38.0771 30.3845 38.1343 30.4313C38.1486 30.4421 38.1415 30.4637 38.1236 30.4637C38.0771 30.4637 38.0628 30.4709 38.0556 30.4925C38.0234 30.579 37.9698 30.6546 37.9269 30.7375C37.9805 30.8239 37.9233 30.8491 37.8947 30.8887C37.8732 30.9176 37.8267 30.932 37.791 30.9536C37.7552 30.9752 37.7802 31.04 37.6944 31.022C37.6801 31.022 37.6944 31.0436 37.6873 31.0544C37.6694 31.0976 37.6586 31.1517 37.6086 31.1661C37.5835 31.1733 37.5585 31.1805 37.5442 31.1985C37.3618 31.4146 37.1472 31.6127 36.8897 31.7532C36.8683 31.7676 36.8432 31.7676 36.8432 31.8288C36.8432 31.8792 36.7967 31.8972 36.7609 31.8684C36.7037 31.8216 36.6858 31.8576 36.6537 31.8684C36.5964 31.8864 36.5464 31.9152 36.4856 31.9188C36.4498 31.9224 36.4212 31.9765 36.3747 31.8936C36.3711 31.8864 36.3604 31.89 36.3568 31.8972C36.3353 31.9945 36.2853 31.9296 36.2459 31.9188C36.2173 31.9116 36.1923 31.9188 36.1637 31.9621C36.1386 32.0053 36.085 32.0161 36.0564 31.9729C36.0206 31.9152 35.9884 31.9296 35.9527 31.926C35.8525 31.9188 35.756 31.9044 35.663 31.8756C35.5664 31.8576 35.4734 31.8216 35.384 31.7856C35.2946 31.7568 35.1802 31.7748 35.1122 31.6991C35.0979 31.6811 35.055 31.6991 35.0729 31.6343C35.0764 31.6199 35.0586 31.6163 35.0442 31.6235C34.9906 31.6559 34.9835 31.6235 34.962 31.6019C34.8583 31.5154 34.7903 31.3966 34.6616 31.3462C34.5578 31.3029 34.5149 31.2129 34.4398 31.1445C34.4148 31.1229 34.4291 31.0688 34.4184 31.0364C34.4076 31.004 34.3862 30.9788 34.3647 30.9572C34.3504 30.9428 34.3576 30.9176 34.3039 30.9284C34.2753 30.9356 34.2539 30.9176 34.2646 30.8959C34.3039 30.8239 34.261 30.8059 34.2431 30.7699C34.1931 30.669 34.1251 30.579 34.0893 30.4745C34.0786 30.4493 34.0321 30.4385 34.0893 30.3809C34.0965 30.3737 34.0679 30.3701 34.0571 30.3629C34.0464 30.3557 34.0178 30.3557 34.025 30.3413C34.0858 30.2368 34.0071 30.19 33.9856 30.1216C33.9284 29.9559 33.864 29.7938 33.8283 29.6209C33.8175 29.5741 33.746 29.5489 33.7389 29.4985C33.7317 29.4516 33.7138 29.4084 33.7102 29.3616C33.7102 29.3292 33.6637 29.3004 33.7353 29.2571C33.7532 29.2463 33.7496 29.2211 33.7281 29.2175C33.6459 29.1959 33.678 29.1491 33.6602 29.1131C33.6387 29.0699 33.6816 29.0158 33.5922 28.9798C33.5672 28.969 33.6065 28.9402 33.6101 28.9222C33.6101 28.8898 33.6101 28.8538 33.6029 28.8249C33.6029 28.8105 33.5672 28.7961 33.5636 28.7817C33.535 28.6629 33.4921 28.5404 33.4813 28.4179C33.4706 28.2919 33.467 28.1658 33.4742 28.0398C33.4813 27.9137 33.4742 27.7876 33.4956 27.6616C33.5028 27.6148 33.4456 27.5571 33.56 27.5247C33.4992 27.4743 33.5421 27.4419 33.6172 27.4131C33.628 27.4095 33.5994 27.3914 33.5922 27.3806C33.5672 27.3446 33.4635 27.3014 33.5886 27.2834C33.5922 27.2834 33.5886 27.2762 33.5886 27.2762C33.6101 27.251 33.4956 27.2114 33.5707 27.1861C33.6172 27.1717 33.6065 27.1321 33.6137 27.0997C33.6244 27.0673 33.6316 27.0385 33.628 27.0061C33.6244 26.97 33.6852 26.9484 33.6065 26.898C33.5922 26.8908 33.6602 26.88 33.6602 26.8656C33.6566 26.79 33.7496 26.7359 33.6637 26.6387C33.6423 26.6171 33.6566 26.5919 33.6816 26.5811C33.7746 26.5414 33.7531 26.473 33.7424 26.401C33.7281 26.3073 33.7496 26.2101 33.8855 26.1705C33.9141 26.1633 33.9355 26.1633 33.9034 26.1308C33.8819 26.1092 33.8962 26.0912 33.9034 26.0768C33.9713 25.9039 34.05 25.7274 34.1466 25.5654C34.1716 25.5185 34.2682 25.5221 34.2682 25.4609C34.2682 25.4357 34.3182 25.4357 34.2682 25.3817C34.261 25.3745 34.261 25.3637 34.2682 25.3637C34.3719 25.3565 34.3111 25.2376 34.3755 25.2052C34.3898 25.198 34.4112 25.198 34.4255 25.1908C34.4398 25.1836 34.4649 25.1836 34.4649 25.1692C34.447 25.0287 34.5722 24.9999 34.6186 24.9098C34.6365 24.881 34.6973 24.8882 34.658 24.8018C34.6508 24.7874 34.6652 24.7802 34.6759 24.7838C34.7939 24.8198 34.7796 24.7118 34.8475 24.6973C34.8797 24.6901 34.8726 24.6217 34.9513 24.6721C34.962 24.6793 34.9656 24.6649 34.9692 24.6541C34.9727 24.6361 34.9691 24.6073 34.9799 24.6001C35.0121 24.5821 35.0693 24.5965 35.0836 24.5569C35.0979 24.5064 35.1408 24.4992 35.173 24.4776C35.1909 24.4668 35.2302 24.4884 35.2517 24.4848C35.2731 24.4848 35.2874 24.4632 35.3089 24.456C35.3375 24.4452 35.359 24.4164 35.3948 24.4236C35.4305 24.4308 35.4198 24.3372 35.4734 24.3804C35.5128 24.4164 35.5128 24.3228 35.5378 24.3048C35.5521 24.2975 35.57 24.3048 35.5843 24.3048C35.5986 24.3084 35.6165 24.3336 35.6236 24.33C35.6451 24.3192 35.6701 24.33 35.6844 24.2867C35.6952 24.2579 35.7345 24.2976 35.7595 24.2976C35.7846 24.2976 35.8096 24.2903 35.8347 24.2867C35.8597 24.2867 35.8883 24.3012 35.9097 24.2759C36.0027 24.1715 36.1136 24.2291 36.2138 24.2291C36.2388 24.2291 36.2746 24.2003 36.2889 24.2795C36.2889 24.2939 36.3067 24.2975 36.3139 24.2867C36.4248 24.2003 36.5106 24.3084 36.6107 24.3084C36.6823 24.312 36.7645 24.3012 36.8289 24.3408C36.8897 24.3768 36.9398 24.438 37.0185 24.438C37.0828 24.438 37.1508 24.4452 37.1794 24.4956C37.208 24.5425 37.3475 24.4524 37.3081 24.5893C37.3511 24.6217 37.3975 24.6541 37.4297 24.6973C37.4583 24.7334 37.5156 24.7406 37.4941 24.8234C37.487 24.8522 37.5084 24.8738 37.5406 24.8666C37.6372 24.8522 37.6551 24.9098 37.6586 24.9783C37.6586 24.9963 37.7016 24.9819 37.7123 24.9927C37.7445 25.0251 37.7838 25.0575 37.7981 25.1007C37.8446 25.234 38.0056 25.288 38.0699 25.4105C38.0842 25.4321 38.1486 25.4249 38.1486 25.4537C38.1343 25.6194 38.2774 25.6986 38.2845 25.8427C38.2845 26.0552 38.4097 26.2101 38.4455 26.4046C38.449 26.4298 38.3954 26.473 38.4168 26.4802C38.4848 26.4982 38.449 26.5522 38.4991 26.5702C38.5921 26.6027 38.5492 26.6711 38.5814 26.7179C38.6028 26.7539 38.5635 26.808 38.6565 26.8224C38.6708 26.8224 38.6708 26.8404 38.6636 26.8476C38.5957 26.9232 38.728 26.9556 38.6994 27.0205C38.8174 27.1141 38.7673 27.2402 38.8031 27.3482C38.8067 27.3626 38.8317 27.377 38.846 27.3914C38.8532 27.3986 38.8675 27.4059 38.8603 27.4167C38.7638 27.5319 38.8603 27.6256 38.8353 27.7336C38.8282 27.7696 38.7995 27.802 38.7888 27.8381C38.7781 27.8741 38.8067 27.9065 38.7423 27.9425C38.7209 27.9533 38.7316 27.9713 38.7423 27.9857C38.7888 28.065 38.6493 28.1226 38.4204 28.1226C38.3382 28.1226 38.331 28.1082 38.3024 28.0938C38.2416 28.065 38.2023 28.0362 38.2094 28.0001C38.213 27.9713 38.238 27.9389 38.1593 27.9173C38.145 27.9137 38.1486 27.8993 38.1593 27.8921C38.2273 27.8417 38.1701 27.7912 38.2166 27.7408C38.2487 27.7048 38.238 27.6724 38.2488 27.6364C38.2595 27.6076 38.213 27.5823 38.2845 27.5463C38.306 27.5355 38.2416 27.5139 38.238 27.4923C38.2273 27.4455 38.2201 27.3986 38.2201 27.3518C38.2273 27.2078 38.0985 27.0889 38.0914 26.9484C37.9698 26.8764 38.0413 26.7503 37.9626 26.6711C37.8697 26.5775 37.8732 26.4514 37.8017 26.3541C37.7874 26.3325 37.7838 26.3145 37.8017 26.2857C37.8124 26.2677 37.8232 26.2461 37.8196 26.2317C37.8053 26.1777 37.7767 26.1272 37.7588 26.0768C37.7516 26.048 37.6908 26.0408 37.7659 25.976C37.7767 25.9652 37.7659 25.9544 37.7552 25.9544C37.6479 25.9544 37.6801 25.8751 37.6443 25.8391C37.63 25.8247 37.6265 25.8067 37.6443 25.7707C37.6658 25.731 37.6443 25.7022 37.6014 25.6986C37.5692 25.6986 37.5621 25.6842 37.5478 25.6734C37.487 25.6266 37.5227 25.5149 37.3904 25.5257C37.4512 25.4357 37.4011 25.4177 37.3582 25.4033C37.1973 25.3529 37.1615 25.2052 37.0471 25.1259C37.022 25.1079 37.0292 25.0503 37.0042 25.0215C36.9827 24.9927 36.9505 24.9747 36.9219 24.9567C36.9076 24.9459 36.9076 24.9062 36.8539 24.9567C36.8504 24.9603 36.8468 24.9603 36.8432 24.9567C36.8361 24.9351 36.8325 24.899 36.8146 24.8954C36.7967 24.8918 36.7574 24.9243 36.7359 24.9279C36.7109 24.9315 36.693 24.9207 36.6751 24.9134C36.6572 24.9062 36.6322 24.9098 36.6465 24.8414C36.5964 24.9062 36.5929 24.863 36.575 24.8594C36.5571 24.8594 36.5428 24.8486 36.5249 24.8414L36.4677 24.8162C36.4498 24.809 36.4319 24.7946 36.4105 24.7982C36.3818 24.8018 36.3461 24.827 36.321 24.827C36.2924 24.827 36.2674 24.8198 36.2424 24.809C36.2102 24.7982 36.178 24.7694 36.1422 24.7514C36.1279 24.7442 36.1136 24.7622 36.0993 24.791C36.0778 24.827 36.06 24.9098 36.0349 24.8018C36.0314 24.7802 36.0135 24.7874 36.0063 24.8018C35.9741 24.863 35.9419 24.8702 35.9062 24.8666C35.8704 24.8666 35.8311 24.8666 35.8025 24.8882C35.7417 24.8126 35.7131 24.8738 35.6844 24.917C35.6415 24.9747 35.5879 25.0035 35.5128 24.9963C35.4305 24.9855 35.384 25.0395 35.3196 25.0719C35.3018 25.0791 35.3053 25.1187 35.2445 25.0683C35.2302 25.0575 35.2231 25.0683 35.2231 25.0827C35.2231 25.1764 35.1766 25.2016 35.0979 25.2052C35.055 25.2052 35.0514 25.2556 35.0478 25.3024C35.0478 25.3745 34.987 25.3961 34.9477 25.4393C34.8583 25.3997 34.9191 25.4753 34.9477 25.5077C34.9799 25.5546 34.9799 25.5726 34.9692 25.587C34.9548 25.6086 34.9298 25.6194 34.9656 25.6734C34.9835 25.7022 34.9656 25.7202 34.9262 25.713C34.8797 25.7022 34.894 25.7202 34.9083 25.7491C34.9262 25.7851 34.8404 25.7491 34.8332 25.7779C34.8225 25.8031 34.8475 25.8535 34.7546 25.8247C34.7474 25.8247 34.7438 25.8283 34.7474 25.8355C34.8082 25.9291 34.658 25.9003 34.6723 25.9652C34.5078 26.0552 34.5221 26.2353 34.4362 26.3686C34.3969 26.4226 34.3039 26.4622 34.329 26.5378C34.379 26.6963 34.2753 26.8044 34.2646 26.9448C34.2646 26.9736 34.2968 27.0133 34.1966 27.0205C34.1823 27.0205 34.1823 27.0349 34.193 27.0421C34.2682 27.1033 34.236 27.1357 34.1716 27.1717C34.1573 27.1789 34.1537 27.2006 34.1752 27.2114C34.236 27.2402 34.2074 27.2582 34.2038 27.2762C34.1966 27.2978 34.1358 27.3194 34.168 27.341C34.2324 27.3806 34.1537 27.3842 34.1358 27.4059C34.1251 27.4203 34.143 27.4383 34.1501 27.4527C34.1537 27.4599 34.1823 27.4707 34.1752 27.4743C34.0893 27.5103 34.2038 27.5679 34.1645 27.6112C34.1573 27.622 34.1573 27.6292 34.1466 27.64C34.0285 27.7372 34.0285 27.7408 34.0786 27.8813C33.9606 27.9137 34.1323 27.9641 34.0393 28.0037C34.0071 28.0181 34.0142 28.047 34.0357 28.065C34.1322 28.1478 34.0607 28.2307 34.0929 28.3135C34.1001 28.3315 34.0214 28.3459 34.0858 28.3675C34.1108 28.3747 34.0428 28.4071 34.0464 28.4251C34.05 28.454 34.0107 28.4828 34.0893 28.5044C34.1215 28.5116 34.1001 28.5404 34.1072 28.5584C34.1179 28.5836 34.0929 28.6088 34.1573 28.6304C34.1931 28.6413 34.1966 28.6701 34.168 28.6917C34.05 28.7673 34.168 28.8177 34.2217 28.8682C34.236 28.8826 34.2503 28.8934 34.236 28.915C34.2145 28.9438 34.1859 28.9834 34.2252 28.9978C34.2968 29.023 34.2753 29.0591 34.2825 29.0915C34.2968 29.1491 34.3039 29.2103 34.3218 29.2644C34.3469 29.3256 34.329 29.4012 34.4076 29.4516C34.4506 29.4769 34.4935 29.5129 34.4076 29.5813C34.3969 29.5885 34.4577 29.5885 34.4613 29.5957C34.4863 29.675 34.5149 29.7542 34.54 29.8334C34.5436 29.8514 34.4577 29.9091 34.54 29.8947C34.6258 29.8802 34.4756 29.9631 34.5793 29.9379C34.5936 29.9343 34.5972 29.9523 34.5936 29.9631C34.5292 30.0964 34.6544 30.1504 34.6687 30.2512C34.6687 30.2764 34.7224 30.2764 34.6544 30.3377C34.7689 30.3377 34.6294 30.4998 34.7903 30.4709C34.7903 30.525 34.8833 30.5106 34.8189 30.6042C34.8082 30.6186 34.8368 30.6186 34.8297 30.633C34.8011 30.6834 34.9405 30.6042 34.8905 30.6798C34.8619 30.7231 34.9012 30.7339 34.9191 30.7555C34.9334 30.7771 34.9513 30.7915 34.9656 30.8131L35.0156 30.8743C35.0335 30.8959 35.0442 30.9212 35.0693 30.9356C35.1194 30.9608 35.198 30.95 35.2195 31.0076C35.2195 31.0148 35.2374 31.0112 35.2481 31.0004C35.3518 30.9104 35.3161 30.986 35.3053 31.0256C35.2946 31.058 35.2946 31.0796 35.3053 31.0868C35.3411 31.112 35.3769 31.1337 35.4055 31.1661C35.4234 31.1841 35.4698 31.1589 35.4448 31.2453C35.4377 31.2705 35.4591 31.2777 35.477 31.2669C35.5664 31.2165 35.5843 31.2885 35.638 31.2921C35.663 31.2921 35.6809 31.3065 35.7023 31.3173C35.7166 31.3246 35.7524 31.2777 35.7524 31.3354C35.8633 31.2453 35.9169 31.3426 35.9992 31.3282C36.0778 31.3282 36.153 31.3209 36.2316 31.3245C36.2531 31.3245 36.2638 31.2741 36.2996 31.357C36.3067 31.3714 36.321 31.3678 36.321 31.3498C36.321 31.2993 36.3211 31.2741 36.3532 31.3318C36.3604 31.3426 36.3675 31.3282 36.3675 31.3137C36.3747 31.2741 36.389 31.2777 36.414 31.3029C36.4355 31.3209 36.457 31.3282 36.4641 31.3029C36.482 31.2417 36.4891 31.1913 36.5642 31.2633C36.575 31.2741 36.5571 31.2129 36.5642 31.2093C36.5964 31.2021 36.6 31.1445 36.6644 31.1913C36.693 31.2093 36.6966 31.1805 36.7144 31.1805C36.7502 31.1805 36.7395 31.1193 36.7824 31.1229C36.8253 31.1229 36.8396 31.0868 36.8647 31.0652C36.8933 31.0472 36.9183 31.022 36.9398 30.9968L37.0149 30.9248C37.0399 30.9031 37.065 30.8743 37.0864 30.8491L37.1544 30.7663C37.1758 30.7375 37.2009 30.7123 37.2223 30.6834C37.2366 30.6618 37.2581 30.651 37.301 30.6474C37.4119 30.6474 37.4548 30.5682 37.4405 30.4421C37.4405 30.4349 37.4476 30.4277 37.4512 30.4205C37.5013 30.3377 37.5335 30.2404 37.5943 30.1612C37.6229 30.1252 37.6801 30.1036 37.6908 30.0603C37.698 30.0315 37.7194 30.0099 37.6801 29.9595C37.6443 29.9199 37.7337 29.9163 37.6658 29.8586C37.6408 29.837 37.6515 29.8118 37.6801 29.8082C37.7767 29.7938 37.7516 29.7326 37.7695 29.6894C37.791 29.6389 37.8053 29.5885 37.816 29.5345C37.8196 29.5093 37.8553 29.4913 37.7981 29.4444C37.7695 29.4228 37.7981 29.3976 37.8303 29.3868C37.8804 29.3688 37.8804 29.3364 37.8661 29.304C37.841 29.2355 37.8303 29.2355 37.8947 29.1851C37.9018 29.1779 37.9054 29.1707 37.9054 29.1635C37.9197 29.0915 37.9626 29.0158 37.934 28.9366C37.909 28.8718 37.9162 28.8141 37.9197 28.7529C37.9197 28.7277 37.884 28.6953 37.9734 28.6845C37.9877 28.6845 37.9877 28.6701 37.9734 28.6629C37.8804 28.6016 37.9376 28.5548 37.9412 28.5008C37.9448 28.4504 37.8661 28.3999 37.8875 28.3495C37.909 28.3027 37.8947 28.2523 37.8947 28.2018C37.8947 28.1262 37.9519 28.1118 38.1951 28.1118C38.3954 28.1118 38.4383 28.1334 38.4812 28.1982C38.5635 28.3423 38.4991 28.4828 38.5098 28.598L38.4991 28.6052Z" fill="#363232"/>
<path d="M36.0565 26.9701C36.493 26.9701 36.8469 26.6959 36.8469 26.3578C36.8469 26.0196 36.493 25.7455 36.0565 25.7455C35.62 25.7455 35.2661 26.0196 35.2661 26.3578C35.2661 26.6959 35.62 26.9701 36.0565 26.9701Z" fill="white"/>
<path d="M36.482 26.1993C36.4569 26.1705 36.4212 26.138 36.3782 26.1236C36.3639 26.1164 36.3603 26.0732 36.3138 26.1416C36.2924 26.1741 36.3139 26.0804 36.296 26.0768C36.2495 26.0696 36.2066 26.048 36.1601 26.048C36.1136 26.048 36.0671 26.084 36.0242 26.0948C35.9848 26.1056 35.9312 26.0696 35.9026 26.1272C35.8811 26.1777 35.831 26.1128 35.806 26.1416C35.7845 26.1741 35.7631 26.1957 35.7202 26.1849C35.688 26.1741 35.6486 26.1669 35.6415 26.1921C35.6415 26.2101 35.6665 26.2497 35.6594 26.2569C35.6522 26.2605 35.6057 26.2497 35.6844 26.3073C35.6916 26.3109 35.6737 26.3073 35.663 26.3001C35.6057 26.2749 35.6022 26.2929 35.6379 26.3145C35.6773 26.3361 35.6701 26.3361 35.6701 26.3397C35.6737 26.3505 35.6772 26.3577 35.6701 26.3649C35.6629 26.3722 35.6308 26.3866 35.6272 26.4046C35.6272 26.4226 35.6665 26.4118 35.6379 26.4514C35.6093 26.491 35.6236 26.509 35.6379 26.5234C35.6451 26.5306 35.6308 26.5775 35.6987 26.509C35.7059 26.5018 35.7059 26.509 35.7059 26.5126C35.6594 26.6387 35.7845 26.5198 35.8024 26.5594C35.8239 26.6063 35.8775 26.5991 35.9169 26.6063C35.9276 26.6063 35.9347 26.6387 35.9562 26.5702C35.9634 26.5486 35.9741 26.545 35.9777 26.563C35.9955 26.6639 36.0385 26.6063 36.0707 26.6207C36.1136 26.6387 36.1422 26.5919 36.1923 26.6567C36.2137 26.6855 36.2459 26.6963 36.2388 26.6027C36.2388 26.5594 36.2638 26.5955 36.2745 26.5811C36.2817 26.5702 36.2745 26.527 36.2853 26.5234C36.2924 26.5198 36.3139 26.5486 36.3282 26.5594C36.3317 26.5594 36.3353 26.5594 36.3353 26.5594C36.3246 26.4514 36.4319 26.5378 36.4498 26.4838C36.4569 26.437 36.4784 26.419 36.4998 26.3974C36.5106 26.383 36.5392 26.3866 36.718 26.3649C36.7967 26.3577 36.8825 26.3505 36.9326 26.3758C36.9684 26.3938 37.0005 26.419 37.0077 26.4442C37.0148 26.4802 37.0327 26.5234 37.0327 26.563C37.0399 26.6459 37.0685 26.7611 36.9862 26.8116C36.9612 26.8224 36.9755 26.8764 36.904 26.844C36.8932 26.8404 36.8825 26.844 36.8861 26.8512C36.904 27.0169 36.7573 27.0313 36.6751 27.0853C36.6071 27.1357 36.5606 27.2582 36.4605 27.2474C36.4426 27.3554 36.3711 27.3554 36.3174 27.3338C36.1279 27.2654 35.9705 27.3338 35.7917 27.2834C35.6236 27.2366 35.4484 27.1789 35.2981 27.0565C35.2731 27.0349 35.2159 27.0565 35.2123 26.9989C35.2123 26.9412 35.1587 26.934 35.13 26.898C35.105 26.8656 35.0621 26.844 35.0621 26.7936C35.0621 26.6099 34.9655 26.473 34.987 26.3001C35.0085 26.1344 35.0836 25.9904 35.1551 25.8571C35.198 25.7743 35.2338 25.6698 35.3196 25.6338C35.3554 25.6194 35.3625 25.551 35.4412 25.6122C35.4627 25.6302 35.4591 25.551 35.4806 25.5365C35.5306 25.5005 35.5878 25.4861 35.6451 25.4645C35.7237 25.4393 35.8024 25.4285 35.8811 25.4069C35.9276 25.3961 35.9741 25.3529 36.0242 25.3421C36.0778 25.3276 36.1315 25.3348 36.1815 25.3457C36.2495 25.3637 36.3067 25.4069 36.3675 25.4285C36.4283 25.4537 36.5141 25.4357 36.5606 25.5005C36.6393 25.6194 36.7573 25.6446 36.8503 25.7346C36.9362 25.8247 37.0113 25.9291 37.0828 26.0516C37.1221 26.1236 37.0649 26.2137 37.0721 26.2821C37.0721 26.3217 36.8503 26.3613 36.7752 26.3469C36.7609 26.3469 36.743 26.3433 36.7394 26.3397C36.6643 26.3001 36.5535 26.3073 36.5535 26.2857C36.5535 26.2497 36.5249 26.2173 36.4927 26.1849L36.482 26.1993Z" fill="white"/>
<path d="M36.0565 30.5502C36.493 30.5502 36.8469 30.276 36.8469 29.9379C36.8469 29.5997 36.493 29.3256 36.0565 29.3256C35.62 29.3256 35.2661 29.5997 35.2661 29.9379C35.2661 30.276 35.62 30.5502 36.0565 30.5502Z" fill="white"/>
<path d="M36.482 29.7758C36.4569 29.747 36.4212 29.7146 36.3782 29.7002C36.3639 29.693 36.3603 29.6497 36.3138 29.7182C36.2924 29.7506 36.3139 29.6569 36.296 29.6533C36.2495 29.6461 36.2066 29.6245 36.1601 29.6245C36.1136 29.6245 36.0671 29.6606 36.0242 29.6714C35.9848 29.6822 35.9312 29.6461 35.9026 29.7038C35.8811 29.7542 35.831 29.6894 35.806 29.7182C35.7845 29.7506 35.7631 29.7722 35.7202 29.7614C35.688 29.7506 35.6486 29.7434 35.6415 29.7686C35.6415 29.7866 35.6665 29.8262 35.6594 29.8334C35.6522 29.837 35.6057 29.8262 35.6844 29.8839C35.6916 29.8875 35.6737 29.8839 35.663 29.8767C35.6057 29.8514 35.6022 29.8695 35.6379 29.8911C35.6773 29.9127 35.6701 29.9127 35.6701 29.9163C35.6737 29.9271 35.6772 29.9343 35.6701 29.9415C35.6629 29.9487 35.6308 29.9631 35.6272 29.9811C35.6272 29.9991 35.6665 29.9883 35.6379 30.0279C35.6093 30.0675 35.6236 30.0856 35.6379 30.1C35.6451 30.1072 35.6308 30.154 35.6987 30.0856C35.7059 30.0784 35.7059 30.0856 35.7059 30.0892C35.6594 30.2152 35.7845 30.0964 35.8024 30.136C35.8239 30.1828 35.8775 30.1756 35.9169 30.1828C35.9276 30.1828 35.9347 30.2152 35.9562 30.1468C35.9634 30.1252 35.9741 30.1216 35.9777 30.1396C35.9955 30.2404 36.0385 30.1828 36.0707 30.1972C36.1136 30.2152 36.1422 30.1684 36.1923 30.2332C36.2137 30.262 36.2459 30.2728 36.2388 30.1792C36.2388 30.136 36.2638 30.172 36.2745 30.1576C36.2817 30.1468 36.2745 30.1036 36.2853 30.1C36.2924 30.0964 36.3139 30.1252 36.3282 30.136C36.3317 30.136 36.3353 30.136 36.3353 30.136C36.3246 30.0279 36.4319 30.1144 36.4498 30.0603C36.4569 30.0135 36.4784 29.9955 36.4998 29.9739C36.5106 29.9595 36.5392 29.9631 36.718 29.9415C36.7967 29.9343 36.8825 29.9271 36.9326 29.9523C36.9684 29.9703 37.0005 29.9955 37.0077 30.0207C37.0148 30.0567 37.0327 30.1 37.0327 30.1396C37.0399 30.2224 37.0685 30.3377 36.9862 30.3881C36.9612 30.3989 36.9755 30.4529 36.904 30.4205C36.8932 30.4169 36.8825 30.4205 36.8861 30.4277C36.904 30.5934 36.7573 30.6078 36.6751 30.6618C36.6071 30.7123 36.5606 30.8347 36.4605 30.8239C36.4426 30.932 36.3711 30.932 36.3174 30.9104C36.1279 30.8419 35.9705 30.9104 35.7917 30.8599C35.6236 30.8131 35.4484 30.7555 35.2981 30.633C35.2731 30.6114 35.2159 30.633 35.2123 30.5754C35.2123 30.5178 35.1587 30.5106 35.13 30.4745C35.105 30.4421 35.0621 30.4205 35.0621 30.3701C35.0621 30.1864 34.9655 30.0495 34.987 29.8767C35.0085 29.711 35.0836 29.5669 35.1551 29.4336C35.198 29.3508 35.2338 29.2464 35.3196 29.2103C35.3554 29.1959 35.3625 29.1275 35.4412 29.1887C35.4627 29.2067 35.4591 29.1275 35.4806 29.1131C35.5306 29.0771 35.5878 29.0627 35.6451 29.0411C35.7237 29.0158 35.8024 29.005 35.8811 28.9834C35.9276 28.9726 35.9741 28.9294 36.0242 28.9186C36.0778 28.9042 36.1315 28.9114 36.1815 28.9222C36.2495 28.9402 36.3067 28.9834 36.3675 29.005C36.4283 29.0302 36.5141 29.0122 36.5606 29.0771C36.6393 29.1959 36.7573 29.2211 36.8503 29.3112C36.9362 29.4012 37.0113 29.5057 37.0828 29.6281C37.1221 29.7002 37.0649 29.7902 37.0721 29.8586C37.0721 29.8983 36.8503 29.9379 36.7752 29.9235C36.7609 29.9235 36.743 29.9199 36.7394 29.9163C36.6643 29.8767 36.5535 29.8839 36.5535 29.8622C36.5535 29.8262 36.5249 29.7938 36.4927 29.7614L36.482 29.7758Z" fill="white"/>
<path d="M25.6525 29.484C25.6704 29.7902 25.4522 30.0747 25.4093 30.4025C25.3842 30.5681 25.3449 30.7302 25.302 30.8959L25.234 31.1372L25.141 31.3713C25.0802 31.5298 25.0516 31.6883 25.0481 31.8648C25.0481 32.0412 24.8478 32.1493 24.9265 32.3546C24.9336 32.3726 24.9086 32.3978 24.8979 32.4194C24.7333 32.7976 24.5617 33.1902 24.2863 33.4891C24.1253 33.662 23.9715 33.8313 23.8392 34.0186C23.7069 34.2059 23.5638 34.3824 23.3957 34.5373C23.0417 35.236 22.3478 35.6214 21.7649 36.0824C21.5717 36.2121 21.3822 36.3669 21.1247 36.3958C20.9101 36.4282 20.7527 36.6695 20.4917 36.6191C20.4702 36.6155 20.4487 36.6659 20.4237 36.6875C20.3629 36.7379 20.3093 36.81 20.2377 36.828C19.805 36.9 19.8086 36.8892 19.501 37.0945C19.4652 37.1197 19.3937 37.0693 19.3472 37.0837C19.1576 37.1269 18.9645 37.1629 18.7785 37.2278C18.6104 37.289 18.4137 37.2422 18.2778 37.4114C18.2492 37.4511 18.167 37.4331 18.1097 37.4439C17.9273 37.4727 17.7414 37.4943 17.559 37.5267C17.3479 37.5519 17.1298 37.4943 16.9259 37.6348C16.8365 37.696 16.7006 37.5519 16.647 37.5843C16.5468 37.6384 16.4538 37.6528 16.3537 37.6348C16.2571 37.6203 16.1677 37.5519 16.0712 37.5447C15.9889 37.5375 15.8995 37.6059 15.8137 37.6059C15.6027 37.6059 15.3881 37.4943 15.1878 37.5375C14.9696 37.5807 14.7729 37.5375 14.5762 37.4871C14.3688 37.4439 14.1649 37.3682 13.9575 37.3322C13.7965 37.2962 13.6785 37.1773 13.5462 37.0945C13.4139 37.0081 13.2136 37.0477 13.142 36.8568C13.142 36.8496 13.1206 36.846 13.1098 36.8424L12.298 36.3489L11.6113 35.9167L10.964 35.4269C10.8495 35.326 10.6957 35.254 10.6779 35.0631C10.6743 35.0235 10.5992 35.0091 10.5849 34.9695C10.5276 34.8146 10.263 34.9154 10.2487 34.7281C10.2344 34.5625 10.1056 34.5012 10.0234 34.3968C9.93755 34.2779 9.81593 34.1843 9.73725 34.0546C9.68002 33.9682 9.6085 33.907 9.50121 33.8817C9.55128 33.7017 9.37602 33.6332 9.35456 33.4855C9.33668 33.3919 9.31166 33.2478 9.23656 33.2226C9.06846 33.1614 9.03984 33.0101 8.95758 32.8985C8.82525 32.7328 8.78591 32.5167 8.59994 32.3762C8.52125 32.315 8.49264 32.1961 8.46403 32.0989C8.43184 32.0088 8.44973 31.9008 8.42469 31.8071C8.37462 31.6379 8.31025 31.4794 8.17792 31.3389C8.05632 31.2164 8.135 30.9967 7.9526 30.8923C7.92756 30.8779 7.92398 30.8275 7.92756 30.7914C7.94902 30.6114 7.94544 30.4601 7.81311 30.2944C7.71655 30.1575 7.74518 29.9558 7.72014 29.783C7.69511 29.5993 7.62357 29.412 7.66291 29.2283C7.68437 29.113 7.47693 29.0662 7.59853 28.9185C7.66291 28.8393 7.61999 28.6988 7.61999 28.5836C7.61284 28.4683 7.59139 28.3459 7.63073 28.2342C7.73445 27.9461 7.73444 27.6579 7.77378 27.3698C7.81669 27.0816 7.82028 26.7863 7.91684 26.509C7.9991 26.2785 7.94187 25.9939 8.17434 25.821C8.09923 25.6157 8.28522 25.4537 8.25303 25.2664C8.23515 25.1475 8.27448 25.0611 8.30666 24.9674C8.42826 24.6721 8.57848 24.3839 8.71797 24.0958C8.88606 23.8221 9.04343 23.5411 9.21868 23.2746C9.46188 22.9288 9.66931 22.5543 9.95185 22.2373C10.027 22.1473 10.0949 22.0464 10.2415 22.0104C10.3524 21.9852 10.4812 21.8771 10.5026 21.7114C10.5062 21.679 10.5312 21.6322 10.5563 21.6322C10.8603 21.6142 10.9032 21.3008 11.0963 21.1568C11.2787 21.0127 11.4718 20.8866 11.6828 20.7894C11.8939 20.6922 12.1013 20.5985 12.2908 20.4724C12.3695 20.4148 12.5054 20.4256 12.509 20.2707C12.627 20.3356 12.6521 20.2635 12.7164 20.1771C12.7808 20.0871 12.9239 20.0114 13.024 20.033C13.1599 20.0582 13.2493 20.0006 13.3531 19.9682C13.4639 19.9358 13.5712 19.8854 13.6821 19.8493C13.9146 19.7701 14.1542 19.7161 14.3938 19.6729C14.6334 19.626 14.8695 19.572 15.1163 19.5612C15.2128 19.554 15.3094 19.59 15.4059 19.5972C15.5025 19.6044 15.5955 19.5288 15.6956 19.626C15.7314 19.6621 15.8244 19.6188 15.8923 19.6188C16.132 19.608 16.3859 19.6621 16.5969 19.5648C16.8079 19.4712 17.0297 19.6044 17.2371 19.4495C17.2943 19.4063 17.3944 19.4604 17.4731 19.4532C17.8022 19.4387 18.1062 19.6404 18.4531 19.5072C18.5461 19.6368 18.682 19.6549 18.8107 19.6801C18.9073 19.6981 18.9967 19.7881 19.1076 19.6837C19.1219 19.6729 19.1541 19.6837 19.1719 19.6909C19.2792 19.7485 19.3543 19.8493 19.4831 19.8782C19.5904 19.8962 19.7013 19.8565 19.8121 19.8998C20.227 20.0402 20.5382 20.3788 20.953 20.5085C21.0067 20.6561 21.1283 20.7102 21.2391 20.7822C21.4323 20.9119 21.6969 20.9083 21.8686 21.0883C22.0331 21.2504 22.2119 21.4161 22.4194 21.5025C22.7663 21.6718 23.0166 21.96 23.2741 22.2301C23.3421 22.2985 23.4494 22.349 23.4172 22.493C23.41 22.5254 23.4887 22.5975 23.5352 22.5939C23.6354 22.5903 23.6461 22.6731 23.7033 22.7055C23.8678 22.7956 23.7212 23.1125 24.0002 23.1089C24.1146 23.2566 24.2219 23.4079 24.3149 23.5735C24.4114 23.732 24.5116 23.8905 24.601 24.0562C24.6439 24.1318 24.6976 24.2002 24.669 24.3155C24.6475 24.3947 24.6976 24.5244 24.7691 24.5568C24.9336 24.6361 24.9551 24.7873 25.0159 24.917C25.1661 25.3204 25.3413 25.7202 25.42 26.1488C25.4594 26.3361 25.4701 26.527 25.4737 26.7143C25.4737 26.9052 25.5881 27.0888 25.5059 27.2869C25.4987 27.3014 25.5059 27.3194 25.513 27.3338C25.538 27.4058 25.5917 27.4778 25.5917 27.5499C25.5917 27.6471 25.4951 27.7804 25.5416 27.8308C25.6346 27.9317 25.5416 28.0109 25.538 28.0901C25.5201 28.3278 25.302 28.4683 25.0302 28.4431C24.9694 28.4359 24.9014 28.4107 24.8549 28.3819C24.5509 28.1946 24.5652 28.1946 24.533 27.8956C24.5223 27.802 24.5295 27.7047 24.533 27.6111C24.533 27.5175 24.533 27.4202 24.533 27.323C24.533 27.1321 24.5438 26.934 24.4687 26.7539C24.5509 26.4766 24.3972 26.2352 24.3507 25.9759C24.2863 25.713 24.3185 25.3996 24.1289 25.1871C23.9286 24.9854 23.8464 24.7369 23.7212 24.5064C23.6211 24.3371 23.5674 24.1354 23.4744 23.9517C23.3779 23.7644 23.2062 23.624 23.1204 23.4331C23.0631 23.3178 23.0631 23.1413 22.9344 23.0909C22.659 22.9829 22.5696 22.6947 22.33 22.5651C22.0045 22.3922 21.7863 22.0968 21.4609 21.9456C21.2892 21.8591 21.1247 21.7727 20.9637 21.679C20.8922 21.6322 20.8207 21.5926 20.7706 21.4953C20.7206 21.3945 20.6025 21.3153 20.4595 21.3369C20.3987 21.3477 20.3164 21.3369 20.2914 21.29C20.1948 21.0991 20.0017 21.0667 19.8443 20.9911C19.7406 20.9479 19.6619 20.7966 19.5832 20.8182C19.4473 20.8578 19.3615 20.7858 19.2578 20.7606C19.1827 20.7426 19.0933 20.7462 19.0611 20.6237C19.0503 20.5913 18.9824 20.5661 18.9538 20.5841C18.7893 20.6885 18.6677 20.5841 18.5353 20.5553L18.2957 20.4977L18.0489 20.4616L17.559 20.3788C17.2836 20.3464 17.0153 20.4941 16.7471 20.4184C16.5826 20.5553 16.4002 20.5121 16.2249 20.5157C16.0926 20.5229 15.9531 20.4724 15.8172 20.4616C15.6813 20.4544 15.5562 20.5013 15.4024 20.4616C15.2128 20.4112 15.0161 20.5085 14.8266 20.5517C14.7193 20.5697 14.6263 20.6777 14.4975 20.5697C14.4796 20.5553 14.4331 20.5697 14.4188 20.5913C14.3187 20.757 14.147 20.7858 14.0111 20.775C13.7894 20.7642 13.6105 20.8578 13.4246 20.9335C13.2708 20.9947 13.1277 21.0847 12.9704 21.146C12.8559 21.1892 12.7665 21.2684 12.6306 21.2828C12.5233 21.2936 12.4554 21.4269 12.3624 21.4953C12.2694 21.5638 12.1621 21.6106 12.0727 21.6826L11.7723 21.9095C11.6721 21.9852 11.5684 22.0572 11.4718 22.1401C11.3717 22.2337 11.2787 22.3309 11.1678 22.4138C11.0641 22.493 10.9282 22.5326 10.8316 22.6191C10.5777 22.882 10.4382 23.2278 10.1915 23.4943C10.2165 23.6348 10.0985 23.6636 10.0234 23.7356C9.95185 23.8005 9.85169 23.8653 9.89461 24.0058C9.90534 24.0454 9.87674 24.0814 9.86244 24.121C9.83025 24.2039 9.70864 24.2147 9.71937 24.3407C9.72652 24.4308 9.62638 24.4992 9.58704 24.582C9.55485 24.6757 9.44041 24.7405 9.52267 24.8738C9.27589 24.9422 9.4726 25.2159 9.31881 25.3312C9.27589 25.3708 9.2437 25.4212 9.20794 25.4681C9.19006 25.4897 9.15429 25.5113 9.15786 25.5401C9.15429 26.0191 8.9111 26.4189 8.85387 26.8763C8.85387 26.934 8.88248 26.9916 8.88963 27.0492C8.89321 27.078 8.89322 27.1069 8.88249 27.1321C8.7752 27.3662 8.77877 27.3662 8.81454 27.6039C8.82527 27.6615 8.81096 27.7264 8.81454 27.784C8.82884 27.9389 8.78592 28.0901 8.85745 28.2522C8.92183 28.4107 8.78949 28.5836 8.73584 28.7565C8.68577 28.9077 8.63213 29.0626 8.64643 29.2283C8.72511 29.6353 8.75373 30.0531 8.87175 30.4529C8.88606 30.5033 8.87175 30.5789 8.91467 30.6005C9.08634 30.6762 9.19005 30.7482 9.00408 30.9283C8.99335 30.9355 9.01123 30.9787 9.02554 30.9823C9.20436 31.0292 9.17933 31.1768 9.2151 31.2849C9.25086 31.3893 9.2902 31.4902 9.34385 31.5838L9.52625 31.8576C9.65142 32.0376 9.75513 32.2213 9.84812 32.4158C9.87673 32.4807 9.95541 32.5419 9.93753 32.6031C9.89461 32.7328 10.0591 32.6788 10.0663 32.7652C10.0734 32.8372 10.17 32.8841 10.17 32.9489C10.1593 33.1902 10.3274 33.3415 10.474 33.4531C10.6099 33.5612 10.778 33.644 10.8352 33.7953C10.8996 33.9394 10.9819 34.069 11.0927 34.1735C11.2 34.2779 11.3181 34.3716 11.4253 34.476C11.6364 34.7029 11.9046 34.865 12.1478 35.0487C12.2479 35.1243 12.3373 35.2396 12.5054 35.1856C12.5412 35.1748 12.5805 35.218 12.6092 35.2468C12.6771 35.3152 12.7308 35.4089 12.8094 35.4593C12.8881 35.5133 13.0026 35.4989 13.092 35.5205C13.1671 35.5385 13.2243 35.5854 13.3244 35.5529C13.396 35.5313 13.4675 35.6106 13.5176 35.7186C13.6177 35.9275 13.7536 36.1184 13.9789 36.1796C14.0791 36.2049 14.1756 36.2445 14.2758 36.2769C14.3759 36.3057 14.4761 36.3345 14.5798 36.3561C14.6656 36.3741 14.7443 36.4066 14.848 36.3633C14.941 36.3237 15.0698 36.3886 15.1627 36.4426C15.3094 36.5362 15.456 36.5686 15.6205 36.511C15.6777 36.493 15.7421 36.5002 15.7993 36.511C15.9782 36.529 16.1606 36.529 16.3394 36.5398C16.5218 36.5506 16.7006 36.565 16.883 36.547C16.9689 36.5434 17.0618 36.511 17.1369 36.6083C17.187 36.4858 17.28 36.5218 17.3587 36.5254C17.4767 36.5362 17.5947 36.5722 17.7128 36.5614C17.8522 36.5506 17.9881 36.5218 18.1097 36.4282C18.2242 36.3489 18.3959 36.421 18.5067 36.2877C18.5282 36.2625 18.5961 36.3165 18.6319 36.3021C18.775 36.2373 18.9752 36.3021 19.0647 36.1076C19.0718 36.0896 19.104 36.0788 19.1219 36.086C19.34 36.1833 19.4724 35.9996 19.6226 35.8987C19.7871 35.7979 19.9945 35.8303 20.1662 35.7474C20.3629 35.6502 20.5417 35.5097 20.7456 35.4521C20.9244 35.4053 21.0889 35.326 21.2391 35.2324C21.3822 35.1243 21.5181 35.0091 21.6647 34.9082C21.8185 34.8074 21.958 34.6885 22.0903 34.5625C22.2227 34.4364 22.3657 34.3175 22.4837 34.1771C22.5875 34.0546 22.6483 33.8961 22.7448 33.7737C22.8557 33.6368 22.9701 33.5036 23.0739 33.3595L23.3707 32.9597C23.4136 32.8949 23.4172 32.794 23.5388 32.7904C23.5638 32.7904 23.596 32.7508 23.5925 32.7256C23.571 32.5419 23.6461 32.4338 23.8106 32.3582C23.8571 32.3366 23.8571 32.2682 23.8929 32.2285C23.9894 32.1241 23.9537 31.9728 23.9787 31.8468C24.0002 31.7315 24.1611 31.6559 24.0502 31.4974C24.0359 31.4758 24.0538 31.4217 24.0788 31.4145C24.3972 31.2849 24.0967 30.8995 24.3793 30.7518C24.2612 30.6222 24.4436 30.5753 24.4436 30.4997C24.4401 30.388 24.4258 30.28 24.4544 30.1755C24.4866 30.0783 24.5044 29.9738 24.5116 29.873C24.5223 29.6857 24.6153 29.5056 24.5259 29.3075C24.4973 29.2427 24.4723 29.1238 24.5939 29.059C24.6153 29.0482 24.6153 29.005 24.6082 28.9798C24.5724 28.7745 24.7155 28.5295 24.93 28.4719C25.0552 28.4395 25.209 28.4431 25.3377 28.4719C25.4021 28.4863 25.4379 28.5836 25.4808 28.6484C25.5559 28.7601 25.6632 28.8681 25.6918 28.9942C25.7204 29.1418 25.6918 29.2967 25.6668 29.484H25.6525Z" fill="#00C573"/>
<path d="M46.3959 29.484C46.4138 29.7902 46.1956 30.0747 46.1527 30.4025C46.1276 30.5681 46.0883 30.7302 46.0454 30.8959L45.9774 31.1372L45.8845 31.3713C45.8237 31.5298 45.795 31.6883 45.7915 31.8648C45.7915 32.0412 45.5912 32.1493 45.6699 32.3546C45.677 32.3726 45.652 32.3978 45.6413 32.4194C45.4767 32.7976 45.3051 33.1902 45.0297 33.4891C44.8687 33.662 44.7149 33.8313 44.5826 34.0186C44.4503 34.2059 44.3072 34.3824 44.1391 34.5373C43.7851 35.236 43.0912 35.6214 42.5083 36.0824C42.3151 36.2121 42.1256 36.3669 41.8681 36.3958C41.6535 36.4282 41.4961 36.6695 41.2351 36.6191C41.2136 36.6155 41.1921 36.6659 41.1671 36.6875C41.1063 36.7379 41.0527 36.81 40.9811 36.828C40.5484 36.9 40.552 36.8892 40.2444 37.0945C40.2086 37.1197 40.1371 37.0693 40.0906 37.0837C39.901 37.1269 39.7079 37.1629 39.5219 37.2278C39.3539 37.289 39.1571 37.2422 39.0212 37.4114C38.9926 37.4511 38.9104 37.4331 38.8531 37.4439C38.6708 37.4727 38.4848 37.4943 38.3024 37.5267C38.0914 37.5519 37.8732 37.4943 37.6693 37.6348C37.5799 37.696 37.444 37.5519 37.3904 37.5843C37.2902 37.6384 37.1972 37.6528 37.0971 37.6348C37.0005 37.6203 36.9111 37.5519 36.8146 37.5447C36.7323 37.5375 36.6429 37.6059 36.5571 37.6059C36.3461 37.6059 36.1315 37.4943 35.9312 37.5375C35.713 37.5807 35.5163 37.5375 35.3196 37.4871C35.1122 37.4439 34.9083 37.3682 34.7009 37.3322C34.5399 37.2962 34.4219 37.1773 34.2896 37.0945C34.1573 37.0081 33.957 37.0477 33.8854 36.8568C33.8854 36.8496 33.864 36.846 33.8533 36.8424L33.0414 36.3489L32.3547 35.9167L31.7074 35.4269C31.5929 35.326 31.4391 35.254 31.4213 35.0631C31.4177 35.0235 31.3426 35.0091 31.3283 34.9695C31.271 34.8146 31.0064 34.9154 30.9921 34.7281C30.9778 34.5625 30.849 34.5012 30.7668 34.3968C30.681 34.2779 30.5593 34.1843 30.4807 34.0546C30.4234 33.9682 30.3519 33.907 30.2446 33.8817C30.2947 33.7017 30.1194 33.6332 30.098 33.4855C30.0801 33.3919 30.0551 33.2478 29.98 33.2226C29.8119 33.1614 29.7832 33.0101 29.701 32.8985C29.5687 32.7328 29.5293 32.5167 29.3433 32.3762C29.2647 32.315 29.236 32.1961 29.2074 32.0989C29.1752 32.0088 29.1931 31.9008 29.1681 31.8071C29.118 31.6379 29.0537 31.4794 28.9213 31.3389C28.7997 31.2164 28.8784 30.9967 28.696 30.8923C28.671 30.8779 28.6674 30.8275 28.671 30.7914C28.6924 30.6114 28.6888 30.4601 28.5565 30.2944C28.46 30.1575 28.4886 29.9558 28.4636 29.783C28.4385 29.5993 28.367 29.412 28.4063 29.2283C28.4278 29.113 28.2203 29.0662 28.3419 28.9185C28.4063 28.8393 28.3634 28.6988 28.3634 28.5836C28.3562 28.4683 28.3348 28.3459 28.3741 28.2342C28.4779 27.9461 28.4778 27.6579 28.5172 27.3698C28.5601 27.0816 28.5637 26.7863 28.6603 26.509C28.7425 26.2785 28.6853 25.9939 28.9177 25.821C28.8426 25.6157 29.0286 25.4537 28.9964 25.2664C28.9786 25.1475 29.0179 25.0611 29.0501 24.9674C29.1717 24.6721 29.3219 24.3839 29.4614 24.0958C29.6295 23.8221 29.7868 23.5411 29.9621 23.2746C30.2053 22.9288 30.4127 22.5543 30.6953 22.2373C30.7704 22.1473 30.8383 22.0464 30.9849 22.0104C31.0958 21.9852 31.2246 21.8771 31.246 21.7114C31.2496 21.679 31.2746 21.6322 31.2997 21.6322C31.6037 21.6142 31.6466 21.3008 31.8397 21.1568C32.0221 21.0127 32.2152 20.8866 32.4262 20.7894C32.6373 20.6922 32.8447 20.5985 33.0342 20.4724C33.1129 20.4148 33.2488 20.4256 33.2524 20.2707C33.3704 20.3356 33.3955 20.2635 33.4598 20.1771C33.5242 20.0871 33.6673 20.0114 33.7674 20.033C33.9033 20.0582 33.9928 20.0006 34.0965 19.9682C34.2073 19.9358 34.3146 19.8854 34.4255 19.8493C34.658 19.7701 34.8976 19.7161 35.1372 19.6729C35.3768 19.626 35.6129 19.572 35.8597 19.5612C35.9562 19.554 36.0528 19.59 36.1494 19.5972C36.2459 19.6044 36.3389 19.5288 36.439 19.626C36.4748 19.6621 36.5678 19.6188 36.6357 19.6188C36.8754 19.608 37.1293 19.6621 37.3403 19.5648C37.5513 19.4712 37.7731 19.6044 37.9805 19.4495C38.0377 19.4063 38.1378 19.4604 38.2165 19.4532C38.5456 19.4387 38.8496 19.6404 39.1965 19.5072C39.2895 19.6368 39.4254 19.6549 39.5541 19.6801C39.6507 19.6981 39.7401 19.7881 39.851 19.6837C39.8653 19.6729 39.8975 19.6837 39.9153 19.6909C40.0226 19.7485 40.1013 19.8493 40.2265 19.8782C40.3338 19.8962 40.4447 19.8565 40.5555 19.8998C40.9704 20.0402 41.2816 20.3788 41.6964 20.5085C41.7501 20.6561 41.8717 20.7102 41.9825 20.7822C42.1757 20.9119 42.4403 20.9083 42.612 21.0883C42.7765 21.2504 42.9553 21.4161 43.1628 21.5025C43.5097 21.6718 43.76 21.96 44.0176 22.2301C44.0855 22.2985 44.1928 22.349 44.1606 22.493C44.1534 22.5254 44.2321 22.5975 44.2786 22.5939C44.3788 22.5903 44.3895 22.6731 44.4467 22.7055C44.6112 22.7956 44.4646 23.1125 44.7436 23.1089C44.858 23.2566 44.9653 23.4079 45.0583 23.5735C45.1549 23.732 45.255 23.8905 45.3444 24.0562C45.3873 24.1318 45.441 24.2002 45.4124 24.3155C45.3909 24.3947 45.441 24.5244 45.5125 24.5568C45.677 24.6361 45.6985 24.7873 45.7593 24.917C45.9095 25.3204 46.0847 25.7202 46.1634 26.1488C46.2028 26.3361 46.2135 26.527 46.2171 26.7143C46.2171 26.9052 46.3315 27.0888 46.2493 27.2869C46.2421 27.3014 46.2493 27.3194 46.2564 27.3338C46.2815 27.4058 46.3351 27.4778 46.3351 27.5499C46.3351 27.6471 46.2385 27.7804 46.285 27.8308C46.378 27.9317 46.285 28.0109 46.2814 28.0901C46.2635 28.3278 46.0454 28.4683 45.7736 28.4431C45.7128 28.4359 45.6448 28.4107 45.5983 28.3819C45.2943 28.1946 45.3086 28.1946 45.2764 27.8956C45.2657 27.802 45.2729 27.7047 45.2764 27.6111C45.2764 27.5175 45.2764 27.4202 45.2764 27.323C45.2764 27.1321 45.2872 26.934 45.2121 26.7539C45.2943 26.4766 45.1406 26.2352 45.0941 25.9759C45.0297 25.713 45.0619 25.3996 44.8723 25.1871C44.672 24.9854 44.5898 24.7369 44.4646 24.5064C44.3645 24.3371 44.3108 24.1354 44.2178 23.9517C44.1213 23.7644 43.9496 23.624 43.8638 23.4331C43.8065 23.3178 43.8065 23.1413 43.6778 23.0909C43.4024 22.9829 43.313 22.6947 43.0734 22.5651C42.7479 22.3922 42.5297 22.0968 42.2043 21.9456C42.0326 21.8591 41.8681 21.7727 41.7072 21.679C41.6356 21.6322 41.5641 21.5926 41.514 21.4953C41.464 21.3945 41.3459 21.3153 41.2029 21.3369C41.1421 21.3477 41.0598 21.3369 41.0348 21.29C40.9382 21.0991 40.7451 21.0667 40.5877 20.9911C40.484 20.9479 40.4053 20.7966 40.3266 20.8182C40.1907 20.8578 40.1049 20.7858 40.0012 20.7606C39.9261 20.7426 39.8367 20.7462 39.8045 20.6237C39.7937 20.5913 39.7258 20.5661 39.6972 20.5841C39.5327 20.6885 39.4111 20.5841 39.2787 20.5553L39.0391 20.4977L38.7924 20.4616L38.3024 20.3788C38.027 20.3464 37.7588 20.4941 37.4905 20.4184C37.326 20.5553 37.1436 20.5121 36.9684 20.5157C36.836 20.5229 36.6965 20.4724 36.5606 20.4616C36.4247 20.4544 36.2996 20.5013 36.1458 20.4616C35.9562 20.4112 35.7595 20.5085 35.57 20.5517C35.4627 20.5697 35.3697 20.6777 35.2409 20.5697C35.223 20.5553 35.1766 20.5697 35.1622 20.5913C35.0621 20.757 34.8904 20.7858 34.7545 20.775C34.5328 20.7642 34.354 20.8578 34.168 20.9335C34.0142 20.9947 33.8711 21.0847 33.7138 21.146C33.5993 21.1892 33.5099 21.2684 33.374 21.2828C33.2667 21.2936 33.1988 21.4269 33.1058 21.4953C33.0128 21.5638 32.9055 21.6106 32.8161 21.6826L32.5157 21.9095C32.4155 21.9852 32.3118 22.0572 32.2152 22.1401C32.1151 22.2337 32.0221 22.3309 31.9112 22.4138C31.8075 22.493 31.6716 22.5326 31.575 22.6191C31.3211 22.882 31.1816 23.2278 30.9349 23.4943C30.9599 23.6348 30.8419 23.6636 30.7668 23.7356C30.6953 23.8005 30.5951 23.8653 30.638 24.0058C30.6487 24.0454 30.6201 24.0814 30.6058 24.121C30.5737 24.2039 30.452 24.2147 30.4628 24.3407C30.4699 24.4308 30.3698 24.4992 30.3305 24.582C30.2983 24.6757 30.1838 24.7405 30.2661 24.8738C30.0193 24.9422 30.216 25.2159 30.0622 25.3312C30.0193 25.3708 29.9871 25.4212 29.9513 25.4681C29.9335 25.4897 29.8977 25.5113 29.8977 25.5401C29.8941 26.0191 29.6509 26.4189 29.5937 26.8763C29.5937 26.934 29.6223 26.9916 29.6295 27.0492C29.633 27.078 29.633 27.1069 29.6223 27.1321C29.515 27.3662 29.5186 27.3662 29.5544 27.6039C29.5651 27.6615 29.5508 27.7264 29.5544 27.784C29.5687 27.9389 29.5258 28.0901 29.5973 28.2522C29.6617 28.4107 29.5293 28.5836 29.4757 28.7565C29.4256 28.9077 29.372 29.0626 29.3863 29.2283C29.4649 29.6353 29.4936 30.0531 29.6116 30.4529C29.6259 30.5033 29.6116 30.5789 29.6545 30.6005C29.8262 30.6762 29.9299 30.7482 29.7403 30.9283C29.7296 30.9355 29.7475 30.9787 29.7618 30.9823C29.9406 31.0292 29.9156 31.1768 29.9513 31.2849C29.9871 31.3893 30.0264 31.4902 30.0801 31.5838L30.2625 31.8576C30.3877 32.0376 30.4914 32.2213 30.5844 32.4158C30.613 32.4807 30.6917 32.5419 30.6738 32.6031C30.6309 32.7328 30.7954 32.6788 30.8025 32.7652C30.8097 32.8372 30.9063 32.8841 30.9063 32.9489C30.8955 33.1902 31.0636 33.3415 31.2103 33.4531C31.3462 33.5612 31.5143 33.644 31.5715 33.7953C31.6359 33.9394 31.7181 34.069 31.829 34.1735C31.9363 34.2779 32.0543 34.3716 32.1616 34.476C32.3726 34.7029 32.6408 34.865 32.884 35.0487C32.9842 35.1243 33.0736 35.2396 33.2417 35.1856C33.2775 35.1748 33.3168 35.218 33.3454 35.2468C33.4134 35.3152 33.467 35.4089 33.5457 35.4593C33.6244 35.5133 33.7388 35.4989 33.8282 35.5205C33.9033 35.5385 33.9605 35.5854 34.0607 35.5529C34.1322 35.5313 34.2038 35.6106 34.2538 35.7186C34.354 35.9275 34.4899 36.1184 34.7152 36.1796C34.8153 36.2049 34.9119 36.2445 35.012 36.2769C35.1122 36.3057 35.2123 36.3345 35.316 36.3561C35.4019 36.3741 35.4805 36.4066 35.5843 36.3633C35.6773 36.3237 35.806 36.3886 35.899 36.4426C36.0456 36.5362 36.1923 36.5686 36.3568 36.511C36.414 36.493 36.4784 36.5002 36.5356 36.511C36.7144 36.529 36.8968 36.529 37.0756 36.5398C37.258 36.5506 37.4369 36.565 37.6193 36.547C37.7051 36.5434 37.7981 36.511 37.8732 36.6083C37.9233 36.4858 38.0163 36.5218 38.0949 36.5254C38.213 36.5362 38.331 36.5722 38.449 36.5614C38.5885 36.5506 38.7244 36.5218 38.846 36.4282C38.9604 36.3489 39.1321 36.421 39.243 36.2877C39.2644 36.2625 39.3324 36.3165 39.3682 36.3021C39.5112 36.2373 39.7115 36.3021 39.8009 36.1076C39.8081 36.0896 39.8403 36.0788 39.8581 36.086C40.0763 36.1833 40.2086 35.9996 40.3588 35.8987C40.5233 35.7979 40.7308 35.8303 40.9025 35.7474C41.0992 35.6502 41.278 35.5097 41.4818 35.4521C41.6607 35.4053 41.8252 35.326 41.9754 35.2324C42.1184 35.1243 42.2544 35.0091 42.401 34.9082C42.5548 34.8074 42.6943 34.6885 42.8266 34.5625C42.9589 34.4364 43.102 34.3175 43.22 34.1771C43.3237 34.0546 43.3845 33.8961 43.4811 33.7737C43.592 33.6368 43.7064 33.5036 43.8101 33.3595L44.107 32.9597C44.1499 32.8949 44.1534 32.794 44.275 32.7904C44.3001 32.7904 44.3323 32.7508 44.3287 32.7256C44.3072 32.5419 44.3823 32.4338 44.5469 32.3582C44.5934 32.3366 44.5933 32.2682 44.6291 32.2285C44.7257 32.1241 44.6899 31.9728 44.715 31.8468C44.7364 31.7315 44.8973 31.6559 44.7865 31.4974C44.7722 31.4758 44.7901 31.4217 44.8151 31.4145C45.1334 31.2849 44.833 30.8995 45.1155 30.7518C44.9975 30.6222 45.1799 30.5753 45.1799 30.4997C45.1763 30.388 45.162 30.28 45.1906 30.1755C45.2228 30.0783 45.2407 29.9738 45.2479 29.873C45.2586 29.6857 45.3516 29.5056 45.2622 29.3075C45.2335 29.2427 45.2085 29.1238 45.3301 29.059C45.3516 29.0482 45.3516 29.005 45.3444 28.9798C45.3086 28.7745 45.4517 28.5295 45.6663 28.4719C45.7915 28.4395 45.9453 28.4431 46.074 28.4719C46.1384 28.4863 46.1741 28.5836 46.2171 28.6484C46.2922 28.7601 46.3995 28.8681 46.4281 28.9942C46.4567 29.1418 46.4281 29.2967 46.403 29.484H46.3959Z" fill="#00C573"/>
<path d="M28.553 29.0374C28.4922 29.0374 28.4313 29.0266 28.3706 29.0446C28.3491 29.0518 28.3241 28.969 28.3026 29.1346C28.2919 29.2175 28.2704 29.0194 28.2489 29.0302C28.1917 29.0518 28.1381 29.023 28.0809 29.041C28.0272 29.059 27.97 29.1274 27.9163 29.149C27.8627 29.1671 27.8055 29.077 27.7554 29.1779C27.7089 29.2643 27.6696 29.1094 27.6266 29.1454C27.5801 29.1851 27.5336 29.2103 27.4872 29.1346C27.455 29.0806 27.4228 29.0122 27.3906 29.0482C27.3691 29.0698 27.3512 29.1671 27.3298 29.1599C27.3083 29.1526 27.2869 29.0698 27.269 29.2643C27.269 29.2823 27.2583 29.2463 27.2547 29.2175C27.2332 29.0914 27.2046 29.0986 27.1867 29.1851C27.1689 29.2679 27.151 29.2571 27.1367 29.2607C27.0902 29.2715 27.0437 29.2787 26.9972 29.2607C26.9614 29.2463 26.9292 29.1743 26.8935 29.1563C26.8577 29.1382 26.8184 29.2247 26.7862 29.131C26.754 29.0374 26.7218 29.041 26.6896 29.041C26.6717 29.041 26.6503 28.9509 26.6324 29.149C26.6324 29.1671 26.6252 29.1635 26.6217 29.149C26.568 28.8933 26.5179 29.2283 26.4607 29.1671C26.4035 29.1022 26.3499 29.149 26.2926 29.1563C26.2783 29.1563 26.2604 29.1022 26.2461 29.2427C26.2426 29.2931 26.2247 29.2967 26.2175 29.2607C26.1746 29.0662 26.1317 29.1851 26.0888 29.1526C26.0387 29.1166 25.9922 29.2067 25.9421 29.0554C25.9207 28.9906 25.8921 28.9582 25.867 29.1382C25.8563 29.2211 25.8313 29.1382 25.8134 29.1563C25.7991 29.1707 25.7848 29.2571 25.7705 29.2571C25.7597 29.2571 25.7454 29.1851 25.7347 29.1526C25.7311 29.1418 25.7275 29.1418 25.724 29.1526C25.6524 29.3579 25.5809 29.0842 25.5094 29.1382C25.4379 29.1959 25.3663 29.1707 25.2912 29.1418C25.2519 29.1274 25.209 29.0698 25.1839 28.7168C25.1732 28.5584 25.1732 28.3891 25.1875 28.2882C25.1982 28.2126 25.2125 28.1442 25.2268 28.1262C25.2483 28.0973 25.2733 28.0541 25.2948 28.0253C25.3413 27.9641 25.3878 27.802 25.4343 27.8884C25.4486 27.9172 25.4665 27.8236 25.4772 27.9785C25.4772 28.0001 25.4844 28.0109 25.4879 28.0001C25.5523 27.7552 25.6167 27.9173 25.681 27.8992C25.7347 27.8848 25.7884 27.6903 25.8456 27.7732C25.8778 27.5787 25.9135 27.6147 25.9421 27.6723C26.0494 27.8776 26.1603 27.7408 26.2676 27.766C26.3785 27.7948 26.4893 27.766 26.6002 27.7768C26.6181 27.7768 26.636 27.6687 26.6574 27.7552C26.6789 27.8344 26.7039 27.7732 26.7289 27.7732C26.7504 27.7732 26.7754 27.73 26.7969 27.7804C26.8827 27.9821 26.9721 27.8596 27.058 27.8848C27.1438 27.9064 27.2297 27.9245 27.3191 27.8776C27.3727 27.8488 27.4228 27.7408 27.4764 27.7804C27.4979 27.7984 27.5229 27.6939 27.5444 27.874C27.5515 27.9245 27.573 27.7876 27.5873 27.7804C27.6231 27.766 27.6588 27.7768 27.6946 27.7768C27.7447 27.7768 27.7947 27.7912 27.8448 27.7732C27.877 27.7624 27.9056 27.6867 27.9378 27.6687C27.97 27.6507 28.0022 27.6507 28.0344 27.6687C28.0737 27.6903 28.1166 27.7588 28.1559 27.7768C28.1989 27.7948 28.2418 27.712 28.2811 27.7948C28.3562 27.9533 28.4314 27.874 28.5065 27.892C28.5816 27.91 28.6567 27.9245 28.7282 27.8848C28.7711 27.8632 28.8104 28.0181 28.8498 28.0181C28.8677 28.0181 28.8963 28.4719 28.8856 28.6268C28.8856 28.6556 28.882 28.688 28.8784 28.6988C28.8391 28.8429 28.7997 29.0662 28.7532 29.0518C28.6853 29.0302 28.6173 29.0446 28.5494 29.0446L28.553 29.0374Z" fill="#00C573"/>
</svg>
