<svg width="30" height="30" viewBox="0 0 30 30" fill="none" xmlns="http://www.w3.org/2000/svg">
<path d="M11.4174 29.6958C10.5039 29.6958 9.63874 29.2695 9.08434 28.5345L1.58104 18.6204C1.34906 18.3143 1.1797 17.9654 1.08264 17.5937C0.985585 17.222 0.962731 16.8349 1.01539 16.4544C1.06805 16.0739 1.19519 15.7075 1.38953 15.3761C1.58388 15.0448 1.84163 14.755 2.14804 14.5233C2.45435 14.2907 2.80355 14.1208 3.17563 14.0234C3.54772 13.926 3.93537 13.9029 4.31637 13.9556C4.69738 14.0083 5.06424 14.1356 5.39594 14.3303C5.72764 14.5251 6.01764 14.7833 6.24934 15.0903L11.1864 21.6087L23.5995 1.67554C24.0112 1.0174 24.6671 0.549409 25.4234 0.374221C26.1796 0.199033 26.9745 0.330952 27.6336 0.741041C29.0049 1.59364 29.427 3.39964 28.5702 4.77304L13.9038 28.314C13.6535 28.7177 13.3084 29.0542 12.8985 29.2942C12.4886 29.5343 12.0264 29.6707 11.5518 29.6916C11.5056 29.6958 11.4636 29.6958 11.4174 29.6958Z" fill="#00C573"/>
</svg>
