<svg width="28" height="26" viewBox="0 0 28 26" fill="none" xmlns="http://www.w3.org/2000/svg">
<path d="M3 9H25V23C25 23.5304 24.7893 24.0391 24.4142 24.4142C24.0391 24.7893 23.5304 25 23 25H5C4.46957 25 3.96086 24.7893 3.58579 24.4142C3.21071 24.0391 3 23.5304 3 23V9V9Z" stroke="#C0BEB6" stroke-width="1.8" stroke-linecap="round" stroke-linejoin="round"/>
<path d="M27 7V3C27 1.89543 26.1046 1 25 1L3 1C1.89543 1 1 1.89543 1 3V7C1 8.10457 1.89543 9 3 9H25C26.1046 9 27 8.10457 27 7Z" stroke="#C0BEB6" stroke-width="1.8" stroke-linecap="round" stroke-linejoin="round"/>
<path d="M11 15H17" stroke="#C0BEB6" stroke-width="1.8" stroke-linecap="round" stroke-linejoin="round"/>
</svg>
