<svg width="303" height="183" viewBox="0 0 303 183" fill="none" xmlns="http://www.w3.org/2000/svg">
<g clip-path="url(#clip0_1662_1353)">
<path d="M301.517 1.52466H2.9342V180.956H301.517V1.52466Z" fill="white"/>
<path d="M26.6682 0.616447C33.7265 0.616447 39.497 0.648886 45.2512 0.584009C46.1477 0.584009 47.1421 0.324504 48.2831 0.324504C52.7822 0.340723 57.4116 0.0974366 61.7313 0.38938C66.4586 0.713762 71.2021 0.7462 75.7174 0.535352C80.0046 0.340723 84.2265 0.405599 88.4647 0.340723C89.8829 0.324504 91.2847 0.259627 92.8496 0.551571C93.9744 0.762419 96.0609 0.778638 97.5932 0.405599C97.8866 0.340723 98.5386 0.405599 99.0113 0.438038C99.5167 0.470476 100.12 0.632667 100.478 0.584009C104.651 0.0163412 108.987 0.438037 113.209 0.308285C114.269 0.275847 115.41 0.438037 116.307 0.0649984C116.535 -0.0323161 117.562 -0.0485352 117.871 0.0487793C118.686 0.275847 119.502 0.324504 120.512 0.324504H133.585C135.721 -0.178288 138.117 0.0487793 140.399 0.0487793C142.111 0.0487793 143.822 0.227189 145.534 0.324504C147.262 0.421818 149.12 0.113656 150.767 0.535352C151.027 0.600228 151.696 0.470476 152.168 0.470476C154.336 0.438037 156.586 0.275847 158.624 0.438038C159.667 0.519133 160.71 0.600228 161.753 0.600228H202.228C203.402 0.600228 204.527 0.648886 205.766 0.373161C206.744 0.146094 208.863 0.146094 209.792 0.373161C211.308 0.729981 212.726 0.584009 214.16 0.600228C216.834 0.600228 219.507 0.600228 222.164 0.616447C223.745 0.648886 225.506 0.38938 226.891 0.892172C227.022 0.940829 227.527 0.940829 227.706 0.892172C229.467 0.421818 231.162 0.811077 232.923 0.892172C234.194 0.940829 235.482 0.92461 236.884 0.697543C238.237 0.470476 240.503 0.438037 241.758 0.681324C243.437 1.00571 244.985 0.908391 246.55 0.908391H274.376C278.761 0.908391 283.08 0.454257 287.514 0.632667C288.574 0.681324 289.715 0.486695 290.66 0.827296C290.856 0.892172 291.704 0.859734 292.03 0.778638C293.236 0.470476 294.442 0.584009 295.811 0.600228C297.979 0.632667 300.164 0.648886 302.348 0.681324C302.348 3.11419 302.315 5.54705 302.315 7.9637C302.315 10.1046 302.364 12.2131 302.478 14.3054C302.707 19.0089 302.609 23.6151 302.674 28.2538C302.69 29.7946 302.462 31.3678 302.413 32.9411C302.364 34.4657 302.381 36.0227 302.413 37.5473C302.413 38.4556 302.332 39.3801 302.609 40.2721C302.756 40.7587 302.804 42.0724 302.674 42.6077C302.267 44.3918 302.43 46.3218 302.413 48.1708V64.1142C302.397 65.4117 302.593 66.8714 302.169 68.0392C302.103 68.2014 302.25 68.9475 302.283 69.4341C302.332 69.9368 302.446 70.5694 302.397 70.9424C301.843 74.3809 302.152 77.9977 302.136 81.5173C302.136 90.0485 302.104 98.5797 302.087 107.095C302.071 109.479 302.43 111.571 302.413 113.874C302.413 116.113 302.413 118.351 302.413 120.589C302.397 122.179 302.593 123.849 302.152 125.325C302.038 125.73 302.038 126.882 302.152 127.336C302.576 129.104 302.364 131.034 302.43 132.899C302.511 135.17 302.234 137.506 302.69 139.728C302.821 140.328 302.576 141.495 302.56 142.404C302.527 143.993 302.511 145.599 302.527 147.188C302.527 147.951 302.69 148.697 302.707 149.459C302.804 155.347 302.902 161.25 303 167.154V182.416H297.262C291.215 182.416 285.183 182.416 279.136 182.4C276.87 182.384 274.408 182.724 272.322 182.124C270.235 182.481 268.393 182.27 266.584 181.865C266.323 181.8 265.655 181.978 265.166 182.027C263.634 182.173 262.183 182.773 260.487 182.124C260.422 182.108 260.21 182.124 260.08 182.124C258.678 182.027 257.7 182.692 255.907 182.286C254.798 182.043 252.989 182.141 251.489 182.124C249.941 182.108 248.392 182.076 246.86 182.124C245.279 182.189 243.551 181.881 242.068 182.368C241.823 182.449 240.666 182.108 239.965 182.124C236.427 182.238 232.792 181.8 229.32 182.384C228.521 182.514 227.266 182.497 226.419 182.384C223.37 181.962 220.502 182.189 217.372 182.335C213.248 182.546 208.83 182.611 204.804 182.011C203.94 181.881 203.565 181.784 202.701 182.011C202.13 182.157 201.136 182.124 200.321 182.124H173.343C170.898 182.124 168.616 181.67 166.106 181.832C165.079 181.897 163.856 181.67 162.992 182.059C162.878 182.108 162.438 182.141 162.242 182.108C159.227 181.654 156.227 182.303 153.244 182.108C152.609 182.043 151.989 181.995 151.353 181.93C150.701 181.881 149.951 181.767 149.397 181.832C144.8 182.4 140.057 181.978 135.395 182.108C133.814 182.157 132.069 181.897 130.651 182.384C130.439 182.449 129.738 182.449 129.429 182.384C126.706 181.8 123.723 182.254 120.92 182.108C119.469 182.027 117.855 182.351 116.551 181.865C116.388 181.8 115.801 181.865 115.443 181.881C114.823 181.946 114.204 182.092 113.601 182.092C111.922 182.059 110.096 181.8 108.629 181.962C106.803 182.157 105.092 182.076 103.331 182.092C102.337 182.092 101.326 181.881 100.299 181.832C99.3374 181.784 98.343 181.832 97.3487 181.832C95.9468 181.832 94.4797 181.913 93.143 181.816C91.7575 181.703 90.6653 182.205 89.133 181.865C87.9594 181.605 86.6227 182.059 85.3186 182.108C84.6666 182.141 83.9657 182.076 83.3136 182.027C82.8083 181.995 82.3356 181.832 81.8792 181.849C80.8359 181.881 79.809 181.784 78.6842 181.995C77.9018 182.141 76.5325 181.881 75.4077 181.832C74.2993 181.8 73.1582 181.832 72.0335 181.832C70.9087 181.832 69.6861 181.735 68.6755 181.849C64.1928 182.351 59.6285 182.043 55.0969 182.108C53.9395 182.124 52.5866 182.286 51.5759 181.881C51.3966 181.8 50.7283 181.8 50.3859 181.849C46.0825 182.432 41.5998 181.962 37.2312 182.141C34.1177 182.254 31.0531 182.481 27.8745 182.432C24.7936 182.384 21.5987 182.27 18.6319 182.465C16.1868 182.627 13.7743 182.789 11.378 182.676C10.2044 182.627 9.04701 182.805 7.90595 182.919C7.33543 182.968 6.7649 183.016 6.19437 182.984L5.02071 182.903C4.54798 182.854 4.09156 182.789 3.66774 182.708H1.15741C1.15741 180.275 1.15741 177.842 1.15741 175.41C1.19001 173.415 0.994399 171.371 1.41822 169.425C1.56493 168.711 1.56493 167.332 1.41822 166.57C0.978098 164.072 1.10851 161.656 1.32042 159.142C1.36932 158.542 1.15741 157.796 1.15741 157.098C1.14111 155.006 1.0922 152.897 1.15741 150.805C1.33672 144.577 0.847692 138.462 0.847692 132.283C0.847692 131.148 0.505374 129.883 0.603179 128.877C1.14111 122.73 0.586878 116.437 0.896594 110.339C1.36932 101.353 1.027 92.3841 1.14111 83.3987C1.14111 82.2309 1.51603 80.9983 1.40192 80.463C1.0759 78.7438 1.35302 76.7813 1.10851 75.354C0.684683 72.7752 0.961797 70.2126 0.863992 67.6824C0.782488 65.8334 1.0759 63.8385 0.586878 62.1355C0.521675 61.8922 0.521675 61.2434 0.586878 60.919C1.0433 58.1942 0.358667 55.5018 0.586878 52.7933C0.0326497 47.668 0.407569 42.3968 0.293463 37.2067C0.277162 36.4444 0.146756 35.6983 0.0815522 34.9523C0.0489505 34.563 -0.0325537 34.1089 0.0163489 33.8007C0.603179 29.0972 0.146756 24.2314 0.309764 19.463C0.358666 17.8898 0.521675 16.349 0.586878 14.7757C0.652082 13.1862 0.505374 11.5481 0.863992 10.056C0.978098 9.5856 0.912895 8.67733 0.863992 7.99613C0.61948 4.29818 1.40192 1.57337 2.64078 1.52472C3.09721 1.5085 3.11351 2.25458 3.27652 3.04931C3.60253 4.57391 3.81444 6.08228 3.78184 7.93126C3.74924 9.37476 3.61883 10.948 4.04266 12.2293C4.10786 12.4402 4.10786 13.1051 4.04266 13.4457C3.65144 15.911 3.96115 18.6845 3.70034 21.0201C3.50473 22.8204 3.55363 24.4747 3.47213 26.1777C3.40692 27.6212 3.63514 29.1134 3.24391 30.5407C3.11351 31.0272 3.45583 32.4383 3.47213 33.4439C3.50473 35.8119 3.53733 38.2123 3.47213 40.5641C3.29282 47.7653 3.92855 54.8369 3.76554 62.0219C4.31977 67.1472 3.81444 72.4832 4.09156 77.5922C4.41758 83.7879 4.23827 89.9674 4.38497 96.1307C4.41758 97.3958 4.40127 98.4176 4.25457 99.5367C4.15676 100.267 4.05896 101.045 4.05896 101.807C4.05896 104.743 4.05896 107.679 4.04266 110.614C4.01005 112.188 4.30347 113.939 3.78184 115.334C3.71664 115.529 3.71664 116.242 3.78184 116.55C4.30347 119.129 3.97745 121.919 4.04266 124.611C4.07526 125.633 4.04266 126.623 3.86335 127.742C3.66774 128.942 3.68404 130.84 3.86335 132.105C4.01005 133.062 4.01005 133.905 4.05896 134.813C4.23827 138.592 3.70034 142.533 4.33607 146.231C3.78184 148.178 3.96115 150.594 4.09156 152.557C4.59688 160.131 4.22197 167.722 4.31977 175.296C4.31977 176.204 4.27087 177.145 4.22197 178.037C4.15676 178.556 4.09156 179.14 4.05896 179.74V179.805C4.62949 179.821 5.23262 179.837 5.83575 179.837L8.721 179.805C9.76425 179.805 10.9868 179.967 11.8019 179.578C11.8671 179.545 12.0464 179.529 12.1605 179.529C13.2852 179.594 14.41 179.74 15.5184 179.724C16.4965 179.691 17.4093 179.432 18.4037 179.351C19.5937 179.27 20.8488 179.253 22.0714 179.253C23.2613 179.253 24.5328 179.156 25.4783 179.513C26.4074 179.075 27.7767 179.286 28.9503 179.253C30.0588 179.221 31.1999 179.253 32.3246 179.253H36.1227C37.3942 179.253 38.6656 179.286 39.9208 179.253C41.6487 179.189 43.3277 179.026 45.0556 178.978C46.865 178.929 48.707 178.929 50.5326 178.978C52.8148 179.075 55.0806 179.156 57.3464 179.253C58.2919 179.286 59.0906 179.172 60.0197 179.01C61.2423 178.799 62.7909 178.345 64.3721 178.945C64.6818 179.059 65.7902 179.026 66.4097 178.945C71.2836 178.329 76.3206 178.848 81.2434 178.67C83.9657 179.124 86.6064 178.848 89.4101 178.718C93.5506 178.524 97.9518 178.459 102.011 178.718C106.314 179.01 110.52 178.848 114.758 178.945C115.948 178.978 117.236 178.799 118.246 179.221C118.475 179.318 119.387 179.286 119.876 179.221C123.316 178.783 126.658 178.913 130.179 179.189C132.037 179.335 134.123 179.156 136.161 178.994C139.242 178.751 142.583 178.929 145.811 178.929C147.213 179.432 148.289 178.929 149.006 178.702C149.968 178.41 150.864 178.361 151.989 178.345C153.456 178.345 154.891 178.426 156.341 178.102C157.075 177.94 158.738 177.972 159.536 178.151C160.612 178.394 161.003 178.28 161.981 178.118C163.139 177.94 164.329 178.41 165.78 178.378C167.328 178.345 169.138 178.102 170.507 178.637C170.621 178.686 171.11 178.686 171.322 178.637C174.191 178.086 177.043 178.88 179.912 178.637C188.454 179.237 197.11 178.734 205.7 178.945C209.238 179.026 212.808 179.432 216.296 179.189C223.615 178.686 230.983 179.043 238.302 178.945C239.851 178.929 241.644 178.686 243.046 179.205C243.241 179.27 243.958 179.27 244.268 179.205C246.599 178.734 248.849 178.88 251.196 179.205C251.767 179.286 252.826 179.27 253.168 179.14C254.146 178.783 255.271 178.929 256.314 178.929C257.57 178.929 259.232 179.254 259.982 179.075C261.58 178.686 262.492 179.124 263.699 179.189C264.449 179.237 265.28 179.14 266.062 179.075C266.437 179.043 266.894 178.897 267.106 178.929C269.567 179.367 271.996 178.734 274.441 178.929C274.963 178.962 275.517 178.962 276.038 179.01C279.885 179.399 284.238 179.497 289.095 179.302C291.084 179.935 293.431 179.01 295.599 179.481C295.991 179.562 296.578 179.61 297.181 179.594C297.474 179.594 297.784 179.594 298.077 179.562C298.387 179.545 298.68 179.513 298.746 179.481C299.186 179.367 299.528 179.302 299.87 179.253C299.821 178.832 299.805 178.475 299.805 178.102V175.653C299.854 173.901 299.887 172.15 299.805 170.414C299.772 169.506 300.196 168.808 299.854 167.657C299.724 167.219 300.099 165.727 300.082 164.737C300.066 163.294 300.294 161.786 299.887 160.358C299.724 159.774 299.854 158.493 299.821 157.536C299.772 156.222 299.935 154.909 299.593 153.595C299.414 152.881 299.398 151.194 299.561 150.384C300.245 146.994 299.626 143.863 299.381 140.701C299.316 139.744 299.251 139.095 299.349 138.089C299.495 136.695 299.691 134.829 299.479 133.759C299.12 131.845 299.267 130.012 299.251 128.163C299.251 124.952 299.251 121.724 299.235 118.513C299.169 114.847 299.349 111.198 299.006 107.484C298.827 105.489 298.648 102.862 299.218 100.704C299.283 100.461 298.974 99.5853 298.957 99.0014C298.941 94.3952 298.925 89.7728 298.957 85.1666C298.957 84.0961 299.528 82.9283 299.072 81.9552C298.599 80.9172 299.528 79.7818 298.957 78.9222C298.876 78.7925 298.876 77.8193 298.941 77.3327C299.544 71.9156 299.072 66.3686 299.218 60.9028C299.251 59.5891 299.023 58.0969 299.512 57.0589C298.99 53.734 300.066 50.0198 299.218 46.776C299.365 44.3918 298.909 41.8292 299.479 39.526C299.577 39.153 299.43 38.3421 299.512 37.9041C299.789 36.4606 298.925 35.5361 299.381 33.7845C299.642 32.7627 299.479 30.8651 299.495 29.3567V25.1559V20.5497C299.495 19.0089 299.528 17.4681 299.495 15.9435C299.414 12.8456 299.055 9.81267 299.202 6.63373C299.202 6.29313 299.153 5.70924 299.072 5.57949C298.338 3.87648 298.746 4.54147 298.957 4.03868C298.99 3.99002 299.006 3.94136 299.039 3.90892C299.039 3.77917 298.909 3.71429 298.713 3.73051H295.241H291.247C289.666 3.69807 287.987 3.94136 286.471 3.47101C285.998 3.32504 284.727 3.35747 284.026 3.47101C280.684 3.95758 277.212 3.66564 273.822 3.73051C272.289 3.76295 270.724 3.73051 269.192 3.73051C268.018 3.73051 266.845 4.03868 265.671 3.73051C259.95 4.33062 254.098 3.94136 248.311 4.00624C242.557 4.07111 236.786 4.03868 231.032 4.00624C229.597 4.00624 227.984 4.2333 226.696 3.74673C226.451 3.64942 225.408 3.66564 225.098 3.74673C224.251 4.00624 223.631 4.15221 222.686 3.79539C222.507 3.73051 221.724 3.79539 221.3 3.87648C220.127 4.07111 219.067 4.05489 217.844 3.87648C216.899 3.73051 215.611 3.64942 214.666 3.76295C212.172 4.03868 209.792 4.28196 207.298 3.76295C206.988 3.69807 206.14 4.02246 205.586 4.00624C203.435 3.94136 201.234 4.20087 199.082 3.81161C198.202 3.64942 196.914 3.77917 195.822 3.73051C193.947 3.64942 192.154 3.92514 190.166 3.76295C188.161 3.60076 185.976 3.73051 183.874 3.73051H152.266C150.783 3.73051 149.43 3.66564 147.946 3.47101C144.148 2.96822 139.552 3.04931 133.928 3.43857C133.52 3.47101 133.08 3.43857 132.673 3.43857C127.196 3.43857 121.686 3.53588 116.241 3.38991C113.845 3.32504 111.449 3.11419 108.987 3.14663C107.39 3.17906 105.825 3.09797 104.228 3.40613C102.891 3.66564 101.033 3.22772 99.4841 3.68186C98.9135 3.84405 97.4139 3.84405 96.664 3.69807C94.1537 3.24394 91.5293 3.48723 88.97 3.43857C86.0196 3.38991 83.0691 3.40613 80.1187 3.43857C78.6679 3.43857 77.2171 3.2926 75.75 3.68186C75.0165 3.86027 73.2723 3.74673 72.2128 3.58454C70.5664 3.34125 68.9363 3.38991 67.3877 3.48723C64.0786 3.71429 64.0949 3.74673 60.8185 3.48723C60.4273 3.45479 60.0034 3.45479 59.5959 3.45479C55.5207 3.45479 51.3477 3.27638 47.4029 3.50345C44.1101 3.69807 40.8826 3.71429 37.6061 3.73051C36.302 3.73051 34.8023 3.95758 33.7102 3.47101C33.5472 3.40613 32.8136 3.40613 32.5039 3.47101C29.7817 4.00624 26.8149 3.71429 23.9786 3.73051C21.2237 3.73051 18.7134 4.16843 15.8934 4.05489C13.2526 3.95758 10.563 4.03868 7.88965 4.03868C3.83075 4.03868 2.9668 3.74673 2.9831 2.41677C2.9831 1.31387 4.01005 1.0868 7.27022 0.843515C14.1655 0.356942 21.1096 0.713762 26.7171 0.584009L26.6682 0.616447Z" fill="#7A7971"/>
<path d="M18.3059 13.105C20.3761 14.3863 22.0551 15.4405 23.783 16.4299C24.0601 16.5758 24.4839 16.5434 24.8099 16.7543C26.1303 17.5814 27.6137 18.214 28.7221 19.2358C29.9447 20.3549 31.3139 21.2469 32.7484 21.8795C34.1177 22.4958 35.3239 23.3068 36.5954 24.0204C37.0192 24.2637 37.4594 24.4745 37.7691 24.9936C37.9973 25.3828 38.5841 25.7721 39.2361 25.7234C39.3666 25.7234 39.5133 25.9018 39.6274 26.0154C39.7578 26.1451 39.8556 26.3884 39.986 26.4046C41.5183 26.6641 42.5615 27.8157 43.8819 28.4644C44.2079 28.6266 44.4524 28.9672 44.9251 28.8213C45.0392 28.7726 45.349 28.951 45.3979 29.0808C45.512 29.4214 45.7239 29.616 46.0336 29.7944L49.8806 32.1462C50.7608 32.1137 51.364 32.7301 52.0323 33.1518C52.5376 33.4599 52.9452 33.9141 53.4016 34.3033C53.858 34.6926 54.5752 34.7574 54.8198 35.4386C54.8687 35.5522 55.1295 35.5522 55.2762 35.6333C55.9282 35.9901 56.6781 36.2658 57.1834 36.7686C57.4442 37.0281 57.705 37.2876 58.0147 37.4823L69.9143 44.7808C70.2566 44.9917 70.5664 45.235 71.0717 45.2188C71.4792 45.2188 72.0986 45.5756 72.2617 45.9324C72.5225 46.5163 73.0115 46.646 73.419 46.9218C74.1852 47.4408 75.0002 47.8625 75.7663 48.3815C76.2227 48.6896 76.8748 48.787 77.0215 49.4682C77.0215 49.533 77.1845 49.6304 77.266 49.6141C78.0322 49.5168 78.3256 50.1656 78.8146 50.5386C79.1732 50.8143 79.5481 51.0414 80.0861 51.0901C80.6077 51.1387 81.2923 51.5118 81.5368 51.9497C81.8628 52.5336 82.3682 52.712 82.8246 53.0039C85.5305 54.7069 88.2528 56.3775 91.0076 58.0318C92.3117 58.8104 93.8114 59.2158 95.0176 60.1728C95.311 60.3998 95.7349 60.4485 95.8327 60.9188C95.849 61.0162 96.1261 61.1297 96.2728 61.1135C96.7944 61.0648 97.0878 61.3892 97.479 61.6487C99.2558 62.8165 101.016 64.114 102.94 64.9574C104.456 65.6224 105.76 66.5306 107.162 67.3092C107.634 67.5687 107.977 68.0552 108.417 68.3796C108.841 68.704 109.313 68.9635 109.77 69.223C110.047 69.3852 110.259 69.6285 110.683 69.5636C110.911 69.5312 111.318 69.7258 111.416 69.9204C111.726 70.5854 112.378 70.8125 112.932 71.1531L117.627 74.0563C118.002 74.2996 118.54 74.3807 118.67 74.9646C118.686 75.0457 118.98 75.0619 119.143 75.1105C119.322 75.1592 119.567 75.1754 119.648 75.289C120.382 76.3756 121.604 76.7649 122.631 77.4299C125.125 79.0193 127.684 80.4953 130.162 82.101C130.863 82.5551 131.662 82.62 132.33 83.0579C132.982 83.4796 133.667 83.8526 134.303 84.2906C134.759 84.5987 135.362 84.7285 135.558 85.3772C135.607 85.5556 135.949 85.7503 136.161 85.7503C136.911 85.7016 137.367 86.2531 137.954 86.5288C138.671 86.8694 139.209 87.5344 140.106 87.5506C140.35 87.5506 140.562 87.9723 140.823 88.1507C141.279 88.4751 141.736 88.767 142.225 89.0427C142.453 89.1725 142.763 89.1725 142.991 89.3023C144.784 90.2754 146.626 91.2485 148.338 92.2541L149.071 92.6758L152.201 90.8268C153.994 89.7564 155.771 88.6697 157.58 87.6479C158.265 87.2586 158.819 86.545 159.732 86.6748C160.172 86.0098 160.824 85.8638 161.574 85.88C161.688 85.88 161.786 85.6205 161.916 85.4908C162.291 85.0853 162.422 84.323 163.253 84.5825C163.286 84.5825 163.334 84.5338 163.383 84.5176C163.84 84.3554 163.791 83.6094 164.524 83.6418C164.981 83.6418 165.454 83.2525 165.91 83.0092C166.383 82.7497 166.855 82.5064 167.279 82.1821C167.719 81.8577 168.388 81.809 168.567 81.1278C168.6 81.0143 169.121 81.0954 169.317 80.9656C170.295 80.2358 171.615 79.9763 172.332 78.8734C172.495 78.6139 172.887 78.403 173.196 78.3544C174.321 78.176 175.055 77.4785 175.902 76.7973C177.011 75.8891 178.282 75.0457 179.798 74.851C180.124 74.8024 180.287 74.8348 180.434 74.4942C180.532 74.2672 180.842 74.1212 181.086 73.9752L189.073 69.2068C189.791 68.7689 190.72 68.7689 191.372 68.185C191.649 67.9417 192.122 67.9255 192.171 67.4389C192.171 67.374 192.285 67.2605 192.366 67.2605C193.491 67.1145 194.045 66.0279 195.04 65.671C195.251 65.5899 195.48 65.5575 195.692 65.4926C195.904 65.4115 196.197 65.3791 196.327 65.2331C197.403 63.9356 199.017 63.4652 200.337 62.5245C200.777 62.2001 201.429 62.1191 201.609 61.4541C201.641 61.3568 201.853 61.2432 201.967 61.2432C203.076 61.2432 203.728 60.3512 204.641 59.9781C205.113 59.7835 205.423 59.2321 206.059 59.4105C206.14 59.4267 206.287 59.2807 206.369 59.1996C206.532 59.0374 206.629 58.7941 206.809 58.6968C207.314 58.4211 207.999 58.3238 208.357 57.9345C208.797 57.448 209.352 57.2047 209.857 56.8965C210.15 56.7181 210.558 56.7181 210.884 56.5883C211.194 56.4586 211.471 56.2477 211.764 56.0693C212.188 55.826 212.563 55.4854 213.019 55.3395C213.492 55.1935 213.557 54.5772 214.177 54.5934C214.649 54.5934 214.812 53.9771 215.171 53.7013C215.35 53.5716 215.579 53.4905 215.807 53.4256C215.97 53.377 216.198 53.4256 216.328 53.3283C216.622 53.1175 216.964 53.0201 217.192 52.6309C217.355 52.3714 217.893 52.3552 218.252 52.193C218.594 52.0308 218.92 51.8037 219.246 51.6091C219.572 51.4145 219.996 51.2847 220.224 51.009C221.3 49.7925 222.8 49.2411 224.12 48.3815C224.463 48.1544 224.772 47.7814 225.278 47.9598C225.375 47.9922 225.571 47.8787 225.653 47.7814C226.614 46.5163 228.195 46.127 229.402 45.2188C230.266 44.57 231.048 43.8239 232.026 43.3211C232.972 42.8183 233.966 42.348 234.748 41.6506C235.384 41.0829 236.02 40.5152 236.786 40.1908C237.536 39.8665 237.764 38.7473 238.824 38.942C239.525 38.5203 240.225 38.0824 240.943 37.6769C241.546 37.3525 242.067 36.8173 242.866 36.8335C243.16 36.8335 243.567 36.5902 243.714 36.3307C244.235 35.5035 245.018 35.1954 245.882 34.9359C246.094 34.871 246.208 34.5628 246.404 34.4331C247.023 34.0438 247.626 33.6383 248.278 33.3139C250.218 32.357 251.799 30.8649 253.641 29.762C253.983 29.5511 254.179 29.0483 254.521 28.951C256.624 28.3185 258.222 26.729 260.194 25.918C263.112 24.7178 265.606 22.8364 268.344 21.3443C268.703 21.1496 269.241 21.2307 269.355 21.0523C269.697 20.4684 270.431 20.3549 270.724 19.9008C271.279 19.0736 272.175 18.8627 272.876 18.3275C273.381 17.9382 274.131 17.8247 274.392 17.1111C274.425 17.0138 274.62 16.9002 274.751 16.9002C275.794 16.8029 276.25 15.7487 277.163 15.4567C278.402 14.0781 280.163 13.4618 281.646 12.44C281.858 12.294 282.021 12.0507 282.216 11.8561C282.314 11.7588 282.412 11.6128 282.526 11.5966C284.221 11.256 285.444 10.0071 286.944 9.29347C287.433 9.06641 287.987 8.92043 288.476 8.69337C288.981 8.4663 289.389 8.0446 290.025 8.09326C290.22 8.09326 290.465 7.89863 290.644 7.73644C291.606 6.87683 292.812 7.05524 293.48 8.10948C293.725 8.48252 293.513 8.64471 293.35 8.93665C293.057 9.4881 292.714 9.92602 292.144 10.2342C291.704 10.4612 291.166 10.6234 291.003 11.2235C290.97 11.3209 290.774 11.4344 290.644 11.4344C289.715 11.5479 289.047 12.294 288.215 12.4886C287.579 12.6346 287.107 12.9752 286.552 13.2023C286.096 13.3969 285.754 13.851 285.134 13.7699C284.922 13.7375 284.678 14.289 284.384 14.4836C283.7 14.9377 282.999 15.3756 282.265 15.7487C280.032 16.8678 278.255 18.6843 276.022 19.8197C274.783 21.1983 272.941 21.7173 271.556 22.8526C269.877 24.2313 267.953 25.172 266.193 26.4046C265.834 26.6479 265.524 26.8263 265.117 26.9074C264.856 26.9561 264.563 27.0047 264.334 27.1345C263.454 27.6373 262.59 28.2049 261.694 28.6753C261.221 28.9348 260.83 29.4862 260.145 29.2916C260.047 29.2592 259.852 29.3889 259.786 29.5025C259.281 30.4107 258.287 30.6216 257.521 31.1568C257.227 31.3677 256.918 31.5136 256.494 31.5623C256.037 31.6109 255.483 31.9515 255.19 32.3408C254.978 32.6327 254.733 32.7787 254.472 32.9896C253.429 33.8167 251.995 34.06 251.212 35.244C250.348 35.1143 249.729 35.6982 249.207 36.1685C247.219 37.9526 244.757 38.9744 242.557 40.4017C242.019 40.7423 241.35 40.872 240.78 41.164C240.177 41.4721 239.606 41.829 239.036 42.202C238.726 42.3966 238.269 42.4615 238.237 42.9481C238.237 42.9805 238.188 43.0292 238.155 43.0454C237.797 43.1914 237.373 43.2562 237.063 43.4833C236.786 43.6779 236.656 44.0672 236.395 44.3105C236.085 44.6024 235.726 44.8295 235.352 45.0404C235.009 45.2512 234.683 45.5594 234.21 45.4296C234.162 45.9811 233.64 46.0297 233.314 46.2568C233.004 46.4838 232.646 46.6623 232.32 46.8569L231.195 47.5219C230.82 47.7489 230.429 47.9436 230.07 48.2031C229.597 48.5599 229.174 48.9978 228.684 49.3384C228.179 49.6952 227.625 50.0196 227.071 50.3116C226.37 50.6684 225.62 50.9441 224.903 51.2847C224.609 51.4307 224.43 51.6577 224.234 51.9497C223.974 52.3389 223.762 53.0039 222.979 52.7769C222.832 52.7282 222.506 52.9553 222.376 53.1337C221.251 54.5285 219.491 54.9664 218.122 55.9882C217.078 56.0693 216.443 56.783 215.676 57.3831C214.552 58.2751 213.28 59.1185 211.944 59.6051C210.525 60.1241 209.352 60.9999 208.048 61.6649C207.673 61.8433 207.379 62.2326 206.874 62.0542C206.76 62.0217 206.499 62.2001 206.385 62.3299C205.586 63.303 204.527 63.7896 203.353 64.1789C202.734 64.3735 202.196 64.8925 201.674 65.3953C200.892 66.1414 199.799 66.5793 198.838 67.147C198.153 66.9523 198.104 67.6011 198.006 67.9093C197.876 68.331 197.631 68.5418 197.305 68.7364C196.882 68.9959 196.409 69.1744 196.148 69.7258C196.018 70.0015 195.512 70.261 195.186 70.2448C194.746 70.2448 194.681 70.3908 194.485 70.699C194.241 71.0558 193.638 70.8611 193.214 71.1369C192.774 71.4288 192.366 71.964 191.682 71.7532C191.616 71.737 191.486 71.8181 191.437 71.8992C190.867 72.8723 189.611 72.6939 188.894 73.4075C186.041 74.3969 183.743 76.3594 181.102 77.6894C180.01 78.2408 178.739 78.5328 177.842 79.3599C175.935 81.0954 173.571 82.0848 171.452 83.4634C170.996 83.7553 170.588 84.2743 169.92 84.0797C169.822 84.0473 169.61 84.177 169.561 84.2906C169.121 85.1015 168.371 85.3772 167.507 85.5232C167.296 85.5556 166.986 85.7503 166.953 85.9287C166.855 86.399 166.432 86.4801 166.122 86.6585C165.747 86.8694 165.095 86.9018 164.965 87.1776C164.687 87.7939 164.198 87.583 163.807 87.729C163.563 87.8263 163.367 88.0534 163.171 88.248C163.074 88.3291 163.025 88.5562 162.943 88.5562C161.981 88.621 161.59 89.5942 160.775 89.8699C160.596 89.9348 160.433 90.0321 160.27 90.0808C158.933 90.4268 157.597 91.1134 156.26 92.1406C155.347 91.946 155.135 93.1624 154.239 93.13C153.913 93.13 153.489 93.4219 153.26 93.6976C152.82 94.2329 152.282 94.6221 151.712 94.9627L150.457 95.6764C150 95.9359 149.56 96.1791 149.104 96.4549L148.338 96.0332C147.881 95.7899 147.735 95.206 147.066 95.206C146.708 95.1411 146.496 94.5735 146.202 94.4113C145.762 94.168 145.436 93.6976 144.8 93.7949C144.54 93.8274 144.23 93.4868 143.936 93.3408C143.529 93.1462 143.219 92.7731 142.649 92.8218C142.339 92.8542 141.834 92.5461 141.687 92.2541C141.035 91.0701 139.796 91.0215 138.736 90.6484C138.41 90.5349 138.182 90.47 137.954 90.2105C137.612 89.8375 137.172 89.3347 136.748 89.3185C135.998 89.2698 135.525 88.8157 134.971 88.5075C134.009 87.9561 133.08 87.3235 132.102 86.7721C130.994 86.1557 129.999 85.3448 128.728 84.9555C128.043 84.7447 127.179 84.4203 126.837 83.5445C126.804 83.4472 126.38 83.5445 126.201 83.4472C124.832 82.6362 123.446 81.809 122.11 80.9332C121.8 80.7386 121.751 80.0574 121.229 80.252C120.675 80.4628 120.838 79.4735 120.268 79.7979C120.186 79.8465 119.909 79.6681 119.795 79.5221C118.507 78.03 116.616 77.4299 115.084 76.2945C114.709 76.0188 114.155 75.9539 114.09 75.3538C112.834 75.1916 112.313 73.6022 110.895 73.7319C110.259 73.1805 109.265 73.0994 108.89 72.1911C108.824 72.0451 108.515 72.0127 108.433 71.8667C108.156 71.3639 107.423 71.9316 107.145 71.2342C106.982 70.8287 106.33 70.6179 105.907 70.3259L104.668 69.5636L103.298 68.7202C102.842 68.4445 102.402 68.1363 101.929 67.8931C100.967 67.4065 99.8916 67.147 99.0276 66.4496C98.9298 66.3685 98.7342 66.3198 98.6364 66.3685C97.9355 66.8064 97.6747 66.1576 97.479 65.7846C97.316 65.4764 97.1204 65.2656 96.8433 65.0872C96.0609 64.6168 95.2458 64.1464 94.496 63.6274C94.0396 63.3193 93.4201 63.222 93.2245 62.557C93.1593 62.3461 92.7681 62.1515 92.5073 62.1028C91.2684 61.9082 90.4045 61.0486 89.3612 60.4809C88.8885 60.2376 88.4484 59.9295 87.992 59.6538C87.6496 59.4267 87.1443 59.4916 86.9487 59.0212C84.96 58.5022 83.444 57.1074 81.6998 56.118C79.9719 55.1448 78.293 54.0582 76.614 53.0039C76.1901 52.7444 75.6033 52.6471 75.4729 51.9983C75.4566 51.8686 75.1469 51.6902 75.0002 51.7226C74.609 51.8037 74.3482 51.8037 74.2667 51.3334C74.2504 51.2523 73.9732 51.1712 73.8102 51.1549C73.3538 51.1063 73.0604 50.8954 72.7996 50.5224C72.5877 50.2305 72.2617 49.9223 71.9356 49.8412C71.0554 49.6304 70.2403 49.4033 69.7676 48.5112C69.7187 48.3977 69.2786 48.5275 69.1319 48.4139C68.5288 47.976 67.7463 47.7976 67.3225 47.084C67.1432 46.792 66.7031 46.6623 66.4096 46.419C65.9043 46.0135 65.236 45.9162 64.7307 45.4296C64.2253 44.943 63.5081 44.6511 62.8887 44.2618L61.0304 43.1265L59.1721 41.9912L57.3138 40.8558L55.4555 39.7205L53.5972 38.5852C53.1734 38.3094 52.7984 38.0175 52.4561 37.5958C51.6085 36.4929 50.2229 35.7144 48.3483 35.0332C48.2179 34.9845 48.1038 34.8872 47.9734 34.8061C46.3596 33.8167 44.6969 32.9085 43.1646 31.8056C42.4963 31.319 41.9095 30.7027 41.1596 30.2972C40.6706 30.0215 40.2631 29.6809 39.6274 29.6647C39.1057 29.6484 38.7797 28.9348 38.0951 29.0321C37.8343 29.0645 37.3942 28.7888 37.2474 28.5455C36.7421 27.7021 35.8456 27.4264 35.112 26.9398C34.2644 26.3722 33.4004 25.8532 32.5039 25.3504C32.0638 25.1071 31.7215 24.7178 31.0857 24.7665C30.776 24.7989 30.3359 24.3772 30.0914 24.0366C29.7328 23.5338 29.2274 23.2743 28.7221 23.0797C27.63 22.6742 27.6137 22.7067 26.7986 21.8795C26.7008 21.7822 26.5704 21.7011 26.4563 21.6362C25.2663 20.9063 24.1253 19.9981 22.8375 19.4791C21.7617 19.0574 20.7999 18.4735 19.8382 17.9058C19.4469 17.6787 18.8927 17.5814 18.8275 16.9813C18.8275 16.9002 18.5993 16.7705 18.4689 16.7543C17.393 16.7056 16.6595 15.9433 15.8281 15.4405C15.0131 14.9539 14.0514 14.8566 13.2689 14.2565C12.5517 13.6888 11.704 13.2834 10.9216 12.7968C9.73163 12.0669 9.63383 11.6615 10.3348 10.5261C10.9216 9.58542 11.3454 9.5692 12.4213 9.97468C14.7034 10.8018 16.5617 12.3589 18.2733 13.2509L18.3059 13.105Z" fill="#7A7971"/>
<path d="M153.064 70.4362L164.433 67.1377L165.55 78.8798L175.946 84.5627L168.379 93.6517L171.712 104.964L159.911 106.075L154.199 116.419L145.064 108.908L133.695 112.206L132.578 100.464L122.182 94.7811L129.732 85.6921L126.416 74.3802L138.218 73.2687L143.929 62.9248L153.064 70.4362Z" fill="#00C573"/>
<path d="M143.875 69.0201L140.02 75.9937L135.731 76.4419C134.596 76.5853 133.389 76.2984 132.29 77.2306C132.146 77.3382 131.966 77.3741 131.768 77.3741C131.678 77.3561 131.678 77.2665 131.587 77.1769C131.443 76.9976 131.173 76.8004 131.011 76.8363C130.741 76.89 130.488 76.9259 130.2 76.9617L130.416 77.7864L130.542 78.1987L130.849 79.1309C131.173 80.081 131.515 81.0312 131.858 81.9813L132.128 82.6804L132.542 83.8995L133.425 86.4989L130.921 89.7078C130.074 90.8014 129.119 91.8232 128.2 92.863L127.876 93.2215C127.876 93.2215 127.804 93.3291 127.768 93.3829C127.714 93.4904 127.714 93.598 127.822 93.6518C127.894 93.6876 127.93 93.7056 127.912 93.7414C128.02 93.7773 127.948 93.849 127.966 93.9745C127.966 94.0282 128.002 94.0999 128.056 94.1537C128.074 94.1896 128.11 94.2075 128.146 94.2254H128.2L128.489 94.3868C129.479 94.8349 130.488 95.2831 131.443 95.803C132.02 96.1078 134.362 97.4164 135.822 98.3666C135.822 98.7072 135.822 99.0478 135.84 99.3705C135.93 103.046 135.659 103.888 136.002 105.699C136.056 105.95 136.128 106.201 136.218 106.452C136.29 106.649 136.416 107.079 136.47 107.025C136.614 107.115 136.722 107.133 136.722 107.223C136.722 107.294 136.614 107.473 136.632 107.563C136.65 107.635 136.794 107.617 137.209 107.025C137.209 107.025 137.209 107.025 137.209 107.007C137.245 106.954 137.119 107.151 137.047 107.294C136.704 108.047 137.299 107.832 137.335 107.384C137.335 107.276 137.353 107.187 137.353 107.133C137.317 107.133 137.425 107.061 137.533 107.007L137.821 106.882C138.218 106.721 138.632 106.613 139.029 106.488L141.443 105.735L145.947 104.426L149.028 107.025L149.389 107.348L149.623 107.581L150.091 108.047L151.01 108.997L151.929 109.965C152.235 110.27 152.65 110.664 152.56 110.629C152.74 110.88 152.92 110.682 153.082 110.987C153.118 110.987 153.154 111.041 153.226 111.095C153.406 111.274 153.587 111.166 153.731 111.005C153.803 110.933 153.875 110.826 153.929 110.718L154.433 109.804C154.884 108.979 155.821 108.226 155.334 107.079C155.28 106.972 155.478 106.667 155.623 106.559C155.767 106.488 156.037 106.183 156.271 105.896C156.505 105.609 156.704 105.34 156.92 105.053C157.316 104.48 157.677 103.906 158.001 103.279C158.794 103.189 159.586 103.063 160.379 102.92L161.604 102.687C161.965 102.615 162.109 102.561 162.361 102.49C163.28 102.239 164.217 102.024 165.19 102.042H165.965H166.343C166.379 102.042 166.397 102.042 166.415 102.042C166.505 102.06 166.613 102.06 166.703 102.042C166.902 102.042 167.064 101.988 167.208 101.934L167.028 101.522C167.028 101.522 167.226 101.199 166.505 101.271C166.469 101.271 166.415 101.271 166.361 101.289C166.307 101.217 166.235 101.074 166.199 100.948C166.109 100.679 166.055 100.392 166.091 100.177C166.235 99.1733 166.091 98.2411 165.838 97.3268C165.37 95.8209 164.92 94.3151 164.451 92.8271L165.478 91.6439L166.613 90.3532L167.442 89.3672L168.613 87.9331C169.01 87.449 169.424 87.0009 169.874 86.5527C169.964 86.463 170.127 86.3017 170.181 86.2658L170.307 86.23L170.667 86.1583C171.1 86.1045 171.82 85.5129 170.883 85.495H170.613C169.946 85.6205 170.379 85.3874 170.109 85.3516C170.019 85.3516 169.874 85.4054 169.766 85.4771C169.712 85.5129 169.676 85.5488 169.64 85.5846L169.604 85.6205L169.478 85.5667C168.919 85.2799 168.541 84.6524 168.073 84.2042C167.928 84.0608 167.73 83.9533 167.532 83.9174C166.793 83.7381 166.235 83.5589 165.442 83.1824C164.235 82.5729 163.046 81.9096 161.911 81.2463C161.785 79.1488 161.676 76.5673 161.731 75.8861C161.731 74.7746 161.694 73.6632 161.514 72.5517V72.4083L161.478 72.3903V72.3366L161.406 72.2469L161.334 72.0856C161.298 71.978 161.28 71.8884 161.262 71.7629C161.136 71.7988 161.028 71.8167 160.902 71.8167H160.686H160.631C160.631 71.8167 160.613 71.8167 160.451 71.8525L159.731 72.0318C157.749 72.5158 155.659 72.8385 153.839 71.5299C153.028 70.9383 152.776 70.1315 153.461 69.4145C153.965 68.8767 154.56 68.3568 155.244 68.052C156.307 67.568 157.37 67.084 158.415 66.6179L159.1 66.3131L160.127 65.8829L162.307 64.9686C163.821 64.3591 165.46 63.7316 167.046 63.2655C167.118 64.0902 167.172 64.9865 167.172 65.9008C167.172 67.2274 167.748 68.5181 167.1 69.8626C167.01 70.0419 166.992 70.5259 167.064 70.7411L167.298 71.4223C167.37 71.6733 167.442 71.9063 167.496 72.0139C167.604 72.3186 167.694 72.6234 167.784 72.9282C167.947 73.5377 168.055 74.1651 168.145 74.7746L168.235 75.7068C168.253 75.9758 168.289 76.4598 168.271 76.4419L168.235 77.0514C168.451 77.2127 168.541 77.3024 168.955 77.4995C170.199 78.1449 171.55 78.5752 172.847 79.0592C173.063 79.113 173.802 79.4715 174.343 79.7225L176.09 80.583C177.243 81.1746 178.379 81.82 179.388 82.4832C180.27 82.6984 181.153 83.0031 182 83.3258C180.991 85.1185 178.937 87.3415 177.261 89.0266L175.874 90.4249C175.604 90.6938 175.514 90.7835 175.388 90.891L175.027 91.2316C174.541 91.6977 174.072 92.1638 173.604 92.6658L172.361 94.0462C172.271 94.1358 172.181 94.2434 172.109 94.333C172.145 94.4764 172.199 94.6019 172.253 94.7274L172.901 96.7531L173.532 98.8147L174.541 102.311L176.108 107.868L162.019 109.194L161.839 109.481C161.839 109.481 161.839 109.499 161.821 109.571L161.694 109.894L161.478 110.557C161.334 111.005 161.118 111.453 160.667 111.83C160.235 112.188 159.929 112.708 159.659 113.282C159.442 113.712 159.226 114.16 159.01 114.608C158.74 115.128 158.469 115.63 158.217 116.132C157.244 117.889 156.271 120.094 155.244 121.439L155.208 121.492C153.767 120.022 152.47 118.767 151.208 117.602L149.317 115.917L147.893 114.698C147.136 114.071 146.362 113.461 145.587 112.852L145.01 112.403L144.812 112.26L144.452 111.991C144.308 112.027 144.182 112.063 144.037 112.099L143.839 112.134L143.299 112.278L142.038 112.619L139.515 113.3L135.479 114.465L131.281 115.72C131.101 114.214 130.921 112.708 130.741 111.202L130.254 107.85L130.182 107.438L130.128 107.187L130.02 106.703L129.822 105.717C129.696 105.053 129.588 104.39 129.497 103.727L129.407 102.848C129.407 102.848 129.407 102.723 129.425 102.651C129.443 102.579 129.425 102.526 129.371 102.49C129.281 102.49 129.191 102.472 129.173 102.4C129.173 102.364 129.173 102.311 129.173 102.221V102.06L129.029 101.737C128.867 101.36 127.588 101.45 126.921 101.127L125.696 100.5L124.074 99.6215L119.66 97.2013L116.957 95.7134L120.453 91.5364C121.552 90.2277 122.993 88.4529 123.372 87.951C123.84 87.3415 124.254 86.6782 124.669 85.9969L125.281 84.993C125.444 84.76 125.317 84.8675 125.353 84.8138V84.76L125.299 84.7062C125.281 84.6883 125.263 84.6703 125.263 84.6524L124.885 83.1465C124.651 82.1426 124.471 81.1208 124.272 80.099C123.822 78.1987 123.408 76.3881 122.939 74.6133C122.651 73.5198 122.309 72.4083 121.948 71.2789C124.633 70.9562 127.534 70.5618 130.236 70.6156H131.065L131.551 70.6514L132.47 70.6873C133.083 70.6873 133.696 70.6873 134.308 70.6694L135.876 70.5797L136.452 70.5259L136.74 69.9523L137.695 68.2313L139.984 64.2156L143.083 58.6045C144.65 59.8773 146.236 61.1322 147.839 62.3871C148.199 62.656 148.542 62.9428 148.884 63.2476C149.19 63.5165 149.623 63.893 149.749 64.0364C150.109 64.4128 150.452 64.8072 150.794 65.2016C151.461 65.9904 152.127 66.7792 152.938 67.4425C153.695 68.0699 153.262 70.6514 152.452 70.9741C152.289 71.0458 152.073 71.0638 151.911 70.992C149.875 70.2391 147.695 69.8985 145.929 68.3389C145.533 67.9265 145.155 67.6218 144.74 67.2991L143.857 68.9663L143.875 69.0201Z" fill="#00C573"/>
<path d="M196.287 138.176C196.567 138.12 196.893 138.176 197.267 138.344C197.64 138.493 197.827 138.661 197.827 138.848C197.827 138.904 197.855 138.951 197.911 138.988C198.06 139.119 198.079 139.38 197.967 139.772C197.873 140.164 197.696 140.509 197.435 140.808C197.211 141.088 197.117 141.284 197.155 141.396C197.192 141.489 197.453 141.695 197.939 142.012C198.237 142.217 198.517 142.413 198.779 142.6C199.04 142.768 199.255 142.908 199.423 143.02C200.916 143.916 201.289 144.775 200.543 145.596C200.431 145.708 200.356 145.764 200.319 145.764C200.263 145.764 200.235 145.783 200.235 145.82C200.235 145.857 200.132 145.904 199.927 145.96C199.74 146.016 199.581 146.044 199.451 146.044C199.152 146.044 198.732 145.895 198.191 145.596C197.649 145.297 197.117 144.924 196.595 144.476C195.829 143.841 195.363 143.552 195.195 143.608C195.064 143.664 194.644 144.168 193.935 145.12C193.487 145.717 193.197 146.091 193.067 146.24C192.955 146.371 192.824 146.492 192.675 146.604C192.227 146.884 191.76 146.893 191.275 146.632C190.789 146.371 190.547 145.979 190.547 145.456C190.547 145.195 190.659 144.887 190.883 144.532C190.976 144.383 191.032 144.289 191.051 144.252C191.107 144.177 191.144 144.14 191.163 144.14C191.2 144.14 191.219 144.121 191.219 144.084C191.219 144.028 191.303 143.888 191.471 143.664C192.777 141.872 193.477 140.948 193.571 140.892C193.608 140.855 193.683 140.771 193.795 140.64C193.907 140.491 194.112 140.239 194.411 139.884C194.728 139.529 194.905 139.343 194.943 139.324C194.98 139.305 194.999 139.277 194.999 139.24C194.999 139.128 195.167 138.932 195.503 138.652C195.839 138.372 196.1 138.213 196.287 138.176ZM195.503 144.952C195.577 144.84 195.783 144.84 196.119 144.952C196.473 145.045 196.735 145.176 196.903 145.344C197.089 145.531 197.201 145.727 197.239 145.932C197.295 146.119 197.323 146.623 197.323 147.444C197.323 147.537 197.323 147.659 197.323 147.808C197.341 148.48 197.379 148.872 197.435 148.984C197.491 149.077 197.687 149.115 198.023 149.096C198.116 149.077 198.181 149.068 198.219 149.068C200.067 148.9 201.224 148.853 201.691 148.928C201.915 148.947 202.148 149.049 202.391 149.236C202.633 149.404 202.764 149.563 202.783 149.712C202.801 149.824 202.829 149.889 202.867 149.908C202.997 149.983 202.988 150.207 202.839 150.58C202.689 150.953 202.503 151.215 202.279 151.364C202.073 151.513 201.803 151.607 201.467 151.644C201.131 151.681 200.207 151.719 198.695 151.756C196.753 151.812 195.456 151.859 194.803 151.896C194.131 151.933 193.589 151.952 193.179 151.952C192.843 151.952 192.413 151.98 191.891 152.036C191.013 152.129 190.351 152.148 189.903 152.092C189.455 152.036 189.119 151.887 188.895 151.644C188.615 151.364 188.484 151.056 188.503 150.72C188.521 150.365 188.671 150.039 188.951 149.74C189.119 149.572 189.333 149.46 189.595 149.404C189.875 149.348 190.425 149.311 191.247 149.292C192.143 149.273 192.721 149.245 192.983 149.208C193.281 149.171 193.589 149.152 193.907 149.152C193.944 149.152 193.991 149.152 194.047 149.152C194.327 149.171 194.485 149.124 194.523 149.012C194.579 148.881 194.607 148.48 194.607 147.808C194.607 147.659 194.607 147.537 194.607 147.444C194.625 146.417 194.672 145.829 194.747 145.68C194.803 145.549 194.905 145.409 195.055 145.26C195.204 145.092 195.307 145.008 195.363 145.008C195.437 145.008 195.484 144.989 195.503 144.952ZM191.275 153.38C191.387 153.305 191.564 153.268 191.807 153.268C192.049 153.268 192.208 153.296 192.283 153.352C192.357 153.408 192.423 153.436 192.479 153.436C192.553 153.436 192.647 153.52 192.759 153.688C192.889 153.837 192.983 153.987 193.039 154.136C193.113 154.341 193.141 155.051 193.123 156.264C193.123 156.376 193.123 156.544 193.123 156.768C193.123 157.515 193.151 157.944 193.207 158.056C193.263 158.187 193.468 158.243 193.823 158.224C193.935 158.224 194.019 158.224 194.075 158.224C196.968 158.131 198.704 158.093 199.283 158.112C199.861 158.131 200.263 158.243 200.487 158.448C200.804 158.747 200.944 159.111 200.907 159.54C200.888 159.969 200.701 160.305 200.347 160.548C200.104 160.716 199.675 160.819 199.059 160.856C198.461 160.893 196.707 160.949 193.795 161.024C192.6 161.043 191.779 160.94 191.331 160.716C190.883 160.511 190.593 160.072 190.463 159.4C190.407 159.083 190.379 158.243 190.379 156.88C190.379 155.517 190.416 154.733 190.491 154.528C190.584 154.192 190.687 153.949 190.799 153.8C190.911 153.632 191.069 153.492 191.275 153.38ZM217.542 140.892C218.065 140.78 218.513 140.911 218.886 141.284C219.26 141.657 219.4 142.124 219.306 142.684C219.288 142.833 219.269 145.204 219.25 149.796C219.232 154.388 219.213 156.759 219.194 156.908C219.12 157.356 218.924 157.692 218.606 157.916C218.308 158.121 217.962 158.177 217.57 158.084C217.197 157.991 216.889 157.739 216.646 157.328C216.59 157.235 216.553 157.076 216.534 156.852C216.534 156.628 216.534 155.919 216.534 154.724C216.534 153.137 216.497 152.316 216.422 152.26C216.366 152.185 215.638 152.139 214.238 152.12C213.324 152.101 212.698 152.073 212.362 152.036C212.026 151.999 211.765 151.924 211.578 151.812C211.41 151.681 211.214 151.448 210.99 151.112C210.934 151 210.906 150.804 210.906 150.524C210.906 149.964 211.13 149.581 211.578 149.376C212.026 149.171 212.736 149.124 213.706 149.236C214.173 149.311 214.724 149.348 215.358 149.348C216.012 149.348 216.366 149.32 216.422 149.264C216.497 149.189 216.534 148.947 216.534 148.536C216.534 148.107 216.488 147.873 216.394 147.836C216.32 147.78 215.956 147.743 215.302 147.724C213.94 147.724 213.034 147.696 212.586 147.64C212.157 147.584 211.821 147.463 211.578 147.276C211.224 147.015 211.046 146.66 211.046 146.212C211.065 145.745 211.252 145.4 211.606 145.176C211.868 145.008 212.138 144.915 212.418 144.896C212.717 144.859 213.389 144.849 214.434 144.868C215.704 144.887 216.376 144.887 216.45 144.868C216.525 144.849 216.562 144.355 216.562 143.384C216.562 142.413 216.6 141.844 216.674 141.676C216.88 141.228 217.169 140.967 217.542 140.892ZM204.858 143.076C205.213 142.945 205.54 142.945 205.838 143.076C206.156 143.207 206.389 143.449 206.538 143.804C206.688 144.121 206.706 145.195 206.594 147.024C206.557 147.64 206.52 148.321 206.482 149.068C206.464 149.833 206.436 150.291 206.398 150.44C206.361 150.571 206.333 150.785 206.314 151.084C206.314 151.383 206.333 151.56 206.37 151.616C206.482 151.784 207.668 151.775 209.926 151.588C210.15 151.569 210.309 151.579 210.402 151.616C210.421 151.635 210.524 151.681 210.71 151.756C211.121 151.943 211.345 152.279 211.382 152.764C211.438 153.231 211.289 153.641 210.934 153.996C210.673 154.257 210.318 154.425 209.87 154.5C209.422 154.556 208.452 154.575 206.958 154.556C206.044 154.556 205.4 154.537 205.026 154.5C204.672 154.444 204.401 154.351 204.214 154.22C204.028 154.089 203.841 153.856 203.654 153.52C203.58 153.371 203.533 152.969 203.514 152.316C203.496 151.644 203.524 151.121 203.598 150.748C203.692 150.207 203.757 148.825 203.794 146.604C203.832 145.297 203.869 144.504 203.906 144.224C203.962 143.944 204.102 143.683 204.326 143.44C204.513 143.253 204.69 143.132 204.858 143.076ZM239.063 140.976C239.903 140.883 240.529 140.911 240.939 141.06C241.35 141.191 241.649 141.471 241.835 141.9C241.966 142.199 241.966 142.516 241.835 142.852C241.705 143.188 241.35 143.748 240.771 144.532C240.473 144.943 240.379 145.204 240.491 145.316C240.547 145.353 240.734 145.484 241.051 145.708C241.387 145.932 241.565 146.044 241.583 146.044C241.602 146.044 241.77 146.147 242.087 146.352C242.442 146.595 242.899 146.884 243.459 147.22C243.646 147.332 243.823 147.463 243.991 147.612C244.159 147.743 244.243 147.836 244.243 147.892C244.243 147.929 244.262 147.967 244.299 148.004C244.523 148.228 244.57 148.545 244.439 148.956C244.327 149.348 244.113 149.619 243.795 149.768C243.459 149.955 243.114 150.011 242.759 149.936C242.405 149.861 241.957 149.647 241.415 149.292C241.117 149.105 240.865 148.947 240.659 148.816C240.099 148.499 239.614 148.2 239.203 147.92C238.849 147.696 238.606 147.575 238.475 147.556C238.363 147.519 238.251 147.565 238.139 147.696C238.065 147.789 237.85 148.023 237.495 148.396C237.159 148.732 236.889 149.021 236.683 149.264C235.918 150.16 235.293 150.701 234.807 150.888C234.341 151.075 233.874 150.963 233.407 150.552C233.053 150.253 232.913 149.917 232.987 149.544C233.081 149.152 233.407 148.667 233.967 148.088C234.285 147.752 234.593 147.416 234.891 147.08C235.227 146.707 235.545 146.361 235.843 146.044C236.142 145.727 236.413 145.419 236.655 145.12C237.047 144.691 237.271 144.439 237.327 144.364C237.607 144.084 237.682 143.925 237.551 143.888C237.439 143.851 236.87 143.841 235.843 143.86C234.257 143.916 233.342 143.879 233.099 143.748C232.577 143.487 232.315 143.085 232.315 142.544C232.334 142.003 232.605 141.601 233.127 141.34C233.389 141.209 234.537 141.125 236.571 141.088C237.897 141.069 238.727 141.032 239.063 140.976ZM237.915 149.208C238.102 149.096 238.354 149.068 238.671 149.124C238.989 149.18 239.241 149.292 239.427 149.46C239.633 149.647 239.754 149.927 239.791 150.3C239.847 150.673 239.857 151.523 239.819 152.848C239.782 154.304 239.773 155.079 239.791 155.172C239.81 155.265 239.95 155.321 240.211 155.34C240.491 155.34 241.294 155.34 242.619 155.34C243.945 155.321 244.729 155.321 244.971 155.34C245.233 155.359 245.457 155.461 245.643 155.648C246.035 156.003 246.194 156.404 246.119 156.852C246.063 157.281 245.802 157.617 245.335 157.86C245.093 157.972 244.663 158.037 244.047 158.056C243.45 158.093 241.49 158.112 238.167 158.112C235.031 158.112 233.193 158.103 232.651 158.084C232.11 158.065 231.755 158.019 231.587 157.944C231.139 157.739 230.878 157.421 230.803 156.992C230.747 156.563 230.887 156.161 231.223 155.788C231.447 155.583 231.671 155.461 231.895 155.424C232.119 155.368 232.689 155.34 233.603 155.34C234.649 155.34 235.461 155.331 236.039 155.312C236.114 155.312 236.207 155.303 236.319 155.284C236.711 155.284 236.935 155.209 236.991 155.06C237.066 154.892 237.094 154.341 237.075 153.408C237.057 153.147 237.047 152.941 237.047 152.792C237.029 151.411 237.066 150.524 237.159 150.132C237.271 149.721 237.523 149.413 237.915 149.208ZM258.926 140.724C259.112 140.687 259.327 140.715 259.57 140.808C259.812 140.883 260.008 140.995 260.158 141.144C260.363 141.349 260.484 141.583 260.522 141.844C260.578 142.087 260.615 142.74 260.634 143.804C260.652 146.137 260.699 147.332 260.774 147.388C260.792 147.407 261.082 147.435 261.642 147.472C262.202 147.509 262.706 147.528 263.154 147.528C263.975 147.509 264.516 147.565 264.778 147.696C265.244 147.939 265.487 148.293 265.506 148.76C265.524 149.227 265.319 149.628 264.89 149.964C264.703 150.113 264.498 150.216 264.274 150.272C264.068 150.309 263.714 150.328 263.21 150.328C261.604 150.347 260.764 150.421 260.69 150.552C260.652 150.627 260.634 151.625 260.634 153.548C260.652 156.012 260.596 157.365 260.466 157.608C260.41 157.72 260.382 157.795 260.382 157.832C260.382 157.869 260.316 157.953 260.186 158.084C259.831 158.457 259.411 158.607 258.926 158.532C258.459 158.457 258.123 158.187 257.918 157.72C257.862 157.571 257.852 154.845 257.89 149.544L257.946 141.592L258.142 141.284C258.347 140.985 258.608 140.799 258.926 140.724ZM252.038 143.608C253.214 143.552 253.904 143.552 254.11 143.608C254.539 143.739 254.838 144 255.006 144.392C255.174 144.765 255.155 145.139 254.95 145.512C254.651 146.016 254.035 146.268 253.102 146.268C252.635 146.268 252.196 146.287 251.786 146.324C251.3 146.361 250.918 146.389 250.638 146.408C250.582 146.408 250.498 146.408 250.386 146.408C250.087 146.427 249.91 146.473 249.854 146.548C249.798 146.623 249.77 146.893 249.77 147.36C249.77 147.528 249.76 147.659 249.742 147.752C249.723 148.629 249.695 149.301 249.658 149.768C249.546 151.187 249.499 151.924 249.518 151.98C249.574 152.073 250.479 152.129 252.234 152.148C253.391 152.148 254.082 152.167 254.306 152.204C254.53 152.223 254.726 152.288 254.894 152.4C255.379 152.717 255.547 153.137 255.398 153.66C255.267 154.183 254.894 154.547 254.278 154.752C253.923 154.864 252.868 154.929 251.114 154.948C249.378 154.948 248.323 154.883 247.95 154.752C247.539 154.621 247.24 154.425 247.054 154.164C246.867 153.884 246.755 153.501 246.718 153.016C246.699 152.736 246.708 152.297 246.746 151.7C246.783 151.084 246.83 150.645 246.886 150.384C246.923 150.16 246.942 149.339 246.942 147.92C246.96 146.501 247.007 145.652 247.082 145.372C247.306 144.401 247.996 143.879 249.154 143.804C249.602 143.767 249.984 143.729 250.302 143.692C250.787 143.655 251.366 143.627 252.038 143.608ZM272.573 138.484C272.778 138.465 273.068 138.465 273.441 138.484C273.814 138.503 274.066 138.531 274.197 138.568C274.365 138.643 274.552 138.699 274.757 138.736C276.064 139.091 276.978 139.716 277.501 140.612C277.8 141.116 277.958 141.704 277.977 142.376C278.014 143.029 277.921 143.645 277.697 144.224C277.38 144.989 276.932 145.596 276.353 146.044C276.222 146.156 276.017 146.287 275.737 146.436C275.476 146.585 275.317 146.66 275.261 146.66C275.205 146.66 275.13 146.679 275.037 146.716C274.925 146.772 274.841 146.8 274.785 146.8C274.729 146.8 274.626 146.828 274.477 146.884C274.365 146.94 274.038 146.968 273.497 146.968C272.956 146.968 272.592 146.949 272.405 146.912C272.2 146.875 272.041 146.837 271.929 146.8C271.742 146.781 271.63 146.744 271.593 146.688C271.556 146.669 271.509 146.66 271.453 146.66C271.397 146.66 271.238 146.595 270.977 146.464C270.716 146.315 270.501 146.193 270.333 146.1C270.09 145.932 269.81 145.68 269.493 145.344C269.194 144.989 269.017 144.709 268.961 144.504C268.942 144.411 268.914 144.345 268.877 144.308C268.802 144.215 268.737 143.953 268.681 143.524C268.625 143.095 268.616 142.768 268.653 142.544C268.746 142.003 268.821 141.676 268.877 141.564C268.896 141.527 268.952 141.405 269.045 141.2C269.325 140.565 269.782 139.996 270.417 139.492C270.604 139.343 270.884 139.165 271.257 138.96C271.63 138.755 271.854 138.652 271.929 138.652C271.985 138.652 272.069 138.624 272.181 138.568C272.293 138.531 272.424 138.503 272.573 138.484ZM273.973 141.452C273.32 141.359 272.806 141.396 272.433 141.564C272.078 141.713 271.789 142.021 271.565 142.488C271.248 143.16 271.444 143.673 272.153 144.028C272.377 144.14 272.732 144.196 273.217 144.196C273.702 144.196 274.085 144.14 274.365 144.028C274.552 143.935 274.692 143.832 274.785 143.72C274.897 143.589 275.046 143.337 275.233 142.964C275.382 142.647 275.326 142.339 275.065 142.04C274.822 141.723 274.458 141.527 273.973 141.452ZM275.709 148.508C276.642 148.452 277.548 148.433 278.425 148.452C279.321 148.471 279.825 148.508 279.937 148.564C280.441 148.825 280.702 149.208 280.721 149.712C280.74 150.216 280.506 150.627 280.021 150.944C279.834 151.075 279.405 151.159 278.733 151.196C278.08 151.215 276.082 151.252 272.741 151.308C270.034 151.345 268.532 151.373 268.233 151.392C267.692 151.411 267.309 151.383 267.085 151.308C266.861 151.233 266.637 151.075 266.413 150.832C266.096 150.496 265.993 150.113 266.105 149.684C266.236 149.236 266.525 148.909 266.973 148.704C267.104 148.648 268.466 148.611 271.061 148.592C273.525 148.573 275.074 148.545 275.709 148.508ZM268.793 152.764C269.036 152.708 269.297 152.717 269.577 152.792C269.857 152.848 270.062 152.96 270.193 153.128C270.38 153.333 270.482 153.539 270.501 153.744C270.538 153.931 270.557 154.575 270.557 155.676C270.576 157.001 270.594 157.683 270.613 157.72C270.65 157.757 271.817 157.767 274.113 157.748C275.83 157.748 276.838 157.757 277.137 157.776C277.454 157.776 277.688 157.813 277.837 157.888C278.21 158.056 278.444 158.327 278.537 158.7C278.649 159.073 278.593 159.428 278.369 159.764C278.164 160.1 277.846 160.315 277.417 160.408C277.249 160.445 275.942 160.483 273.497 160.52C271.07 160.576 269.736 160.595 269.493 160.576C268.522 160.445 267.981 159.829 267.869 158.728C267.832 158.355 267.804 157.477 267.785 156.096C267.785 154.696 267.804 153.977 267.841 153.94C267.878 153.921 267.906 153.847 267.925 153.716C267.944 153.567 267.981 153.473 268.037 153.436C268.093 153.38 268.121 153.333 268.121 153.296C268.121 153.24 268.214 153.147 268.401 153.016C268.588 152.867 268.718 152.783 268.793 152.764Z" fill="#363232"/>
</g>
<defs>
<clipPath id="clip0_1662_1353">
<rect width="303" height="183" fill="white"/>
</clipPath>
</defs>
</svg>
