<svg width="26" height="26" viewBox="0 0 26 26" fill="none" xmlns="http://www.w3.org/2000/svg">
<path d="M23.1538 1H2.84615C2.35652 1 1.88695 1.1945 1.54073 1.54073C1.1945 1.88695 1 2.35652 1 2.84615V18.5385C1 19.0281 1.1945 19.4977 1.54073 19.8439C1.88695 20.1901 2.35652 20.3846 2.84615 20.3846H6.53846V25L12.2985 20.3846H23.1538C23.6435 20.3846 24.1131 20.1901 24.4593 19.8439C24.8055 19.4977 25 19.0281 25 18.5385V2.84615C25 2.35652 24.8055 1.88695 24.4593 1.54073C24.1131 1.1945 23.6435 1 23.1538 1Z" stroke="#C0BEB6" stroke-width="1.8" stroke-linecap="round" stroke-linejoin="round"/>
<path d="M10.2308 8.38447C10.2308 7.83676 10.3932 7.30136 10.6975 6.84596C11.0018 6.39057 11.4343 6.03563 11.9403 5.82603C12.4463 5.61643 13.0031 5.56159 13.5403 5.66845C14.0774 5.7753 14.5709 6.03904 14.9581 6.42632C15.3454 6.81361 15.6092 7.30704 15.716 7.84422C15.8229 8.38139 15.768 8.93819 15.5584 9.4442C15.3488 9.95022 14.9939 10.3827 14.5385 10.687C14.0831 10.9913 13.5477 11.1537 13 11.1537V12.0768" stroke="#C0BEB6" stroke-width="1.8" stroke-linecap="round" stroke-linejoin="round"/>
<path d="M13 16.6922C12.7451 16.6922 12.5385 16.4856 12.5385 16.2307C12.5385 15.9758 12.7451 15.7692 13 15.7692" stroke="#C0BEB6" stroke-width="1.8" stroke-linecap="round" stroke-linejoin="round"/>
<path d="M13 16.6922C13.2549 16.6922 13.4615 16.4856 13.4615 16.2307C13.4615 15.9758 13.2549 15.7692 13 15.7692" stroke="#C0BEB6" stroke-width="1.8" stroke-linecap="round" stroke-linejoin="round"/>
</svg>
