<svg width="188" height="157" viewBox="0 0 188 157" fill="none" xmlns="http://www.w3.org/2000/svg">
<path d="M182.611 53.8157C178.294 47.6896 171.865 43.9754 165.036 42.9391C166.31 36.0976 164.935 28.761 160.61 22.6349C152.159 10.6669 135.676 7.86067 123.792 16.362C121.789 17.7927 120.05 19.4618 118.574 21.2959C116.935 15.8485 113.566 10.887 108.612 7.33794C96.7281 -1.17258 80.2455 1.63368 71.7947 13.6108C70.5926 15.3166 69.6183 17.1232 68.8624 18.9849C67.9518 18.1137 66.9683 17.2883 65.9119 16.5363C54.028 8.02575 37.5454 10.832 29.0946 22.8091C22.793 31.7323 22.7474 43.2417 28.0565 52.0366C19.7605 52.009 11.5921 55.8974 6.4196 63.2158C-2.03117 75.1837 0.755395 91.7829 12.6484 100.293C18.8954 104.76 26.4082 106.108 33.3564 104.64C33.8391 109.996 36.1703 128.42 51.1959 141.837C67.0411 155.988 86.3923 155.107 97.657 154.594C108.63 154.099 132.334 153.017 145.32 135.555C156.421 120.634 156.293 98.34 156.266 96.8268C156.257 96.2124 156.239 95.6988 156.23 95.3503C163.023 96.6343 170.308 95.2495 176.382 90.8933C188.266 82.3828 191.053 65.7836 182.611 53.8157Z" fill="white"/>
<path d="M171.465 45.6995C170.272 45.1676 169.115 44.7549 168.013 44.4431C167.713 44.3605 167.522 44.2872 167.148 44.2138C166.793 44.1404 166.447 44.0579 166.101 43.9845C165.418 43.8378 164.717 43.7369 164.07 43.6177C164.225 42.6273 164.371 41.7377 164.453 40.9123C164.48 40.7014 164.498 40.4996 164.526 40.2979L164.553 39.8302C164.562 39.5275 164.58 39.2249 164.589 38.9314C164.58 38.4087 164.38 37.8309 164.343 37.189C164.289 34.5936 163.569 32.035 163.005 29.6139C162.395 26.9452 161.083 24.4232 159.317 22.4882C157.732 20.5806 155.966 18.9207 154.008 17.4809C153.316 17.0498 152.678 16.5821 152.022 15.9218C151.54 15.4633 150.529 14.7663 149.555 14.7846C149.372 14.7846 149.063 14.5646 148.826 14.427C148.571 14.2803 148.316 14.0051 148.098 13.9593C145.675 13.6566 143.39 12.7212 140.94 12.6295C140.339 12.6295 139.683 12.4736 139.173 12.8129C139.046 12.9046 138.463 12.8863 138.29 12.8313C137.826 12.6479 137.352 12.6295 136.778 12.6754C134.32 12.9505 131.852 13.4457 129.575 14.4453C129.083 14.858 128.546 15.2065 127.972 15.5091C127.399 15.8209 126.761 16.0227 126.233 16.3987C125.432 16.9306 124.494 17.2699 123.674 17.8202C122.818 18.3796 122.326 19.1683 121.024 19.902C120.851 19.9845 120.532 20.5072 120.25 20.8374C119.558 21.6536 118.829 22.6074 118.156 23.4603C117.892 22.7908 117.673 21.9746 117.454 21.1859C117.218 20.2321 116.972 19.3425 116.662 18.6089L116.271 17.7376L115.934 17.0682C115.724 16.628 115.469 16.2153 115.232 15.7843C114.732 14.9497 114.194 14.1335 113.602 13.354C112.419 11.8041 111.071 10.3735 109.568 9.14459C106.536 6.69598 103.003 4.88017 99.2233 3.97226C98.5768 3.77967 97.9302 3.67879 97.1926 3.79801C96.6189 3.87138 95.4259 3.798 94.9069 3.55956C94.0691 3.11936 93.2313 3.30278 92.4026 3.30278C91.6286 3.27526 90.8727 3.37615 90.1078 3.4862C89.7253 3.54123 89.3428 3.57789 88.9604 3.63291L87.8312 3.87136C87.385 3.96307 86.9205 4.09148 86.4743 4.22904C86.0281 4.37577 85.5819 4.45829 85.1266 4.35742C85.0355 4.33907 84.7623 4.43079 84.6804 4.50415C84.2615 4.85264 83.8244 5.10025 83.3417 5.24699C82.8682 5.40289 82.3582 5.50378 81.8756 5.6872C81.2108 6.00817 80.546 6.38416 79.9541 6.96193C79.4077 7.57637 78.3696 8.33757 77.6502 8.58518C76.7304 8.9887 76.0657 9.61229 75.4191 10.2542C74.809 10.9145 74.126 11.5198 73.5705 12.2351C73.0241 12.9596 72.4231 13.6383 71.9222 14.3903C71.6673 14.7663 71.4214 15.1423 71.1937 15.5367L70.8477 16.1236L70.4561 16.8389C69.9462 17.8294 69.4817 18.9024 69.0537 19.9387C68.2432 19.1683 67.3872 18.3796 66.513 17.6918L65.8665 17.1966C65.6843 17.059 65.5022 16.9306 65.311 16.8206L64.1726 16.0961L63.3531 15.6009C63.0708 15.4633 62.7703 15.3349 62.4789 15.2065C61.8869 14.9589 61.3224 14.6929 60.7213 14.482C60.1203 14.2894 59.5193 14.0968 58.9182 13.8859C58.3263 13.6566 57.7071 13.5374 57.1061 13.3081C56.8147 13.2073 56.505 13.1614 56.2045 13.0697C55.904 12.9963 55.6126 12.923 55.3758 12.7121C55.2757 12.6295 54.7839 12.5837 54.5836 12.6295C54.2193 12.7212 53.8733 12.6845 53.5181 12.6662C53.163 12.6478 52.7987 12.5928 52.4071 12.5561C48.883 12.2352 45.1493 12.5928 41.9438 14.0418C39.4851 15.1882 37.1174 16.3987 35.0412 18.0861C34.3946 18.6914 33.5204 19.0582 32.8556 19.691C32.5369 19.9937 32.2182 20.3146 31.9085 20.6356C31.5898 20.9566 31.2893 21.2868 31.0343 21.6536C30.7156 22.0755 30.3149 22.4423 30.1965 23.0109C30.1146 23.3043 29.7412 23.9555 29.4862 24.1481C28.5756 24.79 28.1749 25.8722 27.6741 26.8168C26.3081 29.5955 25.4703 32.6219 25.1516 35.7033C25.1152 36.4645 25.1971 37.3082 24.8329 37.996C24.7782 38.0877 24.9148 38.5279 24.9512 38.8122C24.9877 39.1057 25.1152 39.4725 25.0878 39.6926C24.6689 41.7469 25.3701 43.8561 25.9529 45.8187C26.0895 46.3414 26.2625 46.855 26.4629 47.3502L26.7452 48.1114L26.8181 48.304L26.8363 48.3499L26.8727 48.4232L26.9273 48.5333L27.1459 48.9918C27.4464 49.5971 27.7105 50.2207 28.0383 50.8076C28.357 51.3854 28.7213 51.9998 28.9945 52.5593C28.102 52.5868 27.2187 52.5868 26.3172 52.6693C25.871 52.706 25.4157 52.7152 24.9786 52.7702L23.7765 52.9353C22.3741 53.1829 20.9808 53.4855 19.6331 53.9441C18.2944 54.3751 17.3109 55.1821 16.118 55.7782C14.9615 56.356 13.8778 57.0896 12.8124 57.8325C12.0565 58.3736 11.4282 59.1072 10.5357 59.4007C10.2808 59.4741 9.78901 59.9418 9.67973 60.2169C9.23352 61.2257 8.35019 61.9227 7.74006 62.8306C7.55793 63.1057 7.35759 63.3717 7.14815 63.6284C6.95691 63.9036 6.7748 64.1787 6.59267 64.463C6.24662 65.0316 5.89146 65.6002 5.78218 66.2697C5.72754 66.6365 5.2267 67.1317 4.97172 67.5994L4.64388 68.2139C4.54371 68.4248 4.47085 68.6449 4.37978 68.8558L3.88805 70.1581C3.72414 70.5708 3.76056 71.0385 3.66039 71.4695C2.81349 74.7618 2.65869 78.2009 3.0958 81.5299C3.53291 84.9231 4.58924 88.2521 6.29214 91.2234C7.99504 94.1948 10.3354 96.7718 13.04 98.8536C14.0508 99.6606 15.3804 100.11 16.1726 101.146C17.3747 101.421 18.2216 101.981 19.0685 102.724C19.196 102.825 19.6057 102.797 19.888 102.843C20.7714 102.99 21.682 102.669 22.4834 103.466C22.5107 103.494 22.6382 103.494 22.711 103.522C23.4851 103.76 24.1225 103.265 25.0696 103.742C25.6706 104.053 26.7088 104.026 27.5557 104.053C28.439 104.09 29.3223 104.081 30.2056 103.943C30.8067 103.879 31.435 103.806 32.0543 103.732C32.7372 103.641 33.3838 103.457 34.2216 103.081C34.2944 103.045 34.3946 103.035 34.513 103.035C34.513 103.503 34.4219 104.356 34.4766 104.76C34.5858 105.484 34.6678 106.254 34.7407 107.006L34.9319 108.648C35.0867 109.684 35.2962 110.721 35.7879 111.656C36.0065 112.087 36.143 112.812 36.1704 113.316C36.1977 114.233 36.3525 115.086 36.6348 115.92C36.8898 116.755 37.2267 117.571 37.6001 118.415C38.5289 120.653 39.5944 122.964 40.0952 125.357C40.2136 125.862 40.2409 126.1 40.6507 126.467C40.9239 126.705 41.1607 127.237 41.3792 127.659C43.929 132.272 47.1527 136.491 50.9774 140.086C51.97 141.113 52.7714 142.232 54.0008 143.066C54.2558 143.231 54.4834 143.479 54.7293 143.671C54.9843 143.855 55.2574 144.002 55.5762 143.992C55.6672 143.992 55.8858 144.112 55.9586 144.194C56.5597 144.864 57.2882 145.359 58.0714 145.762C58.8636 146.138 59.665 146.487 60.3753 147.01C60.6758 147.239 60.949 147.486 61.2677 147.688C61.5864 147.899 61.9416 148.193 62.2512 148.275C62.916 148.449 63.5443 148.706 64.1818 148.935C64.8283 149.156 65.4567 149.412 66.085 149.678L67.023 150.082L67.9883 150.43C68.6348 150.66 69.2814 150.87 69.9279 151.054C70.8204 151.283 71.7492 151.751 72.6599 151.531C72.7964 151.494 73.188 151.613 73.3428 151.714C74.7725 152.567 76.5665 152.54 78.1692 152.897C78.9979 153.117 79.9723 152.925 80.6735 153.447C80.7646 153.512 81.1106 153.503 81.3201 153.493C81.6935 153.475 82.0577 153.374 82.4128 153.411C83.3872 153.493 84.4436 153.833 85.3178 153.723C86.4015 153.567 87.4032 153.704 88.4322 153.695C89.0241 153.695 89.6069 153.897 90.2171 153.952C90.7817 153.998 91.3736 153.952 91.9564 153.934C92.7851 153.924 93.6502 153.814 94.4425 153.888C95.262 153.961 95.8995 153.466 96.8192 153.741C97.5204 153.952 98.3036 153.484 99.0685 153.402C99.451 153.356 99.8699 153.392 100.252 153.42C100.553 153.438 100.844 153.576 101.108 153.548C101.728 153.484 102.338 153.539 102.984 153.282C103.43 153.108 104.259 153.301 104.924 153.282C105.58 153.246 106.244 153.163 106.909 153.099C107.574 153.044 108.293 153.044 108.876 152.861C111.435 152.099 114.121 151.898 116.708 151.283C117.372 151.136 118.092 150.76 118.766 151.008C118.884 151.054 119.267 150.962 119.449 150.87C120.614 150.32 121.807 149.853 123.046 149.504C124.284 149.146 125.495 148.697 126.661 148.193C127.481 147.798 128.255 147.321 129.047 146.9C129.438 146.679 129.848 146.487 130.24 146.258C130.631 146.028 131.023 145.799 131.433 145.588C133.045 144.827 134.62 143.846 135.94 142.736C136.969 141.755 137.944 140.773 139.055 139.966C140.075 139.068 140.466 137.674 141.814 137.151L143.116 135.564C143.544 135.032 144.009 134.528 144.382 133.95C144.701 133.473 145.02 132.987 145.347 132.501C145.511 132.263 145.684 132.034 145.885 131.823C146.058 131.593 146.249 131.373 146.477 131.181C146.804 130.896 147.187 130.19 147.305 129.732C147.506 129.007 147.733 128.329 148.043 127.687C148.353 127.036 148.744 126.43 149.136 125.797C149.309 125.495 149.291 125.009 149.436 124.633L150.092 122.918C150.292 122.34 150.493 121.753 150.711 121.185C152.032 117.773 152.45 114.15 153.079 110.574C153.188 109.904 152.988 109.125 153.17 108.556C153.689 106.805 153.889 104.98 154.026 103.164C154.135 101.192 154.244 99.2204 154.354 97.2854C154.427 95.9189 154.399 94.5708 154.427 93.2869C155.392 93.4611 156.321 93.6537 157.268 93.7913L158.67 94.0022L159.016 94.0389L159.335 94.0573L159.736 94.0847C160.801 94.1581 161.876 94.1398 162.941 94.0481C165.072 93.8738 167.166 93.4153 169.188 92.7367C169.807 92.5532 170.572 92.5807 170.827 92.379C171.219 92.058 171.674 91.8104 172.129 91.5995C172.567 91.361 172.995 91.1501 173.295 90.8566C174.351 89.8019 175.635 89.1875 176.664 88.1971C176.856 88.0228 177.065 87.867 177.275 87.7019L177.857 87.1608C178.231 86.794 178.568 86.3996 178.741 85.9136C178.795 85.776 179.014 85.51 179.178 85.4C179.806 84.9506 180.298 84.3728 180.653 83.7125C180.999 83.0339 181.354 82.3919 181.819 81.805C182.839 79.1546 184.15 76.5868 184.578 73.753C184.669 73.3404 184.605 72.9277 184.578 72.5058C184.578 72.2949 184.532 72.0473 184.587 71.873C185.416 69.3786 184.897 66.6548 184.496 64.1145C184.341 63.2708 184.25 62.4179 184.077 61.565C183.804 60.7305 183.394 59.9326 183.367 59.0339C183.349 58.7587 183.066 58.3185 182.866 58.0067C182.347 57.1263 181.946 56.3468 181.855 55.6315C181.764 54.9253 181.928 54.3109 182.392 53.9532C182.729 53.6965 182.993 54.0725 183.376 54.3843C184.123 55.0079 184.824 55.6773 185.279 56.7411C185.47 57.1447 185.643 57.5757 185.853 57.9792C186.062 58.3827 186.254 58.7771 186.6 59.0705C186.709 59.1714 186.845 59.5658 186.873 59.7859C187.009 60.5562 187.182 61.3541 187.392 62.1244C187.492 62.5096 187.601 62.8948 187.692 63.28C187.747 63.6651 187.783 64.0503 187.783 64.4172C187.783 64.9766 187.847 65.5085 187.893 66.0312C187.911 66.5539 187.938 67.0767 187.938 67.5994C187.975 68.4798 188.129 69.3969 187.747 70.2681C187.683 70.4149 187.72 70.6991 187.783 71.0385C187.829 71.3686 187.856 71.7446 187.829 72.0564C187.747 73.5146 187.437 74.9544 187.055 76.3484C186.335 78.4302 185.707 80.5303 184.678 82.4837C183.749 84.4829 182.456 86.3079 180.935 87.922C180.462 88.5639 179.934 89.1784 179.378 89.7653C178.804 90.3339 178.14 90.8107 177.502 91.3151C176.2 92.2964 174.789 93.0943 173.432 93.938C170.108 95.974 166.201 96.8176 162.358 97.1111C161.566 97.1845 160.919 97.157 160.218 97.0102C159.991 96.9552 159.763 96.9002 159.526 96.8543L159.171 96.7901C159.044 96.7718 159.034 96.7627 158.943 96.7535C158.397 96.6985 157.86 96.625 157.322 96.5333C157.304 97.0377 157.35 97.5972 157.304 98.1291C157.295 98.34 157.331 98.9636 157.322 99.4314C157.313 99.9266 157.222 100.403 156.958 100.816C156.885 100.926 156.876 101.357 156.913 101.55C157.295 103.146 156.849 104.824 156.712 106.456C156.658 107.08 156.557 107.676 156.302 108.327C156.011 109.024 155.838 110.161 155.893 110.95C155.938 111.546 155.82 112.05 155.756 112.601C155.683 113.178 155.574 113.747 155.446 114.316L154.982 116.012C154.7 117.149 154.399 118.268 154.372 119.442C153.58 120.451 153.243 121.882 152.979 123.065C151.868 127.613 149.491 131.749 146.841 135.61C146.686 135.849 146.522 136.078 146.34 136.298L145.739 136.913C145.329 137.316 144.91 137.71 144.537 138.141C144.127 138.582 143.763 139.068 143.344 139.499L142.069 140.783C141.614 141.241 140.976 141.635 140.867 142.277C140.867 142.323 140.785 142.406 140.721 142.452C140.148 142.837 139.51 143.167 139.009 143.607C138.554 144.002 138.281 144.57 137.826 144.992C137.261 145.469 136.623 145.9 135.995 146.331C135.385 146.734 134.793 147.276 134.092 147.248C133.8 147.89 132.963 148.119 132.343 148.495C132.052 148.679 131.751 148.844 131.442 149.009L130.495 149.431L128.373 150.403C127.663 150.724 126.916 150.935 126.215 151.256C125.732 151.467 125.259 151.705 124.785 151.934C124.312 152.154 123.82 152.347 123.328 152.53C122.281 152.897 121.206 153.264 120.114 153.475C119.431 153.622 118.748 153.75 118.065 153.869C117.382 153.989 116.689 154.062 116.006 154.163C115.442 154.245 114.977 154.447 114.458 154.704C113.766 155.016 112.892 155.593 111.863 155.19C111.663 155.117 110.998 155.245 110.634 155.364C107.774 156.364 104.669 156.135 101.718 156.483C100.061 156.144 98.5039 156.483 96.8283 156.685C94.3696 156.969 91.7014 157.134 89.2427 156.859C86.6382 156.593 84.0702 156.611 81.5022 156.272C80.7828 156.162 79.9814 156.235 79.4168 155.786C79.2894 155.685 78.743 155.639 78.4333 155.648C76.3024 155.759 74.2808 155.254 72.2501 154.502C71.1937 154.053 69.9006 153.952 68.6621 153.677C67.7333 153.475 66.7771 153.2 65.8482 152.833C64.9285 152.439 63.9905 152.035 63.0708 151.641C62.4789 150.861 61.6866 150.981 61.1949 150.981C60.5392 150.971 60.011 150.76 59.3736 150.449C58.5722 150.008 57.8437 149.467 56.9057 149.275C56.4231 149.183 55.5397 148.614 55.2392 148.165C54.8112 147.597 54.5563 147.542 53.9643 147.312C53.2814 147.028 52.8898 146.276 52.1977 145.698C51.4419 145.102 50.4037 144.561 50.0759 143.635C50.0486 143.552 49.8118 143.378 49.6934 143.305C48.0725 142.424 47.2347 140.718 45.9325 139.517C42.7998 135.216 39.4396 130.997 37.3269 126.1C36.48 124.073 35.97 121.918 35.0685 119.965C34.0941 117.92 33.4475 115.737 32.9285 113.536C32.6917 112.426 32.4549 111.317 32.2819 110.207C32.1908 109.648 32.0907 109.088 32.0087 108.529L31.8266 107.392C31.7811 107.172 31.6627 107.061 31.7264 106.768C31.6718 106.731 31.6536 106.658 31.6354 106.52C31.6354 106.456 31.435 106.502 31.3348 106.566C31.1527 106.704 31.0343 106.796 30.9251 106.86C30.9251 106.869 30.8158 106.887 30.7247 106.906L30.4606 106.942C30.2876 106.961 30.1055 106.979 29.9234 106.988C29.213 107.025 28.4572 106.933 27.7287 106.777C27.3735 106.695 26.7088 106.704 26.4811 106.795C25.8437 107.089 25.1334 106.915 24.4777 106.805C23.6763 106.713 22.6928 106.218 22.2011 106.291C21.1265 106.429 20.6621 105.888 19.9518 105.603C19.5056 105.438 18.9865 105.337 18.4948 105.236C18.258 105.191 17.9393 105.218 17.8209 105.126C16.5187 104.191 14.8886 104.044 13.6228 103.09C13.3587 102.889 13.04 102.714 12.7941 102.494C11.4009 101.275 10.8454 100.532 10.044 99.8899C9.6433 99.5781 9.26995 99.1837 8.74177 98.7252C8.2227 98.2575 7.53972 97.7256 6.77478 96.8635C6.61086 96.1757 6.08271 95.7446 5.62739 95.2127C5.16296 94.69 4.6712 94.1581 4.47997 93.4703C4.33426 92.9751 3.87893 92.1405 3.46914 91.6636C1.75713 89.4626 1.09236 86.6197 0.482228 83.9418C0.309205 83.3824 0.65525 82.8872 0.254567 82.1994C0.108864 81.9334 0.31833 80.9613 0.272797 80.3377C0.245478 79.4206 0.391181 78.476 0.0451366 77.5589C-0.0823535 77.1829 0.0997819 76.3667 0.108888 75.7615C0.0906754 74.9177 0.454917 74.129 0.263682 73.2303C0.227256 72.9919 0.218148 72.5884 0.318319 72.2124C0.418489 71.8272 0.555098 71.4511 0.700801 71.2127C1.00131 70.7267 1.21074 70.2406 1.39287 69.7454C1.61143 69.2685 1.77535 68.7824 1.91194 68.2872C2.15782 67.2876 2.44013 66.3063 2.80439 65.3434C3.01383 64.7656 3.15043 64.3438 3.59664 63.8577C4.20677 63.1791 4.94438 62.2345 5.23579 61.5925C5.70022 60.4003 6.57446 59.5566 7.39404 58.6854C8.80553 57.1447 10.4447 55.8333 12.1476 54.6411C14.1055 53.2654 16.2819 52.3667 18.4492 51.2662C19.6058 50.6701 21.2722 50.0465 22.7475 50.3216C22.9023 50.3399 23.4213 49.9639 23.7947 49.9089C24.0133 49.8631 24.1226 49.8539 24.2956 49.8539C24.2592 49.7805 24.2136 49.698 24.1772 49.6246L23.9404 48.9826C23.7036 48.3132 23.8949 47.4511 23.3394 46.9742C22.7293 46.4423 23.3212 45.5161 22.702 45.0942C22.6109 45.03 22.4743 44.4064 22.4561 44.0762C22.3923 43.1867 22.3741 42.2879 22.283 41.4075C22.2648 40.518 22.1373 39.6284 22.1464 38.7388C22.0554 36.9505 22.1738 35.153 22.5016 33.4014C22.6928 32.576 22.6746 31.5581 23.2848 31.0262C23.3121 30.4759 23.4396 29.9348 23.6035 29.4029C23.7856 28.871 24.0497 28.3666 24.2865 27.8531C24.505 27.3303 24.7964 26.8443 24.9968 26.3307C25.2062 25.8171 25.3428 25.2852 25.4339 24.735C25.871 24.093 26.1715 23.341 26.6086 22.6716C27.0184 21.9929 27.4737 21.3418 28.1658 20.9383C28.3844 20.8007 28.6029 20.3055 28.8306 20.1404C29.5773 19.5718 29.4134 18.618 30.5061 18.077C30.8249 17.9302 31.1436 17.5909 31.5261 17.2516C31.9086 16.9214 32.3092 16.5363 32.6826 16.2336C33.3565 15.6375 34.0941 15.124 34.8317 14.6196C35.624 14.0235 36.4982 13.5649 37.3542 13.0881C38.2011 12.5745 39.1482 12.2627 40.0224 11.8225L40.6963 11.4923L41.3792 11.208L42.7543 10.6394C43.6832 10.2634 44.6667 10.0617 45.6775 9.88742C45.896 9.84157 46.2603 9.75903 46.3331 9.65815C46.9251 8.89697 48.0269 9.12624 48.7281 9.28214C49.3201 9.43805 49.8209 9.50224 50.4493 9.4839C51.3053 9.42888 52.1613 9.51141 53.0173 9.56644C53.8733 9.59395 54.7202 9.74987 55.5671 9.92411C56.0588 10.0342 56.5961 10.0342 57.097 10.1809C57.5978 10.3185 58.0804 10.511 58.4811 10.8412C58.727 11.0521 59.5193 11.2172 59.9655 11.3181C61.0309 11.5015 62.1055 11.795 63.0617 12.336L64.5278 13.1064C65.0014 13.3815 65.4567 13.7025 65.9302 13.9776C66.3582 14.2344 66.7771 14.5004 67.196 14.7755C67.7424 15.179 67.6331 15.1056 67.7515 15.2065C67.8152 15.2615 67.8881 15.234 67.9336 15.2248C67.9883 15.2248 68.0156 15.2432 68.1066 15.5091L68.1431 15.4816C68.1704 15.1331 68.1704 14.9589 68.1977 14.8397C68.1977 14.803 68.1977 14.7938 68.225 14.748L68.2705 14.6563L68.4345 14.3536C68.6621 13.9501 68.8989 13.5649 69.1539 13.1797C69.6456 12.4002 70.2375 11.6941 70.8204 10.9879L71.6855 9.92411L72.6234 8.9245C75.155 6.16408 78.315 3.98141 81.7481 2.49574C82.1761 2.31232 82.6132 2.06473 83.0594 1.88131C83.5056 1.70706 83.9883 1.63369 84.4436 1.72539C84.6166 1.76208 85.2541 1.55114 85.418 1.40441C85.8551 0.982552 86.2467 0.789963 86.9114 0.97338C87.0389 1.01006 87.5125 0.826667 87.7674 0.707446C88.4686 0.340613 89.1607 0.294735 89.9712 0.368102C90.5995 0.423127 91.4191 0.386465 92.0201 0.303928C92.8215 0.166365 93.6047 -0.0170669 94.3969 0.00127475C95.1892 0.0287872 95.9814 0.148027 96.7555 0.450664C96.9376 0.533202 97.5204 0.322247 97.8847 0.395613C98.5677 0.560688 99.278 0.579052 99.961 0.762469C100.644 0.936714 101.318 1.1568 101.937 1.52363C102.438 1.8171 103.239 2.04637 103.886 2.32149C105.006 2.78003 106.108 3.15603 107.191 3.83467C107.729 4.20151 108.266 4.60502 108.858 4.95351C109.441 5.31118 110.033 5.65968 110.57 6.08153C111.645 6.90691 112.674 7.80564 113.63 8.76858C114.586 9.74069 115.469 10.777 116.271 11.8775C117.081 12.978 117.81 14.1243 118.456 15.3257L118.921 16.2336L119.03 16.4629L119.103 16.6096C119.185 16.7931 119.221 16.8848 119.276 17.0315C119.321 17.1324 119.349 17.2699 119.394 17.3616C119.494 17.2332 119.604 17.114 119.713 16.9948C119.786 16.9306 119.849 16.8756 119.94 16.8389C119.995 16.8114 120.013 16.8297 120.132 16.7655C120.323 16.6371 120.523 16.5088 120.733 16.3895C121.798 15.7751 122.909 15.0506 124.166 14.2803C124.785 13.8859 125.404 13.4274 126.124 13.0422C126.47 12.8313 126.834 12.6203 127.198 12.3911C127.563 12.1526 127.936 11.9325 128.346 11.7399C128.573 11.6207 128.847 11.5474 129.092 11.4465C132.343 10.1901 135.849 9.46558 139.319 9.62149C140.075 9.68568 140.84 9.71319 141.596 9.86909C142.351 10.0158 143.098 10.1442 143.872 10.2359C144.865 10.4468 145.812 10.6761 146.859 10.6853C147.296 10.6944 147.77 10.8962 148.261 11.0796C148.762 11.2539 149.272 11.4281 149.8 11.4373C150.192 11.4373 151.084 11.8317 151.476 12.1435C152.724 13.2623 154.272 13.8676 155.583 14.8855C157.086 16.0135 158.506 17.2608 159.808 18.6272C160.491 19.26 160.901 20.1129 161.775 20.6356C161.985 20.764 162.249 21.0667 162.477 21.4335C162.695 21.8003 162.886 22.2222 163.014 22.5432C163.387 23.5611 163.934 24.4415 164.471 25.2852C165.017 26.2023 165.3 26.6609 165.491 27.1561C165.7 27.6422 165.837 28.1557 166.046 29.192C166.101 29.4396 166.165 29.7056 166.238 29.9532C166.984 32.466 167.185 35.1347 167.449 37.6659C167.485 38.1427 167.512 38.6196 167.531 39.0873L167.503 40.5088L167.485 40.949L167.449 41.2425L167.585 41.2608C167.676 41.27 167.795 41.2425 167.922 41.2792C168.068 41.325 168.013 41.3617 168.414 41.7194C168.496 41.8111 168.942 41.9303 169.161 41.9303C170.982 41.9486 172.694 42.9207 174.297 43.7553C175.854 44.5623 177.466 45.1126 178.859 46.3323C180.152 47.4695 181.491 48.6066 182.638 49.9181C183.503 50.9177 183.931 51.6055 184.022 52.1099C184.123 52.6143 183.895 52.9444 183.385 53.3021C182.966 53.5956 182.611 53.6506 182.21 53.4672C181.81 53.2746 181.345 52.8436 180.644 52.1833C177.721 49.432 174.57 46.8917 171.528 45.6995H171.465Z" fill="#87857A"/>
<path d="M31.9176 103.788C31.9449 103.494 31.9996 103.201 31.9814 102.907C31.9814 102.797 32.1908 102.705 31.781 102.549C31.5807 102.467 32.0815 102.421 32.0724 102.311C32.0451 102.027 32.1544 101.77 32.1362 101.486C32.1179 101.211 31.9905 100.926 31.9814 100.651C31.9723 100.376 32.2454 100.147 32.036 99.8533C31.8539 99.5965 32.2727 99.4589 32.2181 99.2388C32.1544 99.0003 32.1453 98.7527 32.3638 98.5693C32.5277 98.4318 32.719 98.3125 32.6734 98.1383C32.637 98.0282 32.4185 97.8907 32.4549 97.7806C32.4913 97.6889 32.719 97.6156 32.2637 97.423C32.2272 97.4046 32.3183 97.3771 32.3911 97.3679C32.7281 97.3313 32.7372 97.1937 32.5368 97.0561C32.3456 96.9185 32.3911 96.8543 32.4003 96.7626C32.4276 96.5334 32.464 96.3041 32.555 96.0932C32.6279 95.9373 32.8556 95.8181 32.9375 95.6622C33.0286 95.5063 32.8556 95.2586 33.1288 95.1669C33.4019 95.066 33.4293 94.9193 33.4748 94.7634C33.5021 94.6717 33.7389 94.635 33.2836 94.4241C33.238 94.4057 33.2562 94.3691 33.3018 94.3691C33.9939 94.2957 33.2471 93.8188 33.4748 93.6079C33.7116 93.3969 33.6751 93.0943 33.748 92.8192C33.7662 92.7458 33.921 92.7183 33.6114 92.5441C33.5021 92.4799 33.5112 92.4065 33.6114 92.3974C34.1396 92.3515 33.921 92.0581 34.0667 91.8838C34.2306 91.6912 34.094 91.3886 34.5312 91.2877C34.7133 91.2418 34.8408 91.1501 34.4583 90.875C34.2762 90.7466 34.522 90.7099 34.5038 90.609C34.4947 90.5265 34.3217 90.3889 34.3399 90.3156C34.3581 90.2606 34.5494 90.2605 34.6495 90.2422C34.6769 90.2422 34.686 90.2147 34.6677 90.1872C34.3126 89.6736 35.0866 89.6002 35.0866 89.2242C35.0866 88.8391 35.2779 88.5364 35.4873 88.2338C35.5966 88.0687 35.8151 87.9403 36.6803 88.1879C37.0718 88.298 37.4634 88.4814 37.6638 88.6557C37.8095 88.7841 37.9461 88.9216 37.9643 88.995C37.9916 89.1234 38.0462 89.2609 38.0735 89.3893C38.1282 89.6461 38.4287 90.0037 38.1373 90.1138C38.0462 90.1505 38.2375 90.3156 37.8459 90.2147C37.7912 90.2055 37.7548 90.2147 37.773 90.2422C38.2375 90.7466 37.7457 90.875 37.682 91.1685C37.6273 91.4161 38.0007 91.8196 37.7184 91.9847C38.1282 92.2873 38.0007 92.4065 37.8095 92.4891C37.1538 92.7825 37.3268 93.3786 37.1083 93.828C36.8897 94.2866 36.8078 94.791 36.6439 95.2678C36.6165 95.3504 36.8624 95.4971 36.6256 95.5338C36.4071 95.5705 36.5255 95.7356 36.4981 95.8364C36.4708 95.9373 36.5437 96.0657 36.398 96.1207C35.806 96.3775 36.0064 96.8452 35.8607 97.2212C35.715 97.5972 35.5875 97.9732 35.6239 98.3951C35.6513 98.6519 35.8698 98.9362 35.7241 99.1563C35.6603 99.248 35.9062 99.4039 35.4327 99.4222C35.2961 99.4222 35.6239 99.5873 35.633 99.6515C35.6421 99.8257 35.5875 99.9816 35.5602 100.147C35.5238 100.376 35.4509 100.596 35.46 100.825C35.46 100.972 35.6421 101.137 35.6603 101.275C35.6877 101.421 35.6603 101.568 35.6057 101.706C35.5237 101.88 35.3325 102.045 35.2688 102.219C35.1959 102.403 35.3872 102.632 35.1595 102.788C34.7315 103.091 34.8954 103.457 34.8226 103.788C34.7497 104.127 34.686 104.466 34.7679 104.815C34.8135 105.007 34.4128 105.163 34.4037 105.356C34.4037 105.447 33.2471 105.512 32.8556 105.457C32.7827 105.447 32.7008 105.429 32.6734 105.411C32.3183 105.2 31.7628 104.989 31.8174 104.76C31.8903 104.429 31.8721 104.09 31.8994 103.76L31.9176 103.788Z" fill="#87857A"/>
<path d="M154.326 94.6166C154.272 94.3415 154.244 94.0664 154.135 93.8096C154.099 93.7087 154.272 93.562 153.835 93.5528C153.616 93.5528 154.08 93.3419 154.035 93.2502C153.917 93.0117 153.935 92.7458 153.816 92.5074C153.707 92.2781 153.479 92.0763 153.361 91.847C153.252 91.6178 153.397 91.3151 153.097 91.15C152.833 91.0125 153.152 90.7282 153.006 90.5631C152.851 90.3889 152.724 90.2054 152.842 89.9487C152.924 89.7652 153.042 89.5727 152.915 89.4535C152.833 89.3801 152.569 89.3801 152.56 89.2792C152.541 89.1875 152.714 89.0132 152.223 89.0958C152.177 89.0958 152.25 89.0316 152.305 88.9949C152.569 88.7932 152.514 88.6831 152.277 88.674C152.05 88.674 152.05 88.5914 152.013 88.518C151.913 88.3346 151.822 88.1421 151.795 87.9311C151.777 87.7752 151.886 87.5551 151.877 87.39C151.858 87.2158 151.594 87.1332 151.758 86.9039C151.922 86.6747 151.849 86.5371 151.795 86.3996C151.758 86.317 151.931 86.1428 151.449 86.2711C151.403 86.2803 151.394 86.2528 151.43 86.2253C151.931 85.7484 151.057 85.8585 151.103 85.5742C151.148 85.2716 150.939 85.0881 150.811 84.8589C150.775 84.7947 150.875 84.6663 150.529 84.7672C150.401 84.8039 150.365 84.7396 150.429 84.6754C150.793 84.2903 150.429 84.2445 150.429 84.0335C150.42 83.7951 150.119 83.6942 150.356 83.3182C150.456 83.1623 150.474 83.0064 150.019 83.1073C149.81 83.1623 149.946 82.9605 149.864 82.9147C149.8 82.878 149.582 82.9147 149.545 82.8596C149.518 82.8138 149.655 82.6762 149.7 82.5845C149.718 82.557 149.7 82.5387 149.673 82.5387C149.063 82.502 149.518 81.8875 149.236 81.6674C148.954 81.4473 148.844 81.1355 148.735 80.8146C148.68 80.6403 148.708 80.4019 149.409 79.8333C149.728 79.5765 150.092 79.3472 150.347 79.283C150.538 79.2371 150.72 79.2005 150.802 79.2371C150.93 79.283 151.066 79.3381 151.185 79.3839C151.431 79.494 151.895 79.4847 151.822 79.7965C151.795 79.8974 152.041 79.8516 151.731 80.0992C151.685 80.1359 151.676 80.1726 151.704 80.1726C152.396 80.1359 152.195 80.622 152.387 80.8788C152.551 81.0989 153.106 81.0988 153.042 81.4382C153.552 81.3465 153.552 81.5482 153.489 81.7499C153.261 82.4653 153.807 82.7863 153.971 83.309C154.135 83.8317 154.417 84.2995 154.6 84.813C154.627 84.9047 154.918 84.8681 154.763 85.0515C154.618 85.2257 154.809 85.2807 154.855 85.3908C154.891 85.4917 155.037 85.5558 154.964 85.7026C154.645 86.2895 155.082 86.5738 155.173 86.9865C155.273 87.3992 155.364 87.821 155.619 88.1787C155.774 88.3988 156.111 88.5547 156.093 88.839C156.093 88.9582 156.375 88.9858 155.966 89.2334C155.847 89.3067 156.22 89.2976 156.257 89.3618C156.348 89.5177 156.375 89.7011 156.421 89.8662C156.494 90.1046 156.521 90.3522 156.639 90.5723C156.712 90.7098 156.931 90.8016 157.013 90.9391C157.104 91.0767 157.14 91.2326 157.14 91.3977C157.14 91.6086 157.022 91.8379 157.031 92.0488C157.031 92.2597 157.295 92.4248 157.131 92.6632C156.831 93.1126 157.104 93.4244 157.131 93.7912C157.158 94.1581 157.195 94.5158 157.359 94.8551C157.45 95.0477 157.095 95.3045 157.14 95.4971C157.158 95.5888 156.047 95.9097 155.656 95.9372C155.583 95.9372 155.501 95.9372 155.474 95.9372C155.082 95.8088 154.499 95.7446 154.499 95.5337C154.499 95.2127 154.399 94.9101 154.335 94.6075L154.326 94.6166Z" fill="#87857A"/>
<path d="M62.224 131.887C69.7277 131.887 75.8108 125.761 75.8108 118.204C75.8108 110.647 69.7277 104.521 62.224 104.521C54.7202 104.521 48.6371 110.647 48.6371 118.204C48.6371 125.761 54.7202 131.887 62.224 131.887Z" fill="#FFDF9E"/>
<path d="M73.0242 111.216C72.3048 110.115 71.4487 109.097 70.4288 108.263C70.0372 107.979 69.7003 107.575 69.163 107.474C68.8899 107.438 68.6349 106.961 68.2251 106.759C67.1323 106.209 65.9758 105.778 64.7829 105.53C63.6081 105.356 62.4243 105.319 61.2496 105.457C60.1021 105.576 58.8728 105.695 57.8711 106.227C57.4249 106.429 57.006 106.603 56.5871 106.786C56.15 106.942 55.7584 107.172 55.3759 107.428C54.957 107.694 54.6019 108.052 54.1921 108.345C53.8278 108.685 53.4362 108.987 53.072 109.317C52.817 109.556 52.5438 109.794 52.2888 110.042C52.0612 110.308 51.8426 110.592 51.6423 110.886C51.4146 111.271 51.3235 111.693 51.0686 112.096C50.8682 112.491 50.5495 112.903 50.6223 113.353C50.6223 113.389 50.5222 113.564 50.4584 113.646C50.3036 113.839 50.1761 114.077 50.0851 114.325C50.0031 114.572 49.9849 114.82 49.9849 115.031C49.9849 115.434 49.8847 115.755 49.8574 116.122C49.7845 116.608 49.7208 117.104 49.7117 117.599C49.6662 118.094 49.6844 118.589 49.7117 119.084C49.7117 119.46 49.739 119.827 49.7663 120.194C49.7846 120.57 49.821 120.937 49.912 121.304C50.0577 122.074 50.4493 122.817 50.6406 123.514C50.7498 123.862 50.8591 124.211 51.023 124.523C51.2051 124.825 51.3782 125.137 51.5603 125.44C51.7971 125.77 51.9974 126.219 52.389 126.329C52.4254 126.339 52.5256 126.458 52.5529 126.522C53.0629 127.632 54.2194 128.081 55.0936 128.805C56.0498 129.53 57.179 130.053 58.3264 130.41C58.6269 130.511 58.9547 130.649 59.2826 130.557C59.4009 130.52 59.7197 130.612 59.8745 130.667C60.7032 131.062 61.6776 131.007 62.5882 131.016C63.1073 131.016 63.6354 130.979 64.1545 130.878C64.6736 130.823 65.1835 130.704 65.7208 130.658C66.1852 130.649 66.7772 130.42 67.1961 130.044C67.3782 129.842 67.879 129.713 68.216 129.521C68.4892 129.356 68.6804 129.09 68.9445 128.934C69.1722 128.805 69.4362 128.732 69.673 128.595C69.7459 128.558 69.8278 128.494 69.8825 128.439C70.9206 127.32 72.2046 126.439 72.9878 125.073C73.7527 123.725 74.3719 122.267 74.718 120.744C74.7908 120.322 74.8819 119.891 75.0094 119.497C75.1005 119.103 75.2553 118.736 75.492 118.433C75.7106 118.158 75.92 118.149 76.0293 118.553C76.1113 118.846 76.175 119.194 76.1841 119.534C76.1659 120.075 76.1204 120.625 76.0748 121.157C75.8927 122.239 75.7743 123.395 75.1642 124.403C74.9729 124.706 74.9092 125.165 74.5723 125.311C74.5267 125.33 74.4357 125.449 74.4174 125.522C73.9075 127.008 72.7055 128.173 71.5307 129.191C70.529 130.044 69.5819 131.025 68.2797 131.474C67.9974 131.759 67.6332 131.951 67.2507 132.098C66.8682 132.254 66.4675 132.364 66.0851 132.41C64.7646 132.666 63.4351 132.758 62.1056 132.786C60.776 132.758 59.4374 132.621 58.1625 132.217C55.5945 131.41 53.1995 129.934 51.4328 127.879C51.1141 127.549 50.7771 127.301 50.5404 126.806C50.3036 126.357 49.9211 125.816 49.6115 125.311C49.3565 124.835 49.0652 124.339 48.9103 123.844C48.3457 121.799 47.8449 119.717 47.9633 117.59C48.0816 115.489 48.6644 113.426 49.5751 111.537C50.1579 110.409 50.7498 109.235 51.6969 108.336C52.0612 107.924 52.4345 107.456 52.9809 107.263C53.1266 107.199 53.4362 106.768 53.7094 106.539C54.0464 106.254 54.4197 106.016 54.8022 105.796C55.1756 105.557 55.5671 105.347 55.9678 105.163C57.0606 104.604 58.2535 104.264 59.4465 103.98C60.1841 103.843 60.9035 103.632 61.6594 103.595C62.0509 103.549 62.4516 103.549 62.8432 103.577C63.2348 103.604 63.6354 103.595 64.027 103.687C65.0196 103.843 65.9758 104.145 66.9046 104.494C67.3782 104.686 67.8881 104.833 68.3526 105.062C68.8261 105.273 69.2905 105.502 69.673 105.823C71.1209 106.942 72.5324 108.089 73.6161 109.565C74.6815 111.023 75.4829 112.674 76.002 114.398C76.1386 114.893 76.2387 115.379 76.2479 115.865C76.2752 116.352 76.3116 116.828 76.3207 117.324C76.348 117.801 75.8016 118.406 75.5922 118.222C75.5558 118.186 75.5102 118.112 75.492 118.048C75.2826 117.131 74.9274 116.361 74.7271 115.379C74.4357 113.912 73.8256 112.518 73.0151 111.271L73.0242 111.216Z" fill="#FFDF9E"/>
<path d="M108.995 123.862C110.242 132.382 104.514 140.095 97.0742 141.36C88.8966 142.754 80.3183 136.069 79.8812 126.559C80.9194 126.944 84.2341 128.017 88.1043 126.742C90.9911 125.788 92.776 124 93.5591 123.11C93.896 123.541 96.801 127.164 101.691 127.109C105.898 127.072 108.53 124.348 108.995 123.853V123.862Z" fill="#F99191"/>
<path d="M102.629 128.549C101.117 128.677 99.5876 128.485 98.1305 128.054C97.575 127.888 97.1471 127.494 96.4368 127.604C96.0725 127.659 95.8175 126.962 95.3895 126.696C95.0981 126.531 94.834 126.339 94.5699 126.146C94.3332 125.963 93.978 125.669 93.9325 125.623C93.7959 125.504 93.7777 125.477 93.7048 125.403L93.5318 125.22C93.5318 125.22 93.5045 125.247 93.4954 125.256C93.3679 125.431 93.2859 125.587 93.1858 125.733C92.7031 126.21 92.184 126.65 91.6103 127.036C90.472 127.806 89.097 128.136 87.9131 128.714C86.8477 129.218 85.764 128.98 84.6985 129.099C84.1248 129.154 83.542 129.191 82.9592 129.136C82.8135 129.127 82.6678 129.108 82.5312 129.09L82.4311 129.071H82.4219L82.3946 129.053C82.3582 129.026 82.3218 128.989 82.258 128.934C82.1396 128.815 81.912 128.64 81.7298 128.558C81.6934 128.54 81.6661 128.53 81.6479 128.521C81.6479 128.549 81.6661 128.595 81.6843 128.631C81.7663 128.842 82.0577 129.126 82.0395 129.172C82.0212 129.2 81.8482 129.383 82.3582 129.42C82.4037 129.42 82.3127 129.438 82.2489 129.475C82.1578 129.475 82.1579 129.64 82.1488 129.75C82.1488 129.869 82.167 129.989 82.1943 130.099C82.258 130.319 82.3855 130.52 82.5403 130.649C82.8317 130.915 82.9683 131.181 83.0958 131.483L83.3781 132.079C83.4783 132.272 83.6058 132.455 83.7151 132.648C83.9336 133.033 84.1431 133.418 84.398 133.785C84.5802 134.06 84.7168 134.372 84.8807 134.666C85.0628 134.95 85.2358 135.234 85.4453 135.509C85.6456 135.803 85.9735 135.995 86.2375 136.225C86.5107 136.454 86.7566 136.692 86.957 136.968C87.1482 137.261 87.3759 137.499 87.6126 137.72C87.8676 137.912 88.1499 138.068 88.4231 138.242C88.7236 138.444 89.0241 138.838 89.5067 138.508C89.5523 138.481 89.6707 138.545 89.7071 138.6C90.0258 139.141 90.5631 139.242 91.0822 139.315C91.6012 139.407 92.1385 139.288 92.6212 139.508C93.122 139.682 93.6684 139.755 94.1966 139.792C94.7338 139.755 95.2802 139.81 95.7993 139.71C96.0816 139.673 96.4094 139.783 96.6098 139.398C96.6826 139.279 96.9558 139.178 97.1106 139.242C97.5386 139.398 97.9575 139.37 98.3309 139.214C98.7134 139.077 99.0867 138.912 99.4692 138.756C99.9154 138.609 100.325 138.38 100.717 138.132C101.136 137.912 101.527 137.674 102.028 137.536C102.465 137.444 102.948 137.105 103.002 136.445C103.039 136.161 103.485 135.959 103.685 135.674C103.849 135.436 103.877 135.106 104.032 134.877C104.168 134.684 104.46 134.611 104.678 134.473C104.742 134.427 104.806 134.363 104.824 134.29C104.979 133.556 105.388 133.024 105.762 132.437C105.971 132.162 106.162 131.859 106.317 131.548C106.472 131.236 106.654 130.924 106.7 130.576C107.028 129.2 107.264 127.815 107.374 126.403C107.446 125.614 107.492 124.835 108.321 124.147C108.694 123.835 109.122 123.752 109.413 124.11C109.623 124.367 109.832 124.679 109.914 125C110.06 125.513 110.124 126.045 110.206 126.568C110.342 127.641 110.625 128.805 110.16 129.897C110.042 130.227 110.151 130.695 109.677 130.869C109.614 130.896 109.541 131.025 109.55 131.098C109.659 131.914 109.386 132.666 109.076 133.382C108.703 134.07 108.302 134.748 107.884 135.399C107.255 136.537 106.773 137.857 105.68 138.692C105.47 139.545 104.742 140.131 104.022 140.443C102.802 141.067 101.591 141.626 100.371 142.186C99.1231 142.653 97.83 143.13 96.4732 143.195C93.7503 143.424 90.9729 143.048 88.5233 141.901C88.1135 141.7 87.6217 141.782 87.2393 141.351C86.9114 140.911 86.2648 140.718 85.7731 140.407C85.3451 140.086 84.826 139.829 84.4982 139.425C83.2324 137.701 81.6843 136.326 80.6826 134.464L80.3092 133.776L79.9996 133.061C79.7993 132.584 79.5716 132.116 79.435 131.612L79.1892 130.869C79.1072 130.603 79.0161 130.447 78.9524 130.016L78.4971 127.76L78.1966 125.917L78.0326 124.945C78.0053 124.789 77.9689 124.596 77.9598 124.468L77.9416 124.083C78.7338 124.321 79.6536 124.633 80.5551 124.99C81.0287 125.165 81.5022 125.275 81.9575 125.357C82.4128 125.477 82.9592 125.577 83.0503 125.825C83.1596 125.963 83.5967 125.651 83.8699 125.642C84.5528 125.623 85.2358 125.614 85.9097 125.504C86.8385 125.348 87.7674 125.119 88.6052 124.679C89.1152 124.413 89.5159 123.963 89.9621 123.615L90.6542 123.065L90.8272 122.927C90.9365 122.844 91.0822 122.707 91.2096 122.597C91.4737 122.377 91.7196 122.12 91.9746 121.863C92.5392 121.276 93.1038 120.708 93.6138 120.222C94.233 121.084 94.8431 121.992 95.4441 122.689C95.5807 122.844 95.7082 122.955 95.8448 123.083L96.0452 123.266C96.0998 123.321 96.1271 123.331 96.1727 123.367C96.3366 123.486 96.5005 123.596 96.6644 123.707C96.9923 123.927 97.3201 124.128 97.5933 124.404C98.1032 124.917 98.7498 125.238 99.4146 125.431C100.088 125.605 100.781 125.678 101.482 125.697C102.866 125.761 104.286 125.449 105.489 124.697C106.153 124.284 106.991 124.183 107.601 123.633C107.865 123.404 109.058 123.817 109.231 124.202C109.259 124.275 109.268 124.385 109.231 124.459C108.831 125.376 108.448 126.412 107.437 126.99C105.962 127.815 104.305 128.411 102.593 128.576L102.629 128.549Z" fill="#DD4A4A"/>
<path d="M128.291 131.887C135.795 131.887 141.878 125.761 141.878 118.204C141.878 110.647 135.795 104.521 128.291 104.521C120.787 104.521 114.704 110.647 114.704 118.204C114.704 125.761 120.787 131.887 128.291 131.887Z" fill="#FFDF9E"/>
<path d="M139.091 111.216C138.372 110.115 137.516 109.097 136.496 108.263C136.104 107.979 135.767 107.575 135.23 107.474C134.957 107.438 134.702 106.961 134.292 106.759C133.199 106.209 132.043 105.778 130.85 105.53C129.675 105.356 128.491 105.319 127.317 105.457C126.169 105.576 124.94 105.695 123.938 106.227C123.492 106.429 123.073 106.603 122.654 106.786C122.217 106.942 121.825 107.172 121.443 107.428C121.024 107.694 120.669 108.052 120.259 108.345C119.895 108.685 119.503 108.987 119.139 109.317C118.884 109.556 118.611 109.794 118.356 110.042C118.128 110.308 117.91 110.592 117.709 110.886C117.482 111.271 117.391 111.693 117.136 112.096C116.935 112.491 116.617 112.903 116.689 113.353C116.689 113.389 116.589 113.564 116.526 113.646C116.371 113.839 116.243 114.077 116.152 114.325C116.07 114.572 116.052 114.82 116.052 115.031C116.052 115.434 115.952 115.755 115.925 116.122C115.852 116.608 115.788 117.104 115.779 117.599C115.733 118.094 115.752 118.589 115.779 119.084C115.779 119.46 115.806 119.827 115.833 120.194C115.852 120.57 115.888 120.937 115.979 121.304C116.125 122.074 116.516 122.817 116.708 123.514C116.817 123.862 116.926 124.211 117.09 124.523C117.272 124.825 117.445 125.137 117.627 125.44C117.864 125.77 118.065 126.219 118.456 126.329C118.493 126.339 118.593 126.458 118.62 126.522C119.13 127.632 120.287 128.081 121.161 128.805C122.117 129.53 123.246 130.053 124.394 130.41C124.694 130.511 125.022 130.649 125.35 130.557C125.468 130.52 125.787 130.612 125.942 130.667C126.77 131.062 127.745 131.007 128.655 131.016C129.174 131.016 129.703 130.979 130.222 130.878C130.741 130.823 131.251 130.704 131.788 130.658C132.252 130.649 132.844 130.42 133.263 130.044C133.445 129.842 133.946 129.713 134.283 129.521C134.556 129.356 134.748 129.09 135.012 128.934C135.239 128.805 135.503 128.732 135.74 128.595C135.813 128.558 135.895 128.494 135.95 128.439C136.988 127.32 138.272 126.439 139.055 125.073C139.82 123.725 140.439 122.267 140.785 120.744C140.858 120.322 140.949 119.891 141.076 119.497C141.168 119.103 141.322 118.736 141.559 118.433C141.778 118.158 141.987 118.149 142.096 118.553C142.178 118.846 142.242 119.194 142.251 119.534C142.233 120.075 142.187 120.625 142.142 121.157C141.96 122.239 141.841 123.395 141.231 124.403C141.04 124.706 140.976 125.165 140.639 125.311C140.594 125.33 140.503 125.449 140.485 125.522C139.975 127.008 138.773 128.173 137.598 129.191C136.596 130.044 135.649 131.025 134.347 131.474C134.065 131.759 133.7 131.951 133.318 132.098C132.935 132.254 132.535 132.364 132.152 132.41C130.832 132.666 129.502 132.758 128.173 132.786C126.843 132.758 125.504 132.621 124.23 132.217C121.662 131.41 119.267 129.934 117.5 127.879C117.181 127.549 116.844 127.301 116.608 126.806C116.371 126.357 115.988 125.816 115.679 125.311C115.424 124.835 115.132 124.339 114.977 123.844C114.413 121.799 113.912 119.717 114.03 117.59C114.149 115.489 114.732 113.426 115.642 111.537C116.225 110.409 116.817 109.235 117.764 108.336C118.128 107.924 118.502 107.456 119.048 107.263C119.194 107.199 119.503 106.768 119.777 106.539C120.113 106.254 120.487 106.016 120.869 105.796C121.243 105.557 121.634 105.347 122.035 105.163C123.128 104.604 124.321 104.264 125.514 103.98C126.251 103.843 126.971 103.632 127.726 103.595C128.118 103.549 128.519 103.549 128.91 103.577C129.302 103.604 129.703 103.595 130.094 103.687C131.087 103.843 132.043 104.145 132.972 104.494C133.445 104.686 133.955 104.833 134.42 105.062C134.893 105.273 135.358 105.502 135.74 105.823C137.188 106.942 138.6 108.089 139.683 109.565C140.749 111.023 141.55 112.674 142.069 114.398C142.206 114.893 142.306 115.379 142.315 115.865C142.342 116.352 142.379 116.828 142.388 117.324C142.415 117.801 141.869 118.406 141.659 118.222C141.623 118.186 141.577 118.112 141.559 118.048C141.35 117.131 140.995 116.361 140.794 115.379C140.503 113.912 139.893 112.518 139.082 111.271L139.091 111.216Z" fill="#FFDF9E"/>
<path d="M90.2262 104.925C90.2717 105.704 89.7162 106.429 89.607 107.263C89.5432 107.685 89.443 108.098 89.3338 108.52L89.1607 109.134L88.924 109.73C88.7692 110.134 88.6963 110.537 88.6872 110.987C88.6872 111.436 88.1773 111.711 88.3776 112.234C88.3958 112.28 88.3321 112.344 88.3047 112.399C87.8858 113.362 87.4487 114.361 86.7475 115.123C86.3377 115.563 85.9462 115.994 85.6092 116.471C85.2723 116.948 84.908 117.397 84.48 117.791C83.5785 119.571 81.8119 120.552 80.3275 121.726C79.8358 122.056 79.3531 122.45 78.6974 122.523C78.1511 122.606 77.7504 123.22 77.0856 123.092C77.031 123.083 76.9763 123.211 76.9126 123.266C76.7578 123.395 76.6212 123.578 76.439 123.624C75.3372 123.807 75.3463 123.78 74.5631 124.303C74.4721 124.367 74.2899 124.238 74.1716 124.275C73.6889 124.385 73.1972 124.477 72.7236 124.642C72.2956 124.798 71.7948 124.679 71.4487 125.11C71.3759 125.211 71.1664 125.165 71.0207 125.192C70.5563 125.266 70.0828 125.321 69.6183 125.403C69.0811 125.467 68.5256 125.321 68.0065 125.678C67.7788 125.834 67.4328 125.467 67.2962 125.55C67.0412 125.687 66.8044 125.724 66.5495 125.678C66.3036 125.642 66.0759 125.467 65.8301 125.449C65.6206 125.431 65.3929 125.605 65.1744 125.605C64.6371 125.605 64.0907 125.321 63.5808 125.431C63.0253 125.541 62.5244 125.431 62.0236 125.302C61.4954 125.192 60.9763 125 60.4481 124.908C60.0384 124.816 59.7378 124.514 59.4009 124.303C59.064 124.083 58.554 124.183 58.3719 123.697C58.3719 123.679 58.3172 123.67 58.2899 123.661L56.2228 122.404L54.4743 121.304L52.8261 120.057C52.5347 119.8 52.1431 119.616 52.0976 119.13C52.0885 119.029 51.8972 118.993 51.8608 118.892C51.7151 118.497 51.0412 118.754 51.0048 118.277C50.9683 117.856 50.6405 117.7 50.4311 117.434C50.2125 117.131 49.9029 116.893 49.7026 116.562C49.5569 116.342 49.3747 116.186 49.1015 116.122C49.229 115.664 48.7828 115.489 48.7282 115.113C48.6826 114.875 48.6189 114.508 48.4277 114.444C47.9997 114.288 47.9268 113.903 47.7174 113.619C47.3804 113.197 47.2803 112.647 46.8067 112.289C46.6064 112.133 46.5335 111.83 46.4607 111.583C46.3787 111.353 46.4242 111.078 46.3605 110.84C46.233 110.409 46.0691 110.005 45.7321 109.648C45.4225 109.336 45.6229 108.776 45.1584 108.51C45.0947 108.474 45.0856 108.345 45.0947 108.254C45.1493 107.795 45.1402 107.41 44.8033 106.988C44.5574 106.64 44.6303 106.126 44.5665 105.686C44.5028 105.218 44.3206 104.741 44.4208 104.274C44.4754 103.98 43.9473 103.861 44.2569 103.485C44.4208 103.283 44.3115 102.925 44.3115 102.632C44.2933 102.339 44.2387 102.027 44.3389 101.742C44.6029 101.009 44.6029 100.275 44.7031 99.5414C44.8124 98.8077 44.8215 98.0557 45.0674 97.3496C45.2768 96.7626 45.1311 96.0382 45.7231 95.598C45.5318 95.0752 46.0054 94.6625 45.9234 94.1856C45.8779 93.883 45.978 93.6629 46.06 93.4245C46.3696 92.6725 46.7521 91.9388 47.1072 91.2051C47.5352 90.5081 47.9359 89.7928 48.3821 89.1142C49.0014 88.2338 49.5295 87.28 50.249 86.473C50.4402 86.2437 50.6132 85.9869 50.9866 85.8952C51.2689 85.831 51.5967 85.5559 51.6513 85.134C51.6604 85.0515 51.7242 84.9323 51.7879 84.9323C52.562 84.8864 52.6712 84.0886 53.163 83.7217C53.6274 83.3549 54.1192 83.0339 54.6565 82.7863C55.1937 82.5387 55.7219 82.3002 56.2045 81.9793C56.4049 81.8325 56.7509 81.86 56.76 81.4657C57.0606 81.6308 57.1243 81.4473 57.2882 81.2272C57.4521 80.998 57.8164 80.8054 58.0714 80.8604C58.4174 80.9246 58.6451 80.7779 58.9092 80.6954C59.1915 80.6128 59.4647 80.4844 59.747 80.3927C60.3389 80.191 60.949 80.0534 61.5591 79.9434C62.1693 79.8241 62.7703 79.6866 63.3986 79.6591C63.6445 79.6407 63.8904 79.7324 64.1363 79.7508C64.3821 79.7691 64.6189 79.5765 64.8739 79.8241C64.965 79.9158 65.2017 79.8058 65.3747 79.8058C65.9849 79.7783 66.6314 79.9159 67.1687 79.6682C67.706 79.4298 68.2706 79.7691 68.7988 79.3748C68.9445 79.2647 69.1994 79.4023 69.3998 79.384C70.2376 79.3473 71.0116 79.8608 71.8949 79.5215C72.1317 79.8516 72.4778 79.8975 72.8056 79.9617C73.0515 80.0076 73.2791 80.2368 73.5614 79.9708C73.5978 79.9433 73.6798 79.9709 73.7253 79.9892C73.9985 80.1359 74.1898 80.3927 74.5176 80.4661C74.7908 80.512 75.0731 80.4111 75.3554 80.5211C76.4117 80.8788 77.204 81.7409 78.2603 82.071C78.3969 82.447 78.7066 82.5846 78.9889 82.768C79.4806 83.0981 80.1545 83.0889 80.5916 83.5475C81.0105 83.9602 81.4658 84.3821 81.994 84.6022C82.8773 85.0332 83.5148 85.7668 84.1704 86.4546C84.3434 86.6289 84.6166 86.7573 84.5347 87.1241C84.5165 87.2067 84.7168 87.3901 84.8352 87.3809C85.0902 87.3717 85.1175 87.5826 85.2632 87.6652C85.6821 87.8945 85.3087 88.7015 86.019 88.6923C86.3104 89.0683 86.5836 89.4535 86.8204 89.8754C87.0662 90.2789 87.3212 90.6824 87.5489 91.1042C87.6582 91.2968 87.7948 91.4711 87.7219 91.7646C87.6673 91.9663 87.7948 92.2965 87.9769 92.379C88.3958 92.5808 88.4504 92.9659 88.6053 93.2961C88.9877 94.3232 89.4339 95.3412 89.6343 96.4325C89.7345 96.9094 89.7618 97.3954 89.7709 97.8723C89.7709 98.3584 90.0623 98.8261 89.8528 99.3305C89.8346 99.3672 89.8528 99.413 89.871 99.4497C89.9348 99.6331 90.0714 99.8165 90.0714 99.9999C90.0714 100.248 89.8255 100.587 89.9439 100.715C90.1807 100.972 89.9439 101.174 89.9348 101.376C89.8893 101.981 89.3338 102.338 88.6417 102.274C88.4869 102.256 88.3138 102.192 88.1955 102.118C87.4214 101.642 87.4578 101.642 87.3759 100.88C87.3486 100.642 87.3668 100.394 87.3759 100.156C87.3759 99.9174 87.3759 99.6698 87.3759 99.4222C87.3759 98.9361 87.4032 98.4317 87.212 97.9732C87.4214 97.267 87.0298 96.6526 86.9114 95.9923C86.7475 95.3228 86.8295 94.525 86.3469 93.9839C85.8369 93.4703 85.6275 92.8375 85.3087 92.2506C85.0538 91.8196 84.9172 91.306 84.6804 90.8383C84.4345 90.3614 83.9974 90.0038 83.7788 89.5177C83.6331 89.2242 83.6331 88.7749 83.3053 88.6465C82.6041 88.3713 82.3764 87.6377 81.7663 87.3075C80.9376 86.8673 80.3821 86.1153 79.5535 85.7302C79.1163 85.5101 78.6974 85.29 78.2877 85.0515C78.1055 84.9323 77.9234 84.8314 77.7959 84.5838C77.6684 84.327 77.3679 84.1253 77.0036 84.1803C76.8488 84.2078 76.6394 84.1803 76.5756 84.0611C76.3298 83.575 75.838 83.4924 75.4373 83.2999C75.1732 83.1898 74.9729 82.8047 74.7726 82.8597C74.4265 82.9606 74.208 82.7772 73.9439 82.713C73.7527 82.6671 73.525 82.6763 73.443 82.3645C73.4157 82.2819 73.2427 82.2177 73.1698 82.2636C72.7509 82.5295 72.4413 82.2636 72.1044 82.1902L71.4943 82.0435L70.8659 81.9518L69.6183 81.7409C68.9171 81.6583 68.2342 82.0343 67.5512 81.8417C67.1323 82.1902 66.6678 82.0801 66.2216 82.0893C65.8847 82.1076 65.5295 81.9793 65.1835 81.9518C64.8375 81.9334 64.5187 82.0527 64.1272 81.9518C63.6445 81.8234 63.1436 82.071 62.661 82.181C62.3878 82.2269 62.1511 82.502 61.8232 82.2269C61.7777 82.1902 61.6593 82.2269 61.6229 82.2819C61.3679 82.7038 60.9308 82.7771 60.5847 82.7496C60.0201 82.7221 59.5648 82.9606 59.0913 83.1532C58.6997 83.3091 58.3355 83.5383 57.9348 83.6942C57.6434 83.8042 57.4157 84.006 57.0697 84.0427C56.7965 84.0702 56.6234 84.4096 56.3867 84.5838C56.1499 84.758 55.8767 84.8773 55.6491 85.0607L54.8841 85.6385C54.6291 85.8311 54.3651 86.0144 54.1192 86.2254C53.8642 86.4638 53.6274 86.7114 53.3451 86.9223C53.081 87.1241 52.735 87.225 52.4891 87.4451C51.8426 88.1146 51.4874 88.995 50.8591 89.6736C50.9228 90.0313 50.6223 90.1046 50.4311 90.288C50.2489 90.4531 49.994 90.6182 50.1032 90.9758C50.1306 91.0767 50.0577 91.1684 50.0213 91.2693C49.9393 91.4802 49.6297 91.5078 49.657 91.8288C49.6752 92.058 49.4202 92.2323 49.3201 92.4432C49.2381 92.6816 48.9467 92.8467 49.1562 93.186C48.5278 93.3603 49.0287 94.0573 48.6371 94.3507C48.5278 94.4516 48.4459 94.58 48.3548 94.6992C48.3093 94.7542 48.2182 94.8092 48.2273 94.8826C48.2182 96.1023 47.599 97.1203 47.4533 98.285C47.4533 98.4317 47.5261 98.5785 47.5443 98.7252C47.5534 98.7986 47.5534 98.872 47.5261 98.9362C47.2529 99.5323 47.262 99.5323 47.3531 100.138C47.3804 100.284 47.344 100.449 47.3531 100.596C47.3895 100.99 47.2803 101.376 47.4624 101.788C47.6263 102.192 47.2893 102.632 47.1527 103.072C47.0253 103.457 46.8887 103.852 46.9251 104.274C47.1254 105.31 47.1983 106.374 47.4988 107.392C47.5352 107.52 47.4988 107.713 47.6081 107.768C48.0452 107.96 48.3093 108.144 47.8266 108.602C47.7993 108.621 47.8448 108.731 47.8813 108.74C48.3366 108.859 48.2728 109.235 48.3639 109.51C48.455 109.776 48.5551 110.033 48.6917 110.271L49.1562 110.968C49.4749 111.427 49.739 111.895 49.9757 112.39C50.0486 112.555 50.2489 112.711 50.2034 112.867C50.0941 113.197 50.513 113.059 50.5312 113.279C50.5495 113.463 50.7953 113.582 50.7953 113.747C50.768 114.361 51.196 114.747 51.5694 115.031C51.9154 115.306 52.3434 115.517 52.4891 115.902C52.653 116.269 52.8625 116.599 53.1448 116.865C53.418 117.131 53.7185 117.369 53.9917 117.635C54.529 118.213 55.2119 118.626 55.8312 119.094C56.0862 119.286 56.3138 119.58 56.7418 119.442C56.8329 119.415 56.9331 119.525 57.0059 119.598C57.1789 119.772 57.3155 120.011 57.5159 120.139C57.7162 120.277 58.0076 120.24 58.2353 120.295C58.4265 120.341 58.5722 120.46 58.8272 120.377C59.0093 120.322 59.1915 120.524 59.319 120.799C59.5739 121.331 59.92 121.817 60.4937 121.973C60.7487 122.037 60.9945 122.138 61.2495 122.221C61.5045 122.294 61.7595 122.368 62.0236 122.423C62.2421 122.468 62.4425 122.551 62.7066 122.441C62.9433 122.34 63.2712 122.505 63.5079 122.643C63.8813 122.881 64.2546 122.964 64.6735 122.817C64.8192 122.771 64.9832 122.789 65.1289 122.817C65.5842 122.863 66.0486 122.863 66.5039 122.89C66.9683 122.918 67.4237 122.955 67.8881 122.909C68.1067 122.899 68.3434 122.817 68.5347 123.065C68.6622 122.753 68.8989 122.844 69.0993 122.854C69.3998 122.881 69.7003 122.973 70.0008 122.945C70.356 122.918 70.702 122.844 71.0116 122.606C71.303 122.404 71.7401 122.588 72.0224 122.248C72.0771 122.184 72.2501 122.322 72.3411 122.285C72.7054 122.12 73.2154 122.285 73.443 121.79C73.4613 121.744 73.5432 121.716 73.5887 121.735C74.1442 121.982 74.4812 121.515 74.8636 121.258C75.2825 121.001 75.8107 121.084 76.2478 120.873C76.7487 120.625 77.204 120.267 77.7231 120.121C78.1784 120.002 78.5973 119.8 78.9797 119.561C79.344 119.286 79.6901 118.993 80.0634 118.736C80.455 118.479 80.8101 118.176 81.1471 117.856C81.484 117.535 81.8483 117.232 82.1488 116.874C82.4129 116.562 82.5677 116.159 82.8135 115.847C83.0958 115.499 83.3873 115.159 83.6514 114.792L84.4072 113.775C84.5165 113.609 84.5256 113.353 84.8352 113.343C84.8989 113.343 84.9809 113.243 84.9718 113.178C84.9171 112.711 85.1084 112.436 85.5273 112.243C85.6457 112.188 85.6457 112.014 85.7367 111.913C85.9826 111.647 85.8915 111.262 85.9553 110.941C86.0099 110.647 86.4197 110.455 86.1374 110.051C86.101 109.996 86.1465 109.859 86.2103 109.84C87.0207 109.51 86.2558 108.529 86.9752 108.153C86.6747 107.823 87.1391 107.703 87.1391 107.511C87.13 107.227 87.0936 106.951 87.1664 106.685C87.2484 106.438 87.2939 106.172 87.3121 105.915C87.3395 105.438 87.5762 104.98 87.3486 104.475C87.2757 104.31 87.212 104.008 87.5216 103.843C87.5762 103.815 87.5762 103.705 87.558 103.641C87.467 103.118 87.8312 102.494 88.3776 102.348C88.6963 102.265 89.0879 102.274 89.4157 102.348C89.5796 102.384 89.6707 102.632 89.78 102.797C89.9712 103.081 90.2444 103.356 90.3173 103.677C90.3901 104.053 90.3173 104.448 90.2535 104.925H90.2262Z" fill="#00C573"/>
<path d="M143.044 104.925C143.089 105.704 142.534 106.429 142.424 107.263C142.361 107.685 142.26 108.098 142.151 108.52L141.978 109.134L141.741 109.73C141.587 110.134 141.514 110.537 141.505 110.987C141.505 111.436 140.995 111.711 141.195 112.234C141.213 112.28 141.149 112.344 141.122 112.399C140.703 113.362 140.266 114.362 139.565 115.123C139.155 115.563 138.764 115.994 138.427 116.471C138.09 116.948 137.725 117.397 137.297 117.791C136.396 119.571 134.629 120.552 133.145 121.726C132.653 122.056 132.17 122.45 131.515 122.524C130.968 122.606 130.568 123.221 129.903 123.092C129.848 123.083 129.794 123.211 129.73 123.266C129.575 123.395 129.439 123.578 129.256 123.624C128.155 123.807 128.164 123.78 127.38 124.303C127.289 124.367 127.107 124.238 126.989 124.275C126.506 124.385 126.015 124.477 125.541 124.642C125.113 124.798 124.612 124.679 124.266 125.11C124.193 125.211 123.984 125.165 123.838 125.192C123.374 125.266 122.9 125.321 122.436 125.403C121.898 125.467 121.343 125.321 120.824 125.678C120.596 125.834 120.25 125.467 120.114 125.55C119.859 125.687 119.622 125.724 119.367 125.678C119.121 125.642 118.893 125.467 118.647 125.449C118.438 125.431 118.21 125.605 117.992 125.605C117.454 125.605 116.908 125.321 116.398 125.431C115.843 125.541 115.342 125.431 114.841 125.302C114.313 125.192 113.794 125 113.266 124.908C112.856 124.816 112.555 124.514 112.218 124.303C111.881 124.083 111.371 124.183 111.189 123.697C111.189 123.679 111.135 123.67 111.107 123.661L109.04 122.404L107.292 121.304L105.643 120.057C105.352 119.8 104.96 119.616 104.915 119.13C104.906 119.029 104.715 118.993 104.678 118.892C104.532 118.498 103.859 118.754 103.822 118.277C103.786 117.856 103.458 117.7 103.248 117.434C103.03 117.131 102.72 116.893 102.52 116.563C102.374 116.342 102.192 116.187 101.919 116.122C102.046 115.664 101.6 115.49 101.546 115.114C101.5 114.875 101.436 114.508 101.245 114.444C100.817 114.288 100.744 113.903 100.535 113.619C100.198 113.197 100.098 112.647 99.6241 112.289C99.4237 112.133 99.3509 111.83 99.278 111.583C99.1961 111.353 99.2416 111.078 99.1779 110.84C99.0504 110.409 98.8864 110.005 98.5495 109.648C98.2399 109.336 98.4402 108.776 97.9758 108.511C97.9121 108.474 97.903 108.345 97.9121 108.254C97.9667 107.795 97.9576 107.41 97.6207 106.988C97.3748 106.64 97.4476 106.126 97.3839 105.686C97.3201 105.218 97.138 104.741 97.2382 104.274C97.2928 103.98 96.7647 103.861 97.0743 103.485C97.2382 103.283 97.1289 102.925 97.1289 102.632C97.1107 102.339 97.0561 102.027 97.1562 101.742C97.4203 101.009 97.4203 100.275 97.5205 99.5415C97.6298 98.8078 97.6389 98.0558 97.8848 97.3496C98.0942 96.7627 97.9485 96.0382 98.5404 95.598C98.3492 95.0753 98.8227 94.6626 98.7408 94.1857C98.6952 93.883 98.7954 93.663 98.8774 93.4245C99.187 92.6725 99.5694 91.9388 99.9246 91.2052C100.353 90.5082 100.753 89.7929 101.199 89.1142C101.819 88.2338 102.347 87.2801 103.066 86.473C103.258 86.2438 103.431 85.987 103.804 85.8953C104.086 85.8311 104.414 85.5559 104.469 85.1341C104.478 85.0515 104.542 84.9324 104.605 84.9324C105.379 84.8865 105.489 84.0886 105.98 83.7218C106.445 83.355 106.937 83.034 107.474 82.7864C108.011 82.5387 108.539 82.3003 109.022 81.9793C109.222 81.8326 109.568 81.8601 109.577 81.4658C109.878 81.6308 109.942 81.4474 110.106 81.2273C110.269 80.998 110.634 80.8055 110.889 80.8605C111.235 80.9247 111.462 80.778 111.727 80.6954C112.009 80.6129 112.282 80.4845 112.564 80.3928C113.156 80.191 113.766 80.0535 114.377 79.9434C114.987 79.8242 115.588 79.6866 116.216 79.6591C116.462 79.6408 116.708 79.7325 116.954 79.7508C117.2 79.7692 117.436 79.5766 117.691 79.8242C117.782 79.9159 118.019 79.8058 118.192 79.8058C118.802 79.7783 119.449 79.9159 119.986 79.6683C120.523 79.4299 121.088 79.7692 121.616 79.3748C121.762 79.2648 122.017 79.4024 122.217 79.384C123.055 79.3473 123.829 79.8609 124.712 79.5215C124.949 79.8517 125.295 79.8976 125.623 79.9618C125.869 80.0076 126.096 80.2369 126.379 79.9709C126.415 79.9434 126.497 79.9709 126.543 79.9893C126.816 80.136 127.016 80.3928 127.335 80.4662C127.608 80.512 127.89 80.4111 128.173 80.5212C129.229 80.8789 130.021 81.7409 131.078 82.0711C131.214 82.4471 131.524 82.5846 131.806 82.7681C132.298 83.0982 132.972 83.089 133.409 83.5476C133.828 83.9602 134.283 84.3821 134.811 84.6022C135.695 85.0332 136.332 85.7669 136.988 86.4547C137.161 86.6289 137.434 86.7574 137.352 87.1242C137.334 87.2067 137.534 87.3901 137.653 87.3809C137.908 87.3718 137.935 87.5827 138.081 87.6652C138.499 87.8945 138.126 88.7015 138.836 88.6924C139.128 89.0684 139.401 89.4536 139.638 89.8754C139.884 90.279 140.139 90.6824 140.366 91.1043C140.476 91.2969 140.612 91.4712 140.539 91.7646C140.485 91.9664 140.612 92.2965 140.794 92.3791C141.213 92.5808 141.268 92.966 141.423 93.2961C141.805 94.3233 142.251 95.3412 142.452 96.4325C142.552 96.9094 142.579 97.3955 142.588 97.8724C142.588 98.3584 142.88 98.8262 142.67 99.3306C142.652 99.3672 142.67 99.4131 142.688 99.4498C142.752 99.6332 142.889 99.8166 142.889 100C142.889 100.248 142.643 100.587 142.761 100.715C142.998 100.972 142.761 101.174 142.752 101.376C142.707 101.981 142.151 102.339 141.459 102.274C141.304 102.256 141.131 102.192 141.013 102.118C140.239 101.642 140.275 101.642 140.193 100.88C140.166 100.642 140.184 100.394 140.193 100.156C140.193 99.9175 140.193 99.6699 140.193 99.4222C140.193 98.9362 140.221 98.4318 140.029 97.9732C140.239 97.2671 139.847 96.6527 139.729 95.9924C139.565 95.3229 139.647 94.525 139.164 93.984C138.654 93.4704 138.445 92.8376 138.126 92.2507C137.871 91.8196 137.735 91.3061 137.498 90.8384C137.252 90.3615 136.815 90.0038 136.596 89.5178C136.45 89.2243 136.451 88.7749 136.123 88.6465C135.421 88.3714 135.194 87.6377 134.584 87.3076C133.755 86.8674 133.2 86.1154 132.371 85.7302C131.934 85.5101 131.515 85.29 131.105 85.0516C130.923 84.9324 130.741 84.8315 130.613 84.5839C130.486 84.3271 130.185 84.1253 129.821 84.1803C129.666 84.2079 129.457 84.1803 129.393 84.0611C129.147 83.5751 128.655 83.4925 128.255 83.2999C127.991 83.1899 127.79 82.8047 127.59 82.8597C127.244 82.9606 127.025 82.7772 126.761 82.713C126.57 82.6672 126.342 82.6763 126.26 82.3645C126.233 82.282 126.06 82.2178 125.987 82.2636C125.568 82.5296 125.259 82.2637 124.922 82.1903L124.312 82.0435L123.683 81.9518L122.436 81.7409C121.735 81.6584 121.052 82.0344 120.369 81.8418C119.95 82.1903 119.485 82.0802 119.039 82.0894C118.702 82.1077 118.347 81.9793 118.001 81.9518C117.655 81.9335 117.336 82.0527 116.945 81.9518C116.462 81.8234 115.961 82.0711 115.478 82.1811C115.205 82.227 114.968 82.5021 114.641 82.2269C114.595 82.1903 114.477 82.2269 114.44 82.282C114.185 82.7038 113.748 82.7772 113.402 82.7497C112.838 82.7222 112.382 82.9606 111.909 83.1532C111.517 83.3091 111.153 83.5384 110.752 83.6943C110.461 83.8043 110.233 84.0061 109.887 84.0428C109.614 84.0703 109.441 84.4096 109.204 84.5839C108.967 84.7581 108.694 84.8773 108.466 85.0608L107.701 85.6385C107.447 85.8311 107.182 86.0145 106.937 86.2254C106.682 86.4639 106.445 86.7115 106.163 86.9224C105.898 87.1242 105.552 87.2251 105.306 87.4452C104.66 88.1146 104.305 88.995 103.676 89.6737C103.74 90.0313 103.44 90.1047 103.248 90.2881C103.066 90.4532 102.811 90.6182 102.921 90.9759C102.948 91.0768 102.875 91.1685 102.839 91.2694C102.757 91.4803 102.447 91.5079 102.474 91.8288C102.493 92.0581 102.238 92.2323 102.137 92.4433C102.055 92.6817 101.764 92.8468 101.974 93.1861C101.345 93.3603 101.846 94.0573 101.454 94.3508C101.345 94.4517 101.263 94.58 101.172 94.6992C101.127 94.7543 101.036 94.8093 101.045 94.8827C101.036 96.1024 100.416 97.1204 100.271 98.2851C100.271 98.4318 100.343 98.5785 100.362 98.7253C100.371 98.7986 100.371 98.872 100.343 98.9362C100.07 99.5323 100.079 99.5323 100.17 100.138C100.198 100.284 100.161 100.449 100.17 100.596C100.207 100.99 100.098 101.376 100.28 101.788C100.444 102.192 100.107 102.632 99.9701 103.072C99.8426 103.457 99.706 103.852 99.7425 104.274C99.9428 105.31 100.016 106.374 100.316 107.392C100.353 107.52 100.316 107.713 100.425 107.768C100.863 107.96 101.127 108.144 100.644 108.602C100.617 108.621 100.662 108.731 100.699 108.74C101.154 108.859 101.09 109.235 101.181 109.51C101.272 109.776 101.373 110.033 101.509 110.271L101.974 110.968C102.292 111.427 102.556 111.895 102.793 112.39C102.866 112.555 103.066 112.711 103.021 112.867C102.911 113.197 103.33 113.059 103.349 113.279C103.367 113.463 103.613 113.582 103.613 113.747C103.585 114.362 104.013 114.747 104.387 115.031C104.733 115.306 105.161 115.517 105.306 115.902C105.47 116.269 105.68 116.599 105.962 116.865C106.235 117.131 106.536 117.37 106.809 117.635C107.346 118.213 108.029 118.626 108.649 119.094C108.904 119.286 109.131 119.58 109.559 119.442C109.65 119.415 109.75 119.525 109.823 119.598C109.996 119.772 110.133 120.011 110.333 120.139C110.534 120.277 110.825 120.24 111.053 120.295C111.244 120.341 111.39 120.46 111.645 120.378C111.827 120.323 112.009 120.524 112.136 120.799C112.391 121.331 112.737 121.817 113.311 121.973C113.566 122.038 113.812 122.138 114.067 122.221C114.322 122.294 114.577 122.368 114.841 122.423C115.059 122.469 115.26 122.551 115.524 122.441C115.761 122.34 116.089 122.505 116.325 122.643C116.699 122.881 117.072 122.964 117.491 122.817C117.637 122.771 117.801 122.79 117.946 122.817C118.402 122.863 118.866 122.863 119.321 122.89C119.786 122.918 120.241 122.955 120.705 122.909C120.924 122.9 121.161 122.817 121.352 123.065C121.48 122.753 121.716 122.845 121.917 122.854C122.217 122.881 122.518 122.973 122.818 122.945C123.173 122.918 123.519 122.845 123.829 122.606C124.12 122.404 124.557 122.588 124.84 122.248C124.894 122.184 125.067 122.322 125.159 122.285C125.523 122.12 126.033 122.285 126.26 121.79C126.279 121.744 126.361 121.717 126.406 121.735C126.962 121.982 127.299 121.515 127.681 121.258C128.1 121.001 128.628 121.084 129.065 120.873C129.566 120.625 130.021 120.268 130.54 120.121C130.996 120.002 131.415 119.8 131.797 119.561C132.161 119.286 132.507 118.993 132.881 118.736C133.272 118.479 133.628 118.177 133.964 117.856C134.301 117.535 134.666 117.232 134.966 116.874C135.23 116.563 135.385 116.159 135.631 115.847C135.913 115.499 136.205 115.159 136.469 114.793L137.225 113.775C137.334 113.61 137.343 113.353 137.653 113.344C137.716 113.344 137.798 113.243 137.789 113.178C137.735 112.711 137.926 112.436 138.345 112.243C138.463 112.188 138.463 112.014 138.554 111.913C138.8 111.647 138.709 111.262 138.773 110.941C138.827 110.647 139.237 110.455 138.955 110.051C138.918 109.996 138.964 109.859 139.028 109.84C139.838 109.51 139.073 108.529 139.793 108.153C139.492 107.823 139.956 107.704 139.956 107.511C139.947 107.227 139.911 106.951 139.984 106.686C140.066 106.438 140.111 106.172 140.13 105.915C140.157 105.438 140.394 104.98 140.166 104.475C140.093 104.31 140.029 104.008 140.339 103.843C140.394 103.815 140.394 103.705 140.375 103.641C140.284 103.118 140.649 102.494 141.195 102.348C141.514 102.265 141.905 102.274 142.233 102.348C142.397 102.384 142.488 102.632 142.597 102.797C142.789 103.081 143.062 103.357 143.135 103.678C143.207 104.054 143.135 104.448 143.071 104.925H143.044Z" fill="#00C573"/>
<path d="M97.6116 103.788C97.4567 103.788 97.302 103.76 97.1471 103.806C97.0925 103.824 97.0288 103.613 96.9741 104.035C96.9468 104.246 96.8921 103.742 96.8375 103.769C96.6918 103.824 96.5552 103.751 96.4095 103.797C96.2729 103.843 96.1272 104.017 95.9906 104.072C95.854 104.118 95.7083 103.888 95.5808 104.145C95.4625 104.365 95.3623 103.971 95.253 104.063C95.1346 104.164 95.0162 104.228 94.8979 104.035C94.8159 103.898 94.7339 103.723 94.652 103.815C94.5973 103.87 94.5518 104.118 94.4972 104.099C94.4425 104.081 94.3879 103.87 94.3423 104.365C94.3423 104.411 94.315 104.319 94.3059 104.246C94.2513 103.925 94.1784 103.943 94.1329 104.164C94.0874 104.374 94.0418 104.347 94.0054 104.356C93.887 104.384 93.7686 104.402 93.6502 104.356C93.5592 104.319 93.4772 104.136 93.3862 104.09C93.2951 104.044 93.1949 104.264 93.113 104.026C93.031 103.788 92.9491 103.797 92.8671 103.797C92.8216 103.797 92.7669 103.567 92.7214 104.072C92.7214 104.118 92.7032 104.108 92.6941 104.072C92.5575 103.421 92.43 104.274 92.2843 104.118C92.1386 103.953 92.002 104.072 91.8563 104.09C91.8199 104.09 91.7743 103.953 91.7379 104.31C91.7288 104.439 91.6833 104.448 91.6651 104.356C91.5558 103.861 91.4465 104.164 91.3372 104.081C91.2097 103.989 91.0914 104.219 90.9639 103.833C90.9092 103.668 90.8364 103.586 90.7726 104.044C90.7453 104.255 90.6816 104.044 90.636 104.09C90.5996 104.127 90.5632 104.347 90.5267 104.347C90.4994 104.347 90.463 104.164 90.4357 104.081C90.4266 104.053 90.4175 104.053 90.4084 104.081C90.2262 104.604 90.0441 103.907 89.862 104.044C89.6799 104.191 89.4977 104.127 89.3065 104.053C89.2063 104.017 89.0971 103.87 89.0333 102.971C89.006 102.568 89.006 102.137 89.0424 101.88C89.0697 101.687 89.1062 101.513 89.1426 101.467C89.1972 101.394 89.261 101.284 89.3156 101.211C89.434 101.055 89.5524 100.642 89.6707 100.862C89.7072 100.935 89.7527 100.697 89.78 101.091C89.78 101.146 89.7983 101.174 89.8074 101.146C89.9713 100.523 90.1352 100.935 90.2991 100.89C90.4357 100.853 90.5723 100.358 90.718 100.569C90.8 100.073 90.891 100.165 90.9639 100.312C91.2371 100.835 91.5194 100.486 91.7926 100.55C92.0749 100.624 92.3571 100.55 92.6394 100.578C92.685 100.578 92.7305 100.303 92.7852 100.523C92.8398 100.724 92.9035 100.569 92.9673 100.569C93.0219 100.569 93.0857 100.459 93.1403 100.587C93.3588 101.1 93.5865 100.789 93.8051 100.853C94.0236 100.908 94.2422 100.954 94.4699 100.834C94.6064 100.761 94.7339 100.486 94.8705 100.587C94.9252 100.633 94.9889 100.367 95.0436 100.825C95.0618 100.954 95.1164 100.605 95.1528 100.587C95.2439 100.55 95.335 100.578 95.426 100.578C95.5535 100.578 95.681 100.614 95.8085 100.569C95.8905 100.541 95.9633 100.348 96.0452 100.303C96.1272 100.257 96.2092 100.257 96.2911 100.303C96.3913 100.358 96.5006 100.532 96.6008 100.578C96.71 100.624 96.8193 100.413 96.9195 100.624C97.1107 101.027 97.3019 100.825 97.4932 100.871C97.6844 100.917 97.8757 100.954 98.0578 100.853C98.1671 100.798 98.2672 101.192 98.3674 101.192C98.4129 101.192 98.4858 102.348 98.4585 102.742C98.4585 102.815 98.4493 102.898 98.4402 102.925C98.3401 103.292 98.2399 103.861 98.1215 103.824C97.9485 103.769 97.7755 103.806 97.6025 103.806L97.6116 103.788Z" fill="#00C573"/>
<path d="M56.332 102.87C56.6416 102.449 57.0332 102.082 57.3519 101.66C57.4794 101.504 57.7617 101.513 57.616 101.064C57.5523 100.834 58.0167 101.064 58.1442 100.935C58.4811 100.569 58.9 100.303 59.2734 99.9816C59.6194 99.6423 59.9473 99.2571 60.3389 98.9453C60.7486 98.6702 61.2768 98.6152 61.6047 98.2116C61.8961 97.8356 62.3787 98.0558 62.7156 97.8448C63.0708 97.6064 63.4806 97.423 63.9177 97.4963C64.2364 97.5422 64.5551 97.6614 64.8192 97.5238C64.9831 97.4413 65.1106 97.1479 65.3201 97.1479C65.5113 97.1479 65.739 97.3312 65.8573 96.8268C65.8665 96.781 65.9575 96.8636 66.0122 96.9278C66.2398 97.2212 66.4766 97.1937 66.6405 96.9736C66.8044 96.7535 66.9501 96.781 67.1049 96.7626C67.5329 96.726 67.9701 96.7535 68.3981 96.8268C68.7168 96.9094 69.0082 97.1295 69.3087 97.2212C69.6183 97.3312 70.019 97.1937 70.2558 97.4872C70.4925 97.7898 70.7566 97.8724 71.0389 97.9549C71.2028 98.0007 71.303 98.285 71.6035 97.8631C71.6308 97.8265 71.6855 97.854 71.7037 97.8999C71.9131 98.661 72.6599 98.0833 73.0423 98.4501C73.4066 98.8353 73.9166 98.9728 74.3446 99.2479C74.4629 99.3213 74.4994 99.5231 74.809 99.2938C74.9183 99.2204 75.0457 99.2846 75.0457 99.4038C75.0457 100.037 75.5466 100.027 75.7834 100.348C76.0474 100.706 76.5301 100.835 76.5574 101.431C76.5665 101.678 76.6758 101.898 77.1584 101.77C77.3861 101.706 77.3588 102.008 77.5045 102.1C77.6229 102.173 77.8687 102.137 77.9598 102.238C78.0327 102.32 77.9598 102.531 77.9507 102.669C77.9507 102.715 77.9689 102.742 78.0144 102.751C78.8249 102.962 78.5972 103.898 79.0252 104.356C79.4715 104.842 79.6991 105.457 79.8904 106.071C79.9814 106.41 79.9814 106.814 79.2256 107.327C78.8887 107.557 78.4789 107.703 78.1875 107.667C77.978 107.639 77.7686 107.603 77.6866 107.52C77.5591 107.392 77.3952 107.272 77.2677 107.153C76.9763 106.906 76.4846 106.796 76.521 106.392C76.521 106.264 76.266 106.273 76.5665 105.998C76.6121 105.961 76.612 105.906 76.5756 105.906C75.8289 105.814 75.92 105.227 75.6103 104.86C75.3462 104.558 74.7452 104.576 74.6542 104.154C74.1533 104.31 74.0531 104.099 74.0167 103.843C73.871 102.935 73.0514 102.696 72.4868 102.238C71.9131 101.752 71.2119 101.458 70.529 101.174C70.4106 101.119 70.2193 101.348 70.1556 101.091C70.0918 100.862 69.8642 100.963 69.7094 100.908C69.5637 100.862 69.3906 100.917 69.2905 100.779C68.8351 100.147 68.1613 100.339 67.5876 100.275C67.0048 100.174 66.3855 100.174 65.8209 100.367C65.4749 100.495 65.1835 100.825 64.8192 100.807C64.6553 100.807 64.5825 101.1 64.3093 100.697C64.2273 100.578 64.1909 100.963 64.1089 101.009C63.8904 101.137 63.6536 101.174 63.4259 101.275C63.1163 101.421 62.7885 101.513 62.5153 101.724C62.3514 101.852 62.2512 102.1 62.1146 102.256C61.9598 102.412 61.7777 102.522 61.5773 102.605C61.3315 102.724 61.0036 102.742 60.7577 102.88C60.5119 103.036 60.4117 103.384 60.0748 103.411C59.4191 103.485 59.2005 104.026 58.8272 104.393C58.4629 104.778 58.1169 105.191 57.9165 105.695C57.789 105.97 57.3337 106.016 57.1789 106.282C57.1152 106.401 56.0042 106.034 55.6855 105.796C55.6217 105.75 55.5671 105.686 55.558 105.658C55.4032 105.2 55.0662 104.631 55.303 104.301C55.6764 103.833 55.9678 103.311 56.3411 102.843L56.332 102.87Z" fill="#363232"/>
<path d="M128.828 104.705C128.573 104.356 128.3 104.026 127.981 103.742C127.854 103.641 127.881 103.384 127.481 103.567C127.28 103.668 127.517 103.191 127.39 103.109C127.053 102.889 126.807 102.568 126.452 102.384C126.124 102.183 125.696 102.146 125.368 101.981C125.022 101.862 124.794 101.44 124.366 101.541C124.011 101.614 123.911 101.146 123.592 101.137C123.273 101.119 122.955 101.1 122.709 100.844C122.536 100.642 122.345 100.449 122.108 100.486C121.962 100.514 121.798 100.734 121.652 100.697C121.525 100.669 121.379 100.44 121.224 100.917C121.215 100.954 121.161 100.862 121.133 100.789C121.015 100.449 120.824 100.468 120.696 100.688C120.569 100.899 120.469 100.871 120.359 100.871C120.059 100.89 119.767 100.945 119.467 100.908C119.248 100.908 119.002 100.752 118.766 100.734C118.52 100.734 118.319 101.009 118.055 100.825C117.782 100.651 117.573 100.734 117.354 100.798C117.236 100.825 117.017 100.679 117.09 101.183C117.09 101.229 117.054 101.238 117.017 101.211C116.434 100.724 116.444 101.678 116.061 101.678C115.66 101.715 115.369 101.99 115.068 102.228C114.987 102.293 114.814 102.228 114.941 102.577C114.987 102.696 114.905 102.76 114.814 102.724C114.304 102.504 114.24 102.916 113.976 103.045C113.666 103.201 113.575 103.577 113.074 103.558C112.865 103.558 112.646 103.632 112.874 104.072C112.983 104.274 112.719 104.255 112.674 104.384C112.637 104.484 112.737 104.695 112.683 104.769C112.637 104.842 112.446 104.796 112.327 104.815C112.291 104.815 112.273 104.842 112.282 104.879C112.409 105.567 111.581 105.576 111.444 106.099C111.317 106.603 111.053 107.025 110.779 107.456C110.643 107.703 110.406 107.905 109.495 107.786C109.086 107.731 108.676 107.593 108.485 107.373C108.348 107.217 108.22 107.043 108.22 106.915C108.22 106.713 108.193 106.493 108.193 106.291C108.22 105.878 108.011 105.328 108.403 105.062C108.521 104.98 108.393 104.732 108.794 104.833C108.849 104.851 108.903 104.815 108.885 104.778C108.612 103.98 109.286 103.705 109.559 103.219C109.796 102.806 109.705 102.128 110.206 101.889C110.005 101.348 110.306 101.165 110.606 101.073C111.654 100.743 112.154 99.8532 113.02 99.358C113.876 98.8536 114.732 98.3217 115.679 97.9916C115.833 97.9365 115.879 97.6155 116.143 97.7531C116.389 97.8907 116.571 97.6706 116.781 97.6064C116.972 97.5514 117.145 97.3863 117.363 97.4688C118.228 97.799 118.921 97.3679 119.713 97.3954C120.487 97.3954 121.243 97.4963 122.017 97.4688C122.481 97.4596 123.009 97.2763 123.456 97.4964C123.638 97.5881 123.92 97.3955 123.984 97.8907C124.002 98.0283 124.284 97.744 124.412 97.7715C124.73 97.8448 125.031 97.9732 125.331 98.1016L126.561 98.6702C126.816 98.7802 127.162 98.7252 127.417 98.8444C127.69 98.9637 127.945 99.1196 128.154 99.3213C128.419 99.5873 128.619 99.9357 128.874 100.202C129.12 100.486 129.575 100.578 129.684 100.981C129.894 101.724 130.467 102.054 130.859 102.586C131.223 103.127 131.588 103.659 132.006 104.154C132.261 104.429 132.07 104.934 132.252 105.227C132.334 105.374 131.424 106.099 131.05 106.227C130.977 106.254 130.895 106.273 130.859 106.264C130.386 106.163 129.766 106.218 129.639 105.924C129.42 105.484 129.12 105.099 128.81 104.723L128.828 104.705Z" fill="#363232"/>
</svg>
