<svg width="267" height="190" viewBox="0 0 267 190" fill="none" xmlns="http://www.w3.org/2000/svg">
<g clip-path="url(#clip0_1662_1053)">
<path d="M91.9008 189.972V91.0173H121.315V189.972" fill="#DD4A4A"/>
<path d="M119.588 169.311C119.588 165.616 119.631 161.942 119.588 158.247C119.588 156.867 119.802 155.465 119.311 154.043C119.077 153.342 119.652 152.004 119.631 150.73C119.631 147.29 119.61 143.85 119.588 140.41L119.269 130.387C119.205 127.074 119.482 123.655 119.184 120.47C118.928 117.71 119.375 115.204 119.269 112.571C119.162 109.768 119.077 106.859 119.29 104.119C119.439 102.123 119.652 100.127 119.546 98.1523C119.482 96.8994 119.184 95.7527 119.205 94.3937C119.205 94.1176 119.226 93.8203 119.247 93.5443C119.247 93.3532 119.269 93.3956 119.29 93.3319C119.29 93.2258 119.247 93.1196 119.077 93.247C119.013 93.2895 118.949 93.3532 118.906 93.4169C118.864 93.4594 118.949 93.3532 118.949 93.2895C118.949 93.2045 118.928 93.1196 118.864 93.0771C118.565 93.0347 118.139 93.0134 117.798 93.0134C117.073 93.0134 116.37 93.0771 115.794 93.2045C114.686 93.4593 113.706 93.4169 112.661 93.4381C109.826 93.4806 106.992 93.5018 104.157 93.4381C102.025 93.3956 99.9151 93.1833 97.805 93.1196C96.8245 93.0983 95.8014 93.1196 94.7996 93.1621H94.2028C94.2028 93.1621 94.0749 93.1621 93.9684 93.1196C93.9684 93.1196 93.9257 93.1621 93.9044 93.1833C93.8405 93.2258 93.7765 93.3319 93.7552 93.4381C93.7552 93.4169 93.7126 93.8203 93.7126 94.0327V94.7759C93.67 95.774 93.67 96.7508 93.6486 97.7701C93.6486 98.9167 93.3929 100.233 93.9684 101.168C94.0323 101.253 94.011 101.677 93.9684 101.868C93.2224 105.117 94.2028 108.303 94.011 111.594C93.8192 114.992 93.9471 118.474 93.9684 121.914C93.9684 122.827 93.7978 123.804 94.2241 124.654C94.3733 124.951 94.3947 125.906 94.2881 126.374C93.7126 128.922 94.0749 131.597 93.9684 134.188C93.8618 137.161 94.1176 140.134 93.67 143.128C93.4781 144.402 93.3716 146.122 93.9044 147.651C94.1602 148.352 93.9044 149.796 93.9684 150.9C94.011 151.792 94.2668 152.662 94.2668 153.554C94.2668 154.298 94.0536 155.062 93.9471 155.826C93.9257 156.06 93.9044 156.336 93.9471 156.548C94.5439 160.902 93.7339 165.212 93.9044 169.587C94.0749 173.982 94.011 178.442 93.9044 182.859C93.8618 185.301 93.6913 187.806 92.6469 189.463C92.1779 190.206 91.6664 190.206 91.368 189.165C91.1548 188.401 90.9417 187.53 90.8778 186.66C90.7712 185.279 90.6859 183.878 90.5794 182.519C90.4088 179.716 89.9186 176.913 90.1744 174.004C90.2596 173.091 89.9825 172.029 90.4515 171.286C90.5154 171.179 90.558 170.818 90.5154 170.627C89.7907 166.741 90.2596 162.707 90.217 158.757C90.1744 155.402 89.5989 152.132 89.8547 148.734C89.2792 146.865 89.3857 144.678 89.5563 142.788C90.1744 136.142 89.7481 129.453 89.8333 122.806C89.8333 116.053 89.8547 109.279 89.876 102.527C89.876 101.38 89.5563 100.382 89.812 99.0442C90.0465 97.7701 89.8547 96.135 89.8547 94.6697C89.8547 93.9478 89.7481 90.9324 89.8547 89C90.1317 89 90.3662 89.0212 90.622 89.0425L96.2703 89.3398C97.5918 89.3822 98.9347 89.4035 100.277 89.4035C102.942 89.4035 105.627 89.3185 108.292 89.361L114.814 89.4247C117.542 89.4247 120.271 89.4247 122.977 89.4035C122.977 90.9111 123.02 92.4188 123.041 93.9265C123.127 97.133 123.446 100.339 123.319 103.588C123.276 104.969 123.574 106.434 123.041 107.793C122.892 108.175 123.297 109.471 123.319 110.362C123.361 112.571 123.319 114.779 123.319 116.988C123.319 120.067 123.276 123.146 123.319 126.204C123.361 128.072 123.574 129.92 123.638 131.81C123.702 133.763 123.702 135.738 123.638 137.713C123.532 140.198 123.425 142.661 123.319 145.145C123.255 147.715 123.51 150.412 123.255 152.875C122.786 157.462 123.02 162.027 122.977 166.593C122.914 171.137 122.892 175.702 122.977 180.225C123.041 182.795 122.594 185.152 122.594 187.658C122.594 188.826 121.251 190.418 120.782 189.93C120.697 189.845 120.612 189.654 120.569 189.441C120.143 186.978 119.482 184.706 119.525 181.882C119.588 177.699 119.525 173.536 119.525 169.353L119.588 169.311Z" fill="#443B3B"/>
<path d="M70.0737 52.202L70.0793 52.2654C53.3271 54.487 41.1183 69.46 42.6042 86.3815L47.8421 146.03C48.1579 149.625 51.3445 152.286 54.9543 151.968L154.159 143.231L145.581 45.5513L70.0737 52.202Z" fill="#DD4A4A"/>
<path d="M105.49 47.3561C111.839 46.7969 118.188 46.2377 124.537 45.6785C126.894 45.4709 129.333 45.4692 131.754 44.7657C132.965 44.4246 135.287 44.7956 137.472 44.5818C140.7 44.2975 143.927 44.0132 147.174 43.7059C147.51 47.5344 147.845 51.3417 148.181 55.1702C148.79 60.893 149.398 66.5946 150.009 72.3386C150.573 78.0228 150.811 83.9062 151.59 89.3583C152.26 94.0739 152.19 98.3859 152.695 102.924C153.223 107.716 153.746 112.701 153.948 117.436C154.1 120.876 154.187 124.3 154.594 127.717C154.846 129.848 155.317 131.81 155.501 134.139C155.69 136.296 155.651 138.772 156.366 140.585C156.427 140.793 156.496 142.79 156.506 143.642C156.508 144.153 156.51 144.665 156.538 145.217C155.515 145.264 154.47 145.313 153.405 145.365C152.641 145.432 151.853 145.48 151.087 145.526C150.004 145.622 148.971 145.798 148.131 145.978C146.242 146.401 144.561 146.506 142.8 146.682C137.941 147.153 133.059 147.604 128.191 147.969C124.53 148.185 120.911 148.397 117.249 148.613C113.443 148.884 109.411 149.517 105.883 149.55C102.335 149.586 98.9814 149.902 95.5203 150.207C93.5668 150.379 91.2512 150.327 89.6876 151.041C89.5445 151.117 88.7995 151.162 88.456 151.149C82.8065 150.901 77.3924 152.358 71.7062 152.667C68.7879 152.818 65.8151 153.079 62.8424 153.341L58.387 153.776L56.1574 153.973L55.0108 154.074C54.5224 154.117 54.0303 154.117 53.5539 154.053C51.4183 153.857 49.5176 152.682 47.8985 151.545C47.2475 151.198 45.9825 149.22 45.8416 148.103C45.6954 147.412 45.6174 146.524 45.6559 145.988L45.6153 144.307C45.5593 143.183 45.4821 142.06 45.3837 140.939C45.1868 138.697 44.9225 136.418 44.7911 134.191C44.4497 129.084 43.7454 123.988 43.7399 118.809C43.7397 116.613 43.5859 113.643 42.8247 111.067C42.464 109.884 42.4996 107.365 42.2725 105.509C42.0944 103.969 41.7096 102.511 41.5759 100.988C41.4626 99.6977 41.5597 98.3676 41.5507 97.0468C41.5385 96.6642 41.5171 96.1758 41.4412 95.7988C41.1291 93.9506 40.9019 92.0948 40.7172 90.2353C40.5538 88.374 40.394 86.5549 40.4068 84.5075C40.4186 80.4992 41.1635 76.5541 42.3904 72.7372C44.8386 65.0398 50.4753 58.3193 57.5999 54.4092C61.5152 52.2099 66.1179 51.0158 69.1936 51.6827C69.7587 51.7822 70.0921 51.9234 70.1088 52.1137L69.9344 52.3209C69.9344 52.3209 70.0562 52.2462 70.1043 52.306C70.0573 52.5019 69.6512 52.7509 68.8841 53.0316C67.6342 53.4188 66.2736 54.0075 64.9038 54.4906C63.8025 54.8647 62.7586 55.4042 61.7072 55.8592C60.7114 56.4585 59.685 56.9539 58.7546 57.5687C54.8303 60.1525 51.777 63.64 48.9908 67.4878C48.5738 68.1 48.2085 68.8143 47.7971 69.49C47.4513 70.1812 47.1017 70.8301 46.6274 71.2769C46.5111 71.415 46.1716 71.9352 46.1339 72.2369C45.2279 75.3222 44.6073 78.4889 44.3763 81.7066C44.1971 83.321 44.317 84.9304 44.3557 86.5896C44.5062 88.3029 44.6335 89.997 44.7609 91.691C45.3105 97.4617 46.3741 102.995 46.6301 108.834C47.4839 111.978 47.7084 115.752 47.8227 119.003C48.0269 124.741 48.4647 130.457 48.9874 136.166L49.784 144.75L49.8787 145.829C49.926 146.123 49.9233 146.337 50.0093 146.585C50.137 147.064 50.3265 147.516 50.5991 147.94C51.1424 148.766 51.9505 149.441 52.8777 149.764C53.3421 149.936 53.8417 150.02 54.3569 150.039C54.764 150.046 55.6752 149.944 56.3566 149.905L60.7095 149.522L69.4367 148.753L86.8909 147.216C88.8657 147.042 90.5578 146.573 92.8945 146.623C95.1021 146.663 97.9095 146.224 100.436 146.001C102.772 145.796 105.203 145.454 107.403 145.409C116.543 145.201 125.706 144.032 134.863 143.289C140.702 142.775 146.567 142.301 152.408 141.808C152.195 139.631 151.963 137.477 151.755 135.343C151.185 129.829 150.385 124.379 150.024 118.805C149.859 116.432 149.342 113.962 149.667 111.568C149.758 110.899 149.159 108.714 149.004 107.193C148.672 103.406 148.338 99.5991 148.005 95.8129C147.543 90.5461 147.078 85.2581 146.618 80.0125C146.293 76.8011 145.802 73.6471 145.456 70.4376C145.097 67.0801 144.8 63.6958 144.568 60.327C144.316 56.2354 144.067 52.186 143.815 48.0944L143.787 47.7771L142.897 47.8768C141.92 47.9628 140.945 48.07 139.992 48.1753C138.059 48.3455 136.148 48.5138 134.292 48.5708C126.352 48.8012 118.516 49.7258 110.634 50.3774C102.793 51.0041 94.9561 51.6731 87.1495 52.4459C82.7172 52.9003 78.6419 52.7903 74.312 53.1929C72.2948 53.3706 69.4386 52.2793 70.2258 51.741C70.3671 51.6433 70.6994 51.5288 71.0354 51.4566C75.245 50.6595 79.0945 49.6597 83.9608 49.2737C91.1378 48.6415 98.3574 48.0056 105.534 47.3735L105.49 47.3561Z" fill="#443B3B"/>
<path d="M147.001 45.4284C164.477 43.8891 179.902 56.7696 181.431 74.178L186.669 133.828C186.985 137.424 184.311 140.601 180.701 140.919L130.46 145.344C126.85 145.662 123.663 143.001 123.347 139.405L118.109 79.7553C116.581 62.3468 129.525 46.9677 147.001 45.4284Z" fill="#DD4A4A"/>
<path d="M183.541 117.946C183.129 113.25 182.718 108.575 182.306 103.879C182.154 102.145 182.208 100.328 181.562 98.5732C181.248 97.6842 181.675 95.9627 181.511 94.3359C181.128 89.9785 180.721 85.5806 180.317 81.2251L179.609 74.8714C179.323 72.8289 178.982 70.8979 178.406 68.9662C177.303 65.1838 175.618 61.3462 172.976 58.552C170.713 56.1721 168.777 53.8699 166.062 52.1907C163.189 50.4187 159.97 49.1035 156.828 48.1652C155.7 47.753 154.508 47.5809 153.326 47.28C152.14 47.1713 150.926 47.0011 149.734 47.0635C148.99 47.129 148.251 47.2367 147.533 47.3426C146.793 47.4504 146.065 47.6851 145.258 47.7561C144.515 47.8216 143.711 47.935 142.958 48.1292C142.207 48.3446 141.475 48.537 140.942 49.0528C140.863 49.1238 140.191 49.2682 139.851 49.2982C139.023 49.3711 138.146 49.6189 137.367 50.0072C136.586 50.3744 135.828 50.7609 135.336 51.2519C134.322 52.1299 133.322 52.6869 132.363 53.4536C129.692 55.458 127.362 57.9227 125.441 60.6499C124.06 62.7113 122.663 64.838 121.802 67.216C120.886 69.7053 120.531 72.4863 120.164 74.8847C120.067 75.4901 119.95 76.0973 119.895 76.6989C119.884 77.2968 119.895 77.914 119.883 78.5119C119.858 79.6865 120.037 80.9923 120.125 82.2422C120.252 83.6805 120.145 85.3951 120.823 86.5292C120.896 86.6293 120.923 87.1812 120.903 87.4387C120.522 91.6289 121.855 95.6041 122.032 99.8091C122.22 104.141 122.735 108.551 123.141 112.927C123.243 114.091 123.183 115.354 123.702 116.395C123.884 116.763 124.013 117.988 123.959 118.589C123.67 121.876 124.33 125.25 124.514 128.559C124.615 130.447 124.846 132.345 125.011 134.228C125.095 135.18 125.179 136.131 125.22 137.087L125.259 138.512L125.261 139.748C125.214 140.924 126.287 142.663 127.819 142.805C128.49 142.895 129.482 143.469 130.703 143.233C131.846 143.09 132.927 142.739 134.053 142.64C135.008 142.556 136.004 142.681 136.99 142.701C137.289 142.696 137.631 142.687 137.924 142.619C143.414 141.538 149.006 141.856 154.576 141.195C160.167 140.532 165.863 140.094 171.5 139.704C174.604 139.473 177.825 139.36 180.04 140.21C181.036 140.591 181.081 141.098 179.79 141.51C178.832 141.808 177.746 142.117 176.648 142.278C174.873 142.54 173.118 142.78 171.407 143.037C167.834 143.523 164.309 144.323 160.571 144.397C159.395 144.415 158.082 144.808 157.085 144.427C156.952 144.375 156.46 144.375 156.251 144.436C151.367 145.591 146.166 145.58 141.137 146.066C138.994 146.276 136.884 146.611 134.793 146.923C133.737 147.08 132.679 147.216 131.619 147.331L130.812 147.402C130.493 147.43 130.111 147.463 129.766 147.43C129.056 147.386 128.342 147.3 127.679 147.06C126.083 146.923 124.404 146.069 123.216 144.724C122.008 143.402 121.317 141.63 121.219 140.019C121.031 131.296 119.916 122.995 119.233 114.487C118.479 105.899 117.746 97.3089 117.014 88.7192C116.885 87.2597 116.455 86.0186 116.56 84.2828C116.67 82.6105 116.242 80.6657 116.17 78.6258C116.01 76.8067 116.075 74.8612 116.332 73.1546C117.816 66.1814 120.526 59.2709 125.596 54.1348C128.069 51.5935 130.915 49.4031 134.063 47.719C137.212 46.0561 140.597 44.884 144.087 44.1716C148.314 43.3303 152.785 43.0645 157.093 44.1132C157.993 44.375 158.951 44.5677 159.871 44.8064C160.793 45.0663 161.665 45.501 162.443 46.072C162.896 46.3518 164.6 46.7559 165.716 47.2758C168.365 48.6839 170.889 50.38 173.043 52.4924C176.096 55.3356 178.56 58.7849 180.408 62.523L181.263 64.2169L181.996 65.9855C182.526 67.1538 182.869 68.3812 183.191 69.6105C183.582 70.8976 183.659 72.2551 183.882 73.5784C184.04 74.8861 184.103 76.0955 184.215 77.3647C184.385 80.5257 184.556 83.6868 184.726 86.8478C184.951 90.1321 185.504 93.5151 185.525 96.6681C185.568 102.526 186.313 108.323 186.781 114.143C187.224 119.923 187.712 125.721 188.304 131.488C188.378 132.334 188.443 133.075 188.477 133.946C188.501 134.945 188.351 135.918 188.002 136.822C187.326 138.63 186.024 140.13 184.379 141.128C183.609 141.622 182.458 141.68 181.728 141.404C180.976 141.129 180.64 140.711 180.896 140.454C180.994 140.36 181.197 140.235 181.404 140.153C182.753 139.672 183.735 138.669 184.323 137.573C184.91 136.455 185.147 135.262 185.048 133.885C184.645 128.57 184.115 123.267 183.649 117.957L183.541 117.946Z" fill="#443B3B"/>
<path d="M147.882 54.005L148.137 53.9826C161.26 52.8267 172.829 62.4871 173.977 75.5593L178.617 128.398C178.855 131.106 176.838 133.479 174.141 133.717L136.173 137.061C133.455 137.3 131.075 135.293 130.839 132.606L126.199 79.7675C125.051 66.6953 134.759 55.1609 147.882 54.005Z" fill="#8B3F48"/>
<path d="M175.707 114.991L174.709 103.632C174.542 102.219 174.65 100.76 174.033 99.3431C173.734 98.6234 174.189 97.2191 174.054 95.9307C173.744 92.3982 173.413 88.8676 173.081 85.3371C172.718 81.9371 172.24 78.4408 171.842 75.1292C171.444 72.0522 170.583 68.824 168.744 66.4067C167.172 64.3496 165.944 62.3048 163.927 60.7772C161.798 59.1955 159.357 57.961 156.958 56.9573C155.189 56.3032 153.354 55.6334 151.412 55.6979C150.81 55.6656 150.24 55.7584 149.649 55.8531C149.06 55.9689 148.485 55.9983 147.809 56.1004C147.217 56.174 146.578 56.2089 145.964 56.2843C145.354 56.402 144.799 56.664 144.383 57.0417C144.325 57.1108 143.767 57.096 143.493 57.1415C142.834 57.1994 142.118 57.3265 141.476 57.5748C140.86 57.8636 140.27 58.214 139.85 58.5494C139.083 59.3204 138.237 59.672 137.499 60.2912C135.367 61.8432 133.547 63.7728 132.044 65.9089C130.9 67.5018 129.917 69.2296 129.181 71.085C128.499 73.0635 128.416 75.2877 128.091 77.1921C127.807 79.0717 128.028 81.0986 128.21 83.1715C128.312 84.3349 128.178 85.7322 128.835 86.6336C128.906 86.7126 128.924 87.1587 128.898 87.3528C128.448 90.7603 129.713 93.9529 129.819 97.3542C129.935 100.861 130.376 104.425 130.707 107.955C130.791 108.907 130.708 109.916 131.209 110.746C131.384 111.029 131.492 112.021 131.429 112.517C131.084 115.17 131.688 117.909 131.816 120.583C131.978 123.639 132.502 126.683 132.327 129.811C132.3 130.474 132.282 131.243 132.373 132.045C132.414 132.51 132.475 132.718 132.604 132.962C132.732 133.207 132.921 133.404 133.148 133.554C133.533 133.797 133.924 134.594 134.626 134.788C134.89 134.871 135.166 134.847 135.399 134.827C135.716 134.777 135.755 134.731 136.305 134.662C137.091 134.592 137.874 134.736 138.69 134.771C138.926 134.772 139.225 134.767 139.455 134.704C143.883 133.717 148.413 134.128 152.9 133.562C157.408 132.995 162.022 132.652 166.575 132.358C169.084 132.179 171.69 132.12 173.48 133.007C174.285 133.405 174.33 133.913 173.294 134.303C172.527 134.583 171.654 134.873 170.767 135.015C169.354 135.246 167.917 135.458 166.525 135.687C163.631 136.113 160.807 136.852 157.769 136.864C156.827 136.861 155.747 137.234 154.942 136.836C154.83 136.781 154.444 136.773 154.257 136.832C150.328 137.903 146.104 137.806 142.03 138.207C140.291 138.382 138.605 138.679 136.896 138.958L136.242 139.058C135.945 139.084 135.647 139.111 135.348 139.116C134.75 139.126 134.14 139.009 133.549 138.848C132.382 138.482 131.294 137.789 130.524 136.812C129.384 136.017 128.548 134.535 128.368 132.973C128.227 131.856 128.224 130.854 128.222 129.853C128.238 122.966 127.209 116.129 126.694 109.289C126.085 102.351 125.495 95.3902 124.907 88.4504C124.803 87.2658 124.396 86.2786 124.528 84.8601C124.648 83.5492 124.308 81.8738 124.175 80.3508C124.091 78.9087 123.861 77.2663 124.146 75.877C125.115 70.1003 127.265 64.3687 131.452 60.1418C135.538 55.9876 141.049 53.2 146.846 52.4337C150.309 51.9155 154.048 51.842 157.508 52.9867C158.963 53.4767 160.639 53.798 161.749 54.9793C162.074 55.2704 163.497 55.6353 164.356 56.1565C166.422 57.5093 168.34 59.1309 169.92 61.0381C172.162 63.6544 173.803 66.7498 174.88 70.0016C175.182 70.9982 175.504 71.9929 175.765 73.0144C175.961 74.0204 176.231 75.1477 176.311 76.0572C176.551 78.0611 176.729 80.0917 176.842 82.1068C176.961 84.6756 177.077 87.2233 177.194 89.7709C177.362 92.4206 177.859 95.148 177.827 97.7087C177.774 102.467 178.42 107.142 178.79 111.842C179.137 116.522 179.526 121.199 180.019 125.845C180.077 126.5 180.135 127.156 180.148 127.794L180.191 128.281L180.14 128.925C180.114 129.353 180.043 129.765 179.927 130.159C179.47 131.776 178.431 133.104 177.056 134.014C176.41 134.454 175.406 134.479 174.784 134.214C174.139 133.93 173.887 133.504 174.079 133.253C174.157 133.161 174.317 133.04 174.483 132.983C175.515 132.551 176.211 131.701 176.542 130.84C176.717 130.399 176.808 129.964 176.832 129.515C176.853 129.022 176.808 128.749 176.734 127.903C176.42 123.604 175.979 119.315 175.602 115.021L175.707 114.991Z" fill="#443B3B"/>
<path d="M87.5215 110.774C96.5866 109.975 103.293 102.008 102.5 92.9776C101.707 83.9475 93.715 77.2744 84.6499 78.0728C75.5847 78.8713 68.8788 86.8389 69.6718 95.869C70.4648 104.899 78.4563 111.572 87.5215 110.774Z" fill="#F5F5F1"/>
<path d="M97.7492 85.424C96.8115 84.249 95.7538 83.1698 94.4829 82.3438C94.0092 82.0658 93.6424 81.5439 92.8854 81.6959C92.5087 81.793 92.3126 81.0216 91.825 80.8301C90.5202 80.3481 89.1573 79.9353 87.7548 79.803C86.3809 79.7535 85.0275 79.9367 83.7277 80.243C82.4454 80.5052 81.0246 80.6516 80.0067 81.4873C79.1244 82.1619 78.0664 82.2977 77.2746 83.0282C76.4441 83.8048 75.7041 84.6373 74.8467 85.3523C74.2293 85.8756 73.5944 86.4431 73.2754 87.196C73.0808 87.6607 73.1522 88.23 72.8921 88.6792C72.6956 89.1228 72.2444 89.5888 72.6592 90.1705C72.7054 90.209 72.5504 90.3932 72.4304 90.489C71.9312 90.8954 71.7764 91.5698 71.9909 92.0625C72.161 92.5377 72.0633 92.8874 72.0773 93.2911C72.0022 94.3849 72.0776 95.4866 72.1935 96.5635C72.2641 97.3673 72.2553 98.242 72.4764 99.0538C72.7012 99.908 73.322 100.642 73.4812 101.481C73.6423 102.34 74.1264 102.98 74.6106 103.619C74.9182 103.955 75.0995 104.557 75.7521 104.435C75.8158 104.43 75.9332 104.547 75.9618 104.63C76.391 106.106 78.0815 106.106 79.0725 106.914C80.1698 107.712 81.5327 108.125 82.8845 108.411C83.2336 108.487 83.615 108.688 83.9924 108.356C84.1299 108.216 84.5002 108.29 84.6581 108.383C85.6149 109.045 86.7181 108.692 87.7429 108.665C88.9606 108.643 90.0277 108.123 91.3091 108.095C91.8687 108.131 92.5508 107.858 92.8736 107.148C92.9925 106.796 93.6046 106.7 93.9663 106.433C94.245 106.196 94.3584 105.781 94.6408 105.585C94.8826 105.415 95.2455 105.404 95.5316 105.251C95.6147 105.222 95.694 105.151 95.7503 105.061C96.5758 103.496 98.2576 102.666 98.9464 101.007C99.5965 99.3935 100.177 97.7224 100.475 95.991C100.519 95.5181 100.625 95.0185 100.821 94.5749C100.973 94.1139 101.278 93.6821 101.777 93.2758C102.237 92.9155 102.745 92.8494 103.043 93.3135C103.265 93.6562 103.494 94.0624 103.573 94.4817C103.633 95.1586 103.713 95.8336 103.75 96.4912C103.72 97.858 103.917 99.3753 103.133 100.681C102.889 101.065 102.987 101.695 102.379 101.834C102.294 101.842 102.179 102.001 102.165 102.087C101.983 104.15 100.382 105.655 99.0492 107.051C97.9124 108.239 96.9576 109.793 95.2785 110.41C94.7444 111.395 93.6044 111.815 92.6332 111.965C89.2424 112.583 85.8535 113.223 82.473 112.497C79.1101 111.728 75.8927 110.178 73.4134 107.775C72.9728 107.387 72.4021 107.224 72.1285 106.545C71.8604 105.929 71.2545 105.364 70.7935 104.744C70.4229 104.18 69.9444 103.604 69.7594 102.959C69.0582 100.335 68.0497 97.8664 68.0067 95.1844C67.9675 92.5447 68.486 89.9199 69.359 87.4343C69.9334 85.9343 70.433 84.3129 71.5892 83.1027C72.0349 82.5731 72.3539 81.8203 73.1977 81.6821C73.4295 81.6403 73.623 80.9199 73.9579 80.5919C74.7672 79.8172 75.7151 79.1582 76.6935 78.6031C78.0336 77.7817 79.5253 77.224 80.9995 76.7104C81.9171 76.4378 82.7986 75.9978 83.7698 75.8483C84.7779 75.6316 85.8045 75.6264 86.8174 75.7078C88.1119 75.8282 89.3631 76.187 90.5718 76.5494C91.823 76.9082 93.2348 77.1462 94.2471 77.9523C96.1064 79.3872 98.0707 80.557 99.5932 82.2987C101.093 84.0211 102.249 85.9868 103.161 88.0807C103.672 89.272 103.527 90.5424 103.718 91.7406C103.812 92.3291 102.561 93.1854 102.075 93.015C101.986 92.9802 101.873 92.9049 101.823 92.8241C101.282 91.7846 100.445 91.027 100.158 89.9439C99.7135 88.2991 98.8541 86.7975 97.7954 85.4626L97.7492 85.424Z" fill="#443B3B"/>
<path d="M14.8352 56.2485L61.6993 52.1186L47.8969 22.8571L14.8352 56.2485Z" fill="#00C573"/>
<path d="M21.6933 46.8633C23.1283 45.4154 24.6058 43.9637 26.0159 42.4754C26.5447 41.9173 27.26 41.5345 27.4581 40.6219C27.5678 40.1647 28.5002 40.0612 28.9672 39.5298C30.2573 38.1373 31.6822 36.8182 32.9723 35.4257L36.6709 31.242C37.9222 29.8955 39.4682 28.7362 40.4942 27.2604C41.3883 25.9881 42.699 25.3184 43.6504 24.2115L43.9992 23.7971L44.6249 23.1239L45.8975 21.7756C46.7613 20.8895 47.6463 20.0016 48.4575 19.2481C48.6488 19.7214 48.8402 20.1948 49.0296 20.647C49.4142 21.6148 49.7793 22.6057 50.1638 23.5736C50.5197 24.4587 50.9716 25.4632 51.1712 25.7866C51.5223 26.3738 52.0553 26.8384 52.3732 27.535C52.6431 28.1719 52.7792 28.9912 53.5558 29.3064C53.6214 29.3219 53.6511 29.6603 53.6659 29.8295C53.6534 30.6618 54.0692 31.499 54.5579 31.9462C55.0465 32.3933 55.2415 32.909 55.5003 33.419C56.2017 34.8278 56.8819 36.2385 57.5002 37.676C57.9596 38.7651 58.274 39.9097 58.7103 40.9795C59.1733 42.111 59.9743 43.1913 60.202 44.3222C60.4315 45.4742 60.9009 46.4346 61.3953 47.4353C61.5524 47.7625 61.5692 47.9529 61.8067 48.4648C62.0423 48.9555 62.338 49.3984 62.8672 49.8206C62.9596 49.8977 63.1453 50.3076 63.1814 50.475C63.3841 51.5654 63.788 52.5102 64.3785 53.6305C62.6659 53.8666 60.8058 54.3716 58.6093 54.4586C56.4692 54.4554 54.7179 54.7376 52.7661 54.9309C52.2565 54.9758 51.6896 54.8553 51.2595 55.3194C51.1027 55.4825 50.5736 55.5504 50.3095 55.4671C48.858 55.0195 47.4031 55.5101 45.9499 55.5316C44.2843 55.5718 42.6503 55.9716 40.955 55.6734C40.2376 55.5448 39.2727 55.5233 38.4698 56.1269C38.1098 56.4143 37.2806 56.2317 36.6704 56.3494C36.1857 56.4347 35.7196 56.7316 35.2312 56.7746C34.8065 56.812 34.3845 56.6361 33.9293 56.5696C33.8 56.5597 33.6495 56.5516 33.5258 56.6052C31.1571 57.4107 28.7083 56.8166 26.2812 57.201C23.854 57.5854 21.3853 57.739 18.9128 57.8504C17.5501 57.9278 16.155 57.8803 15.1509 56.9244C14.7066 56.4946 14.6409 55.9889 15.2094 55.6404C15.6156 55.3915 16.0854 55.137 16.547 55.0323C17.3021 54.8592 18.0804 54.7054 18.8143 54.5341C20.3708 54.2264 21.857 53.6053 23.5143 53.715C24.0314 53.7547 24.5806 53.4292 25.0461 53.8571C25.1154 53.9149 25.3102 53.9403 25.4127 53.8887C27.4943 52.9806 29.7859 53.2475 31.9694 53.0125C33.8343 52.8055 35.5891 52.0754 37.5013 52.1626C38.4916 51.4999 39.7113 51.499 40.7666 51.5765C44.5153 51.8642 48.1729 51.1156 51.8752 50.8746L56.6779 50.494L58.6102 50.3237L58.4993 50.0351C58.4937 49.9716 58.3608 49.9194 58.2933 49.8827C58.201 49.8056 58.2315 49.9095 58.2748 49.6712C58.2098 48.9309 57.6315 48.1933 57.2886 47.4562C56.9725 46.7808 56.5291 46.1165 56.3386 45.4086C55.6346 42.5081 54.0436 39.9841 52.843 37.2765C51.6443 34.5901 50.4456 31.9036 49.065 29.3398C48.6529 28.5449 48.1807 27.7979 47.7261 27.0067L47.5764 26.7642L47.5303 26.7256L47.4591 26.6466C47.4591 26.6466 47.3843 26.5253 47.3731 26.3984C47.3639 26.2927 47.302 26.3195 47.2771 26.279C47.2189 26.3481 47.2134 26.2846 47.1237 25.9942C47.047 25.8517 46.9771 26.5186 46.9596 26.5628C46.9015 26.6318 46.9421 26.6069 46.8046 26.7469L46.1558 27.4009L44.8583 28.7088C43.6595 29.9227 42.4164 31.1193 41.2638 32.3718C40.5606 33.1371 39.996 34.0181 39.2946 34.8046C38.5739 35.6141 37.7877 36.408 36.9958 37.1385C35.9659 38.0818 34.8629 38.925 33.8542 39.8664C32.8068 40.8539 31.9302 42.0821 30.8023 42.8848C28.686 44.3715 27.0619 46.3475 25.2263 48.1078C23.4119 49.8662 21.5994 51.6458 19.9024 53.5218C18.9473 54.5863 17.6947 55.187 16.7128 56.19C16.2615 56.656 14.6724 56.3485 14.5411 55.8272C14.5318 55.7214 14.5206 55.5945 14.5751 55.4832C15.2337 54.2103 15.6495 52.8522 16.7957 51.7708C18.4744 50.1735 20.0801 48.4761 21.7108 46.8191L21.6933 46.8633Z" fill="#443B3B"/>
<path d="M53.5838 19.9104C52.5316 17.6827 49.8648 16.7283 47.6274 17.7788C45.39 18.8293 44.4291 21.4869 45.4813 23.7146L77.0343 90.5208C78.0864 92.7486 80.7532 93.7029 82.9906 92.6524C85.2281 91.6019 86.1889 88.9443 85.1367 86.7166L53.5838 19.9104Z" fill="#E6E3DD"/>
<path d="M79.7317 79.3333C78.5208 76.7542 77.3294 74.1521 76.0567 71.5998C75.5871 70.6394 75.3438 69.5737 74.4182 68.7813C73.9563 68.3957 74.0453 67.2155 73.6045 66.3378L70.1688 59.1374L66.5699 52.2711C65.4275 49.9845 64.5427 47.4619 63.224 45.3613C62.08 43.5437 61.6737 41.5971 60.7015 39.7857C59.6775 37.8723 58.646 35.8742 57.935 33.8692C57.4209 32.4011 56.9493 30.9293 56.1896 29.5894C55.7312 28.7558 55.0716 28.0679 54.6446 27.1037C54.2462 26.2222 53.9991 25.1143 53.1189 24.595C53.0514 24.5583 52.9487 24.1197 52.9283 23.8871C52.8318 22.7871 52.2375 21.6245 51.6434 20.9521C51.1834 20.5877 51.0374 20.3874 50.7178 20.1598C49.8532 19.5752 48.6501 19.7664 47.945 20.5107C47.4124 21.0266 47.0195 21.9138 47.3079 22.7623C47.8802 24.1614 48.9669 25.8135 49.3766 27.3121C49.7901 28.8531 50.4667 30.2216 51.1238 31.6131C51.4936 32.4119 51.6926 33.4601 52.5405 33.8544C52.6079 33.891 52.7632 34.1971 52.7761 34.3452C53.1744 36.9319 55.1098 38.7437 56.026 41.1356C56.969 43.5891 58.2481 45.9703 59.3997 48.3627C59.7121 48.996 59.8852 49.7481 60.5437 50.1804C60.771 50.3309 61.1065 50.9834 61.1611 51.3623C61.488 53.3798 62.6883 55.1071 63.4519 56.9796C64.3227 59.0984 65.5665 61.0777 66.153 63.3707C66.4083 64.3288 66.8826 65.5872 67.8775 66.4374C68.3394 66.8231 68.5883 67.9522 68.995 68.6837C69.3267 69.2939 69.8404 69.7816 70.1528 70.4148C70.4134 70.9461 70.4673 71.5595 70.6254 72.1424C70.6828 72.3079 70.765 72.5138 70.863 72.6543C72.8413 75.4429 73.5437 78.8128 75.1315 81.785C75.9272 83.2922 76.6824 84.8244 77.4181 86.3795L78.4793 88.716L78.9812 89.8015C79.0634 90.0074 79.2094 90.2077 79.3536 90.3869C80.0843 91.1538 81.0172 91.5405 82.3545 92.1474C82.9539 92.393 83.3133 92.8303 82.5509 93.409C81.9878 93.821 81.1799 94.1267 80.3599 94.0497C79.0477 93.9735 77.7353 93.4071 76.7736 92.4474C76.2849 92.0002 75.8127 91.2531 75.5844 90.8469L74.713 89.4529C74.1373 88.5018 73.6253 87.5451 73.2527 86.4695C73.0234 85.8076 72.433 85.1775 72.6054 84.4589C72.6385 84.3494 72.5295 84.0819 72.4565 83.9818C70.5116 81.574 69.6246 78.54 68.2715 75.803C67.1254 73.474 65.5344 71.44 64.632 68.9616C63.4911 67.9111 62.8597 66.3254 62.3955 64.9382C60.745 60.0318 58.1666 55.5269 56.0424 50.8328C53.8915 46.0771 51.5743 41.3787 49.3809 36.6267C49.0112 35.828 48.3839 35.2651 48.1637 34.2187C47.9702 33.2339 47.2559 32.1672 46.7578 31.124C46.3113 30.1828 45.7356 29.2317 45.4378 28.2774C45.1363 27.2808 44.7748 26.3321 44.3921 25.3853C44.0473 24.627 43.331 23.0488 43.467 21.6727C43.5144 20.2616 44.0576 18.8922 44.9898 17.8082C45.945 16.7435 47.2504 16.0103 48.6677 15.8215C50.0638 15.6345 51.5238 15.9322 52.7218 16.6579C53.3111 17.0323 53.8654 17.495 54.2978 18.0324C54.7265 18.5276 55.1156 19.3033 55.2783 19.6939C56.1462 21.5359 57.0354 23.3759 57.9864 25.1892C59.1214 27.3913 60.4844 29.5093 61.4356 31.8129C61.8433 32.8001 62.6064 33.6921 62.5599 34.8685C62.5471 35.2107 63.3591 35.9278 63.6697 36.5399C64.446 38.0702 65.1393 39.6291 65.875 41.1843C66.8982 43.3322 67.8808 45.5051 68.9234 47.6301C69.5713 48.9159 70.3835 50.1232 71.0527 51.4072C71.7486 52.7527 72.4058 54.1442 72.9974 55.5203C73.7517 57.2869 74.4036 59.1053 75.1773 60.8489C75.9796 62.6753 77.0987 64.4525 77.6868 66.2765C78.7771 69.6762 80.5053 72.7852 81.9648 76.0031C83.4225 79.1999 84.882 82.4179 86.4828 85.5381C86.6861 85.9039 86.9791 86.5602 87.1004 87.2103C87.2217 87.8604 87.2155 88.5217 87.1207 89.1482C86.9098 90.4031 86.3037 91.5436 85.4878 92.4895C85.1002 92.9499 84.3237 93.1249 83.7566 93.0044C83.1665 92.8645 82.8395 92.5523 82.8772 92.2506C82.8892 92.1429 82.963 92.0085 83.0617 91.9146C83.6506 91.3085 83.906 90.5612 83.9528 89.875C84.0208 89.1869 83.9033 88.5791 83.7395 87.9327C83.6655 87.5769 83.1978 86.6376 82.8817 85.962L81.8548 83.7717L79.7585 79.3949L79.7317 79.3333Z" fill="#443B3B"/>
<path d="M86.8658 103.307C91.7912 102.873 95.4348 98.5444 95.004 93.638C94.5731 88.7316 90.231 85.1059 85.3055 85.5397C80.3801 85.9735 76.7365 90.3026 77.1674 95.209C77.5982 100.115 81.9404 103.741 86.8658 103.307Z" fill="#C0BEB6"/>
<path d="M91.7974 90.0198C91.3401 89.4419 90.8228 88.912 90.1893 88.5202C89.9427 88.3927 89.8243 88.0194 89.337 88.3181C89.0952 88.4886 89.1456 87.8447 88.8815 87.7614C88.2222 87.5637 87.5804 87.3218 86.8916 87.2759C86.2084 87.2934 85.5613 87.4783 84.9548 87.6383C84.3483 87.7983 83.6152 87.735 83.1908 88.2626C82.8439 88.6982 82.2114 88.5621 81.8607 88.9553C81.4907 89.3716 81.1844 89.7822 80.6952 90.0598C80.3279 90.2627 79.9411 90.4886 79.8259 90.8824C79.7614 91.1226 79.9416 91.469 79.7885 91.6744C79.699 91.8741 79.3529 92.0751 79.8341 92.4377C79.8803 92.4763 79.7566 92.5298 79.6523 92.5603C79.2157 92.7053 79.1586 93.0301 79.3951 93.2864C79.6085 93.5234 79.5384 93.7001 79.5533 93.8693C79.5341 94.3825 79.5787 94.8902 79.6021 95.3997C79.6355 95.7805 79.4815 96.2203 79.5805 96.6166C79.6602 97.0359 80.0702 97.3195 80.0262 97.7923C79.9821 98.2652 80.2241 98.5849 80.4662 98.9046C80.6085 99.0626 80.5994 99.4471 81.1329 99.187C81.1754 99.1832 81.2428 99.2199 81.2272 99.2852C81.1871 100.291 82.3308 99.9127 82.7326 100.346C83.2231 100.815 83.8981 100.947 84.5288 101.062C84.7023 101.089 84.8696 101.288 85.0715 100.908C85.1453 100.773 85.3189 100.801 85.3901 100.88C85.8068 101.482 86.3559 101.157 86.8499 101.177C87.4519 101.21 87.9124 100.849 88.5929 101.045C88.9014 101.146 89.278 101.049 89.2916 100.472C89.2674 100.197 89.6377 100.271 89.7945 100.108C89.9108 99.9698 89.8848 99.6737 90.026 99.576C90.1266 99.5032 90.3676 99.5672 90.5569 99.5293C90.5993 99.5255 90.6593 99.4776 90.6556 99.4353C90.8287 98.4822 91.931 98.3638 92.1983 97.5089C92.4269 96.7001 92.7441 95.9261 92.9283 95.0999C93.0167 94.6445 93.1919 94.2027 94.2008 93.7515C94.6531 93.5411 95.1608 93.4751 95.4822 93.7239C95.7113 93.8956 95.9247 94.1326 95.9895 94.3826C96.0654 94.7596 96.1643 95.1559 96.219 95.5348C96.2877 96.3174 96.5855 97.2717 96.0292 98.0028C95.8548 98.21 96.0193 98.6218 95.4848 98.6263C95.4211 98.6319 95.3417 98.7028 95.3473 98.7663C95.5068 100.095 94.4002 100.896 93.6371 101.709C92.9921 102.406 92.5541 103.51 91.511 103.815C91.3018 104.601 90.5947 104.834 89.9752 104.845C87.8693 104.988 85.9473 105.52 83.9168 105.059C81.927 104.574 80.008 103.677 78.5559 102.249C78.3 102.016 77.8716 102.011 77.7652 101.53C77.6856 101.111 77.2524 100.808 76.9854 100.448C76.7627 100.105 76.4357 99.7925 76.3792 99.3925C76.1918 97.7464 75.4728 96.3816 75.4609 94.7839C75.4527 93.2286 75.7917 91.728 76.2387 90.2392C76.5254 89.3613 76.7335 88.3198 77.4441 87.6391C77.7172 87.3379 77.8213 86.8172 78.4695 86.888C78.643 86.9153 78.6372 86.3616 78.8347 86.1737C79.3072 85.7058 79.872 85.315 80.4424 84.9876C81.2334 84.4916 82.126 84.1786 82.9974 83.8673C83.5384 83.6918 84.0432 83.3489 84.611 83.235C85.1962 83.0768 85.8388 83.0842 86.4427 83.1376C87.2219 83.2395 87.9542 83.5373 88.6579 83.7524C89.3846 83.9869 90.2664 84.0371 90.8298 84.6056C91.8395 85.6251 93.0262 86.224 93.9084 87.2547C94.7695 88.2873 95.4256 89.4231 96.0023 90.63C96.3415 91.3248 96.0686 92.1162 96.1705 92.7893C96.2021 93.1489 94.944 93.6861 94.4638 93.5791C94.377 93.5655 94.2671 93.5325 94.2422 93.4921C93.7461 92.9602 93.0138 92.6624 92.9037 92.1392C92.7251 91.3236 92.276 90.5958 91.7688 89.9371L91.7974 90.0198Z" fill="#443B3B"/>
<path d="M251.206 108.203C249.842 107.269 248.414 106.377 246.858 105.74C246.282 105.506 245.792 104.997 245.003 105.252C244.62 105.379 244.279 104.593 243.703 104.445C242.211 104.041 240.719 103.553 239.163 103.404C237.671 103.213 236.158 103.34 234.666 103.404C233.92 103.425 233.174 103.447 232.449 103.468C231.724 103.553 230.957 103.638 230.339 103.893C229.295 104.36 228.186 104.275 227.291 104.827C226.353 105.443 225.607 106.122 224.968 106.696C224.499 107.099 224.115 107.651 224.243 108.267C224.307 108.628 224.669 108.84 224.797 109.159C224.904 109.456 224.989 109.987 225.628 109.817C225.671 109.817 225.735 109.987 225.735 110.093C225.799 110.645 226.353 110.943 226.758 110.815C227.163 110.709 227.398 110.794 227.675 110.815C228.357 110.879 229.252 110.645 230.019 110.221C230.616 109.902 231.319 109.562 231.831 108.968C232.385 108.331 232.492 107.502 232.961 106.844C233.451 106.165 233.536 105.358 233.536 104.551C233.536 104.105 233.771 103.51 233.152 103.171C233.089 103.149 233.089 102.958 233.11 102.873C233.664 101.387 232.3 100.283 231.938 98.966C231.554 97.5433 230.659 96.2904 229.763 95.1437C229.508 94.8464 229.401 94.3792 228.826 94.3792C228.634 94.3792 228.357 94.0819 228.293 93.8696C227.973 92.6804 226.843 92.1496 226.033 91.3851C225.074 90.5145 223.838 90.0898 222.858 89.1342C222.453 88.7095 221.749 88.3273 220.961 88.6246C220.598 88.752 220.087 88.3273 219.618 88.2848C219.234 88.2211 218.829 88.4122 218.445 88.3273C218.126 88.2636 217.849 88.0087 217.529 87.8813C217.444 87.8389 217.316 87.8176 217.209 87.8389C215.333 88.2423 213.479 87.5203 211.603 88.0087C209.77 88.5396 207.937 89.0917 206.211 89.9199C205.252 90.3658 204.293 90.8118 203.056 90.4508C202.502 90.2809 202.161 89.8987 202.396 89.3678C202.566 88.9856 202.801 88.5396 203.142 88.2636C203.674 87.7964 204.229 87.3505 204.783 86.947C205.955 86.1401 207.149 85.142 208.683 84.9509C209.152 84.9084 209.621 84.4837 210.111 84.866C210.175 84.9084 210.367 84.9084 210.452 84.866C212.264 83.7405 214.481 84.0166 216.484 84.1015C218.211 84.1652 220.023 83.8892 221.685 84.6749C222.794 84.42 223.923 84.9509 224.733 85.5455C227.632 87.6053 230.595 89.4952 232.726 92.3194C234.836 95.1649 236.499 98.3714 237.053 102.003C237.138 102.618 237.522 103.128 237.309 103.893C237.096 104.593 237.266 105.506 237.138 106.335C237.032 107.078 236.968 107.927 236.584 108.585C235.774 109.944 234.943 111.197 233.856 112.28C232.79 113.363 231.469 114.298 229.87 114.68C228.335 115.062 226.502 114.913 225.074 114.234C223.625 113.576 222.325 112.514 221.451 111.049C220.364 109.286 220.129 106.653 221.387 104.848C221.877 104.105 222.282 103.171 223.263 103.022C223.518 103.001 223.859 102.194 224.286 101.896C225.33 101.153 226.481 100.686 227.632 100.304C229.252 99.7517 230.872 99.6243 232.406 99.4119C233.366 99.327 234.303 99.0085 235.284 99.0085C236.307 98.9448 237.33 99.0297 238.332 99.1783C239.611 99.4119 240.826 99.7729 242.041 100.134C243.298 100.452 244.705 100.644 245.792 101.302C247.817 102.512 249.97 103.319 251.909 104.615C253.828 105.889 255.618 107.333 257.302 108.883C258.261 109.775 258.73 110.943 259.476 111.962C259.838 112.45 259.22 113.83 258.687 113.894C258.581 113.894 258.453 113.894 258.368 113.83C257.344 113.151 256.194 112.79 255.362 111.834C254.105 110.454 252.655 109.222 251.099 108.161L251.206 108.203Z" fill="#7A7971"/>
<path d="M256.428 46.4094C254.595 46.2819 252.741 46.3032 250.929 46.5368C250.268 46.6429 249.522 46.4518 248.904 47.0889C248.606 47.3862 247.86 46.9402 247.241 47.0889C245.6 47.5348 243.916 47.917 242.339 48.5966C240.804 49.2548 239.398 50.1255 238.012 50.9961C236.627 51.8243 235.092 52.61 234.048 53.7991C233.174 54.8184 232.001 55.3281 231.255 56.3261C230.467 57.3878 229.806 58.5133 229.081 59.5113C228.549 60.2333 228.08 61.0403 228.037 61.9109C228.037 62.4418 228.25 62.9939 228.25 63.4823C228.229 63.9282 228.122 64.5653 228.783 64.7989C228.826 64.7989 228.783 65.0537 228.783 65.1811C228.591 65.8181 228.996 66.4339 229.444 66.6463C229.913 66.8586 230.104 67.1347 230.382 67.4108C231.17 68.0903 232.065 68.5574 232.854 68.6636C233.43 68.7486 234.112 68.876 234.751 68.5362C235.433 68.1965 235.795 67.4108 236.371 66.8799C236.989 66.3278 237.202 65.4996 237.245 64.7351C237.266 64.3104 237.479 63.7371 236.84 63.4823C236.776 63.461 236.755 63.3124 236.776 63.2275C236.989 62.5267 236.627 61.8897 236.179 61.4013C235.71 60.8916 235.135 60.5306 234.687 59.9997C233.749 58.8743 232.343 58.2585 230.872 57.855C230.488 57.7488 230.083 57.4728 229.614 57.8125C229.465 57.9187 229.039 57.8762 228.847 57.7488C227.76 57.0268 226.438 57.3454 225.202 57.3241C223.753 57.3241 222.367 57.8125 220.833 57.6851C220.193 57.6851 219.298 57.7488 218.765 58.5133C218.509 58.8531 217.763 58.8106 217.273 59.0866C216.889 59.299 216.57 59.66 216.186 59.8299C215.866 59.9785 215.44 59.936 215.056 59.9997C214.95 59.9997 214.822 60.0635 214.737 60.1484C213.117 61.5924 210.921 62.0171 209.301 63.4823C207.724 64.9475 206.126 66.3915 204.698 68.0266C203.909 68.9184 203.099 69.8103 201.756 69.959C201.159 70.0227 200.712 69.7678 200.754 69.152C200.797 68.7061 200.882 68.1965 201.095 67.7718C201.479 67.1347 201.82 66.4339 202.225 65.8181C203.056 64.544 203.781 63.0576 205.145 62.1657C205.55 61.8684 205.849 61.2951 206.445 61.4013C206.531 61.4013 206.701 61.3163 206.765 61.2314C207.98 59.3202 210.133 58.4496 212.008 57.4091C213.607 56.496 215.078 55.2856 216.953 54.8821C217.763 53.9902 219.021 53.7779 220.087 53.693C223.838 53.5443 227.547 52.7586 231.469 53.7991C235.327 54.8184 239.206 57.5153 240.57 61.7835C240.783 62.5055 241.252 63.1001 241.06 64.0556C240.868 64.9263 240.954 66.0092 240.677 66.9648C240.442 67.8142 240.144 68.7486 239.547 69.4068C238.353 70.7234 236.925 71.8701 235.156 72.4222C233.408 72.9743 231.405 72.8044 229.87 71.9763C226.822 70.3199 224.968 67.3683 224.499 64.0132C224.264 61.9958 224.414 59.936 225.33 58.1735C225.714 57.4515 225.884 56.5172 226.758 56.135C226.993 56.0288 227.078 55.1794 227.376 54.7547C228.122 53.7142 229.017 52.8011 229.913 51.9517C231.192 50.7838 232.556 49.7645 233.962 48.7664C234.794 48.1506 235.561 47.4286 236.478 46.8765C237.394 46.2607 238.417 45.836 239.44 45.4113C240.762 44.9441 242.105 44.6256 243.426 44.2859C244.79 43.9249 246.197 43.309 247.582 43.3303C250.14 43.3303 252.591 42.8631 255.128 42.9905C257.622 43.1179 260.115 43.394 262.545 43.8824C263.952 44.1585 265.06 44.9229 266.339 45.4325C266.957 45.6661 267.234 47.1951 266.829 47.5136C266.744 47.5773 266.616 47.6197 266.51 47.6197C265.167 47.556 263.909 47.8109 262.567 47.4074C260.563 46.8553 258.517 46.5155 256.428 46.4094Z" fill="#7A7971"/>
</g>
<defs>
<clipPath id="clip0_1662_1053">
<rect width="267" height="190" fill="white"/>
</clipPath>
</defs>
</svg>
