<svg width="28" height="24" viewBox="0 0 28 24" fill="none" xmlns="http://www.w3.org/2000/svg">
<path d="M25 5.78223H3C1.89543 5.78223 1 6.63872 1 7.69527V21.0866C1 22.1431 1.89543 22.9996 3 22.9996H25C26.1046 22.9996 27 22.1431 27 21.0866V7.69527C27 6.63872 26.1046 5.78223 25 5.78223Z" stroke="white" stroke-width="2" stroke-linecap="round" stroke-linejoin="round"/>
<path d="M13.9929 18.4488C16.1981 18.4488 17.9857 16.684 17.9857 14.5071C17.9857 12.3302 16.1981 10.5654 13.9929 10.5654C11.7877 10.5654 10 12.3302 10 14.5071C10 16.684 11.7877 18.4488 13.9929 18.4488Z" stroke="white" stroke-width="2" stroke-linecap="round" stroke-linejoin="round"/>
<path d="M19 5.78261V2.91304C19 2.40567 18.7893 1.91908 18.4142 1.56032C18.0391 1.20155 17.5304 1 17 1H11C10.4696 1 9.96086 1.20155 9.58579 1.56032C9.21071 1.91908 9 2.40567 9 2.91304V5.78261" stroke="white" stroke-width="2" stroke-linecap="round" stroke-linejoin="round"/>
</svg>
