<svg width="353" height="285" viewBox="0 0 353 285" fill="none" xmlns="http://www.w3.org/2000/svg">
<mask id="path-1-inside-1_1206_6458" fill="white">
<path fill-rule="evenodd" clip-rule="evenodd" d="M333 263C344.046 263 353 254.046 353 243V20C353 8.95435 344.046 4.25577e-05 333 4.11272e-05L20 0C8.95432 -1.43051e-06 1.3616e-05 8.95431 1.29734e-05 20L0 243C0 254.046 8.95429 263 20 263H162.532L176.5 285L190.468 263H333Z"/>
</mask>
<path fill-rule="evenodd" clip-rule="evenodd" d="M333 263C344.046 263 353 254.046 353 243V20C353 8.95435 344.046 4.25577e-05 333 4.11272e-05L20 0C8.95432 -1.43051e-06 1.3616e-05 8.95431 1.29734e-05 20L0 243C0 254.046 8.95429 263 20 263H162.532L176.5 285L190.468 263H333Z" fill="#F5F5F1"/>
<path d="M333 4.11272e-05V1.00004V4.11272e-05ZM20 0V-1V0ZM1.29734e-05 20H1.00001H1.29734e-05ZM0 243H-1H0ZM162.532 263L163.376 262.464L163.082 262H162.532V263ZM176.5 285L175.656 285.536L176.5 286.866L177.344 285.536L176.5 285ZM190.468 263V262H189.918L189.624 262.464L190.468 263ZM352 243C352 253.493 343.493 262 333 262V264C344.598 264 354 254.598 354 243H352ZM352 20V243H354V20H352ZM333 1.00004C343.493 1.00004 352 9.50663 352 20H354C354 8.40206 344.598 -0.999957 333 -0.999959V1.00004ZM20 1L333 1.00004V-0.999959L20 -1V1ZM1.00001 20C1.00001 9.5066 9.50661 0.999999 20 1V-1C8.40203 -1 -0.999986 8.40203 -0.999987 20H1.00001ZM1 243L1.00001 20H-0.999987L-1 243H1ZM20 262C9.50658 262 1 253.493 1 243H-1C-1 254.598 8.40201 264 20 264V262ZM162.532 262H20V264H162.532V262ZM161.688 263.536L175.656 285.536L177.344 284.464L163.376 262.464L161.688 263.536ZM177.344 285.536L191.312 263.536L189.624 262.464L175.656 284.464L177.344 285.536ZM333 262H190.468V264H333V262Z" fill="#C0BEB6" mask="url(#path-1-inside-1_1206_6458)"/>
</svg>
