<svg width="26" height="26" viewBox="0 0 26 26" fill="none" xmlns="http://www.w3.org/2000/svg">
<path d="M2.84615 4.69226C2.35652 4.69226 1.88695 4.88677 1.54073 5.23299C1.1945 5.57921 1 6.04878 1 6.53841V23.1538C1 23.6434 1.1945 24.113 1.54073 24.4592C1.88695 24.8054 2.35652 25 2.84615 25H23.1538C23.6435 25 24.1131 24.8054 24.4593 24.4592C24.8055 24.113 25 23.6434 25 23.1538V6.53841C25 6.04878 24.8055 5.57921 24.4593 5.23299C24.1131 4.88677 23.6435 4.69226 23.1538 4.69226H19.4615" stroke="#C0BEB6" stroke-width="1.8" stroke-linecap="round" stroke-linejoin="round"/>
<path d="M6.53845 1V8.38462" stroke="#C0BEB6" stroke-width="1.8" stroke-linecap="round" stroke-linejoin="round"/>
<path d="M19.4615 1V8.38462" stroke="#C0BEB6" stroke-width="1.8" stroke-linecap="round" stroke-linejoin="round"/>
<path d="M6.53845 4.69226H15.7692" stroke="#C0BEB6" stroke-width="1.8" stroke-linecap="round" stroke-linejoin="round"/>
<path d="M17.6154 18.5383H8.38458" stroke="#C0BEB6" stroke-width="1.8" stroke-linecap="round" stroke-linejoin="round"/>
<path d="M1 12.0769H25" stroke="#C0BEB6" stroke-width="1.8" stroke-linecap="round" stroke-linejoin="round"/>
</svg>
