<svg width="60" height="52" viewBox="0 0 60 52" fill="none" xmlns="http://www.w3.org/2000/svg">
<g id="Group">
<path id="Vector" d="M53.6923 12.4348H6.30769C3.92862 12.4348 2 14.3035 2 16.6087V45.8261C2 48.1313 3.92862 50 6.30769 50H53.6923C56.0714 50 58 48.1313 58 45.8261V16.6087C58 14.3035 56.0714 12.4348 53.6923 12.4348Z" stroke="#E6E3DD" stroke-width="4" stroke-linecap="round" stroke-linejoin="round"/>
<path id="Vector_2" d="M29.9848 40.0696C34.7344 40.0696 38.5848 36.2193 38.5848 31.4696C38.5848 26.72 34.7344 22.8696 29.9848 22.8696C25.2351 22.8696 21.3848 26.72 21.3848 31.4696C21.3848 36.2193 25.2351 40.0696 29.9848 40.0696Z" stroke="#E6E3DD" stroke-width="4" stroke-linecap="round" stroke-linejoin="round"/>
<path id="Vector_3" d="M40.7692 12.4348V6.17391C40.7692 5.06692 40.3153 4.00527 39.5075 3.22251C38.6996 2.43975 37.604 2 36.4615 2H23.5384C22.3959 2 21.3003 2.43975 20.4924 3.22251C19.6846 4.00527 19.2307 5.06692 19.2307 6.17391V12.4348" stroke="#E6E3DD" stroke-width="4" stroke-linecap="round" stroke-linejoin="round"/>
</g>
</svg>
