<svg width="36" height="36" viewBox="0 0 36 36" fill="none" xmlns="http://www.w3.org/2000/svg">
<path d="M20.7644 21.0805L16.1511 21.9109L16.92 17.2359L25.7315 8.45489C25.8744 8.31075 26.0445 8.19634 26.2319 8.11827C26.4193 8.0402 26.6203 8 26.8233 8C27.0263 8 27.2273 8.0402 27.4147 8.11827C27.6021 8.19634 27.7721 8.31075 27.9151 8.45489L29.5451 10.085C29.6893 10.228 29.8037 10.398 29.8817 10.5854C29.9598 10.7728 30 10.9738 30 11.1768C30 11.3799 29.9598 11.5809 29.8817 11.7683C29.8037 11.9557 29.6893 12.1257 29.5451 12.2687L20.7644 21.0805Z" stroke="#000001" stroke-width="2" stroke-linecap="round" stroke-linejoin="round"/>
<path d="M27.6844 21.8487V26.4622C27.6844 26.87 27.5224 27.2612 27.234 27.5496C26.9456 27.838 26.5545 28 26.1466 28H11.5378C11.1299 28 10.7388 27.838 10.4504 27.5496C10.162 27.2612 10 26.87 10 26.4622V11.8528C10 11.4449 10.162 11.0538 10.4504 10.7654C10.7388 10.477 11.1299 10.3149 11.5378 10.3149H16.1511" stroke="#000001" stroke-width="2" stroke-linecap="round" stroke-linejoin="round"/>
</svg>
